<mxfile host="app.diagrams.net" modified="2020-12-21T13:14:36.316Z" agent="5.0 (Windows NT 10.0; Win64; x64) AppleWebKit/537.36 (KHTML, like Gecko) Chrome/87.0.4280.88 Safari/537.36 Edg/87.0.664.60" etag="RbHlggHVWNV7JMKPJV4s" version="14.0.5" type="github">
  <diagram id="U7y7s_g0ZZTSINKh2nji" name="Page-1">
    <mxGraphModel dx="1574" dy="809" grid="1" gridSize="10" guides="1" tooltips="1" connect="1" arrows="1" fold="1" page="1" pageScale="1" pageWidth="20000" pageHeight="20000" math="0" shadow="0">
      <root>
        <mxCell id="0" />
        <mxCell id="1" parent="0" />
        <mxCell id="zuTwkrwnKx_cXMOe-0HA-27" value="VPS Hosted on Hostinger" style="swimlane;dashed=0;fillColor=#8CC64F;fontFamily=roboto;fontSource=https%3A%2F%2Ffonts.googleapis.com%2Fcss%3Ffamily%3Droboto;fontColor=none;align=center;html=1;" vertex="1" parent="1">
          <mxGeometry x="710" y="420" width="1260" height="1140" as="geometry" />
        </mxCell>
        <mxCell id="zuTwkrwnKx_cXMOe-0HA-6" value="Back End" style="swimlane;portConstraint=north;" vertex="1" parent="zuTwkrwnKx_cXMOe-0HA-27">
          <mxGeometry x="215" y="290" width="610" height="512" as="geometry">
            <mxRectangle x="1525.01" y="950" width="90" height="23" as="alternateBounds" />
          </mxGeometry>
        </mxCell>
        <object label="NodeJs" id="zuTwkrwnKx_cXMOe-0HA-3">
          <mxCell style="outlineConnect=0;dashed=0;verticalLabelPosition=bottom;verticalAlign=top;align=center;html=1;shape=mxgraph.aws3.android;fillColor=#8CC64F;gradientColor=none;fontFamily=roboto;fontSource=https%3A%2F%2Ffonts.googleapis.com%2Fcss%3Ffamily%3Droboto;fontStyle=1;labelPosition=center;" vertex="1" parent="zuTwkrwnKx_cXMOe-0HA-6">
            <mxGeometry x="200" y="150" width="180" height="180" as="geometry" />
          </mxCell>
        </object>
        <mxCell id="zuTwkrwnKx_cXMOe-0HA-9" value="&lt;b&gt;Helmet - Security&lt;br&gt;&lt;/b&gt;" style="shape=image;verticalLabelPosition=bottom;verticalAlign=top;imageAspect=0;aspect=fixed;image=data:image/svg+xml,PHN2ZyB4bWxucz0iaHR0cDovL3d3dy53My5vcmcvMjAwMC9zdmciIHdpZHRoPSIxMjgiIGhlaWdodD0iMTI4IiB2aWV3Qm94PSIwIDAgMTI4IDEyOCI+PHBhdGggZD0iTTExNC42NyA5OS4yNDZjLS4yNjctLjQ1LS43LS44ODUtMS4xNjMtMS4xMTctLjg2NC0uNDM3LTEuNDIyLTEuMTQzLTEuOS0xLjg5Ny0xLjIwNi0xLjkxNC0yLjM2NC0zLjg2LTMuNDgzLTUuODI4LS4yNjctLjQ3LS40MjctMS4wNjctLjQzNS0xLjYwNi0uMDQtMi4yNjQtLjA5OC00LjUyNC4zNy02Ljc3LjE3NS0uODQ3LjQzLTEuNCAxLjMyMi0xLjczIDEuODM1LS42NzcgMy4zNDctMS44NTUgNC42Ny0zLjMuNTYyLS42MTQuODctMS4yNi45ODQtMi4wOS40LTIuOTIgMS4wMy01LjgzIDIuMTkyLTguNTEgMS4yMy0yLjg0NiAxLjI4Mi01LjcyNCAxLjA4LTguNjU1LS4xNTctMi4yNS0uNDctNC41MDYtLjkzOC02LjcxLS43MDQtMy4zMTQtMS40NDYtNi42MzQtMi40NTMtOS44NjYtMS43ODgtNS43MzctMy45OC0xMS4zMTMtNy4zOTctMTYuMzMtMy4wMy00LjQ0LTYuNDE2LTguNDkzLTExLjI3Mi0xMS4wNzMtLjU4Ni0uMzEzLTEuMDg1LS44MDQtMS41OTUtMS4yNDgtLjYyNi0uNTQtMS4zNC0uOC0yLjE1NS0uOTA2LTMuNTY1LS40NS03LjA1NC0uMjMyLTEwLjEyOCAxLjc4Ni0xLjMxMi44Ni0yLjI0OC42OS0zLjMzLS4xNDUtLjM2LS4yNzctLjc1Ni0uNTA0LTEuMTQ4LS43My0zLjQ5Ni0yLjAxNS03LjE2My0zLjM4NS0xMS4zLTIuOTctLjQ0Ny4wNDYtLjkwNi4wMDctMS4zNTguMDA3bC0uMDEzLS4xM2MtMy4yNjYuMjgtNi41My41OTQtOS44MDIuODIzLTMuMTkuMjI0LTYuMjgzLjkwMi05LjE5IDIuMTk3LTExLjc4NSA1LjI0LTIwLjAzIDEzLjc5NS0yNC4wNzQgMjYuMTU1LS44NzUgMi42NzMtMS43NTMgNS4zNjctMS43NyA4LjI2LS4wMzMgNS4zMTctLjAwNSAxMC42MjctLjM1NiAxNS45NS0uNDI0IDYuNDMzLS4yMTMgMTIuOTEtLjI2IDE5LjM2Ni0uMDIgMi4yNjYtLjAwMyA0LjUyMy42NTQgNi43MzUuMzIgMS4wNzcuNTA4IDIuMjA4LjYyNyAzLjMyOC4yMjQgMi4wNzYuMjc1IDIuMy0xLjU0IDMuMjc3LTEuMzk0Ljc1LTIuNzQzIDEuNTgzLTQuMDkyIDIuNDE3LS43Ny40NzUtMS41MDUgMS4wMDctMi4yMyAxLjU0Ny0xLjM0Mi45OTctMS42NzggMi40LTEuMzM4IDMuOTM2LjE0LjYyLjYxMiAxLjE4Ljk3IDEuNzQuMjM4LjM2Ni42MDIuNjE0LjQ2NCAxLjE3LS4zNTIgMS40MTUuNDQ4IDIuMzUgMS40MyAzLjIgMS41NCAxLjMzMyAzLjAzNyAyLjcxNiA0LjYgNC4wMi41OTQuNDk0IDEuMjg0LjkxOCAxLjk5NiAxLjIxMy43MS4yOTMuOTYzLjcyOCAxLjE4NiAxLjQ0OC41NTIgMS43ODQgMS42NjYgMi4zNjggMy4zMjYgMS44ODUgMS40MS0uNDE0IDIuOC0uOSA0LjE5Mi0xLjM3NSA1Ljg5Ni0yLjAwOCAxMS44NzctMy42NiAxOC4wNy00LjUxIDMuNjktLjUxIDcuMzU1LTEuMjE2IDExLjA0Mi0xLjc3IDMuMzU0LS41IDYuNzEtMS4wNDQgMTAuMDgzLTEuMzQgNC4wNTUtLjM1MiA4LjEzMi0uNTczIDEyLjIwMy0uNjQgOC4wNDMtLjEzNSAxNi4wODgtLjA4OCAyNC4xMzItLjE5NiAyLjUxNS0uMDMzIDQuOTUuMzUgNy4zNzYuOTEuNjU2LjE1NCAxLjMxMy4zOCAxLjk3OC40MSAxLjUzMy4wNyAyLjg5NC0xLjEzNSAyLjkzNS0yLjY3My4wMjMtLjg4LS4wMzYtMS44NjItLjM5OC0yLjY0LS44MDMtMS43MzMtMS43OTItMy4zODQtMi43Ny01LjAzMnptLTM0LjAzLTc1LjkyYzIuNTg3LTEuODkgNS41MDQtMy4wNCA4LjY2LTMuNzIgMS44MTUtLjM5MyAzLjM1My0uMDk0IDQuODUuODMgMi45MyAxLjgwOCA1LjM1IDQuMTYgNy4zMiA2Ljk4NCAyLjIxNiAzLjE4IDMuOTM0IDYuNjIgNS4zMzMgMTAuMjA4IDIuMTQgNS40OTMgMy42NjQgMTEuMTczIDQuNjQgMTYuOTguMzE3IDEuODkuMDk2IDMuODcuNDMgNS43NTMuNjggMy44NTMtLjQzNSA3LjM5NC0xLjU0IDEwLjk2LS4yMTUuNy0uNTggMS4yODYtMS4yOCAxLjQ2NS0zLjQ4Ny44OS02LjgzIDIuNDgyLTEwLjQzIDIuMjI0LS45MjIgMC0xLjcxNi4wMjYtMi41MDYtLjAxNC0uNDg0LS4wMi0uODItLjI4Mi0uODc1LS44MjctLjA1My0uNTYtLjA1LTEuMTU1LS4yNTYtMS42Ni0uMjA1LS41LS41ODctLjk2LS45OC0xLjM0Ni0uNTk4LS41NzYtMS42Ni0uMzM0LTIuMDA0LjQxMi0uMzguODE4LS42ODUgMS42NzUtMS4xMDUgMi40NjgtLjQ4Mi45MDctMS44MzUgMS4wMzgtMi42MjcuMjgyLS4xMzMtLjEyNi0uMjQ4LS40MjctLjE5LS41NzYuMjEzLS41Mi41NS0uOTkzLjc0Ny0xLjUyLjE5OC0uNTE4LjM3My0xLjA3Ni4zOTItMS42MjMuMDI1LS43MTUtLjMyLTEuMzA2LTEuMDA1LTEuNjMyLS41NzItLjI3Mi0xLjEzOC0uMTY1LTEuNTgyLjIyMi0uOTQuODE3LTEuODMyIDEuNjgtMi43MjggMi41NDItLjMyNS4zMDctLjU1Ny43MzQtLjkxNy45ODItLjIwNC4xNC0uNTgzLjA1LS44NzQuMDAzLS4wNDMtLjAwOC0uMTE0LS40MTMtLjAzMi0uNTQuNS0uNzUgMS4wNjctMS40NiAxLjU2OC0yLjIxMy4zMDYtLjQ2Ni41OS0uOTY0Ljc4LTEuNDg2LjI3My0uNzQ3LS4wOC0xLjY5Ni0uNzItMi4wOTctLjY0LS40MDYtMS4zMS0uMzY0LTEuOTIyLjAyNi0xLjcyMiAxLjEwNy0zLjI3NSAyLjQyLTQuNTQ2IDQuMDQ1LS4yMDUuMjY0LS40MTMuNjAzLS42OTMuNzEtLjI1Ni4xLS42NTUuMDA1LS45MTctLjE0LS4yNzUtLjE0NS0uNTM1LS40MTQtLjI2Mi0uODIuNDQzLS42NTcuODc2LTEuMzIyIDEuMjctMi4wMS4zMzUtLjU4Ni42NDYtMS4xOTQuOTEtMS44Mi4zNjYtLjg2My4xOTUtMS43NTctLjM1NS0yLjE4Ni0uNTY1LS40MzUtMS41NC0uMzg0LTIuMTkuMTk3LS42NzMuNjA1LTEuMjk3IDEuMjctMS45MjggMS45Mi0uNzEuNzMtMS4zOTcgMS40ODUtMi4xMTIgMi4yMDctLjQ5OC41MDQtMS4wMjQuNzgtMS44MS41LTQuMTUtMS40ODItOC4zMjItMi45MDUtMTIuNDgzLTQuMzY0LS4zMTUtLjExLS42MjUtLjI3Ny0uODg4LS40ODQtMi4zMjMtMS44My00LjQzNy0zLjg3My02LjEzLTYuMzE0LS44MzMtMS4yLS44MTItMi41Ny0uNTgtMy45Mi4wNy0uNDAzLjQyNi0uNzg1LjcyMi0xLjExIDQuMjctNC42OSA4LjUzOC05LjM3OCAxMi44MzQtMTQuMDQgMy4yMy0zLjUwNCA2Ljc2Mi02LjY4NiAxMC41MDgtOS42MyAyLjQ5Mi0xLjk1OCA0Ljk0NS0zLjk2OCA3LjUwMy01LjgzOHpNMzUuMjEzIDk5LjQyM2MtLjEwMyAyLjY5Ny0uMiA1LjM5Mi0uMzEyIDguMDg4LS4wMzMuODItLjI5IDEuMTc0LTEuMTggMS4zOTgtMi44Ni43MTgtNS41MzYgMS44ODUtOC4xNTIgMy4yMi0uODMuNDIyLTEuMTM3LjM0Ni0xLjUtLjYzMi0uNzU4LTIuMDM0LTIuNDQyLTMuMTk0LTQuMDIyLTQuNDQ1LS43OS0uNjI1LTEuNzIyLTEuMDY2LTIuNTctMS42Mi0uNTgtLjM4LS42My0xLjI4Ni0uMDQ3LTEuNzM2Ljk3Ny0uNzU3IDEuOTgzLTEuNDgzIDMuMDMtMi4xNCAxLjUyMy0uOTYgMi45OTUtMi4xNzIgNC42Ny0yLjY3IDEuNTU3LS40NjYgMy4zNTItLjEgNS4wNC0uMTcyIDEuMzUtLjA2IDIuNjkyLS4yMTMgNC4wMzUtLjM0OC45MjQtLjA5MiAxLjI2LjE4NiAxLjAwNyAxLjA1NnptOC44OTgtLjczNmMtLjU5NSAyLjA4NS0uNTI2IDQuMjE2LS41NjYgNi4zNDctLjAyNSAxLjIzNy0uMzQ4IDEuNTktMS41MTUgMS44MTMtLjIyLjA0My0uNDQ2LjA2Ni0uNjY4LjA5My0xLjI2LjE0Ny0xLjY0Mi0uMTc2LTEuNjY1LTEuNDEtLjAwMy0uMjI1IDAtLjQ1IDAtLjg2Mi4xNzYtMS43MS4zNTItMy42MDguNTc2LTUuNS4xMy0xLjA4Ny42Ni0xLjUzMiAxLjgwNi0xLjU3My40NDItLjAxNi44OTcuMDI3IDEuMzMyLjEyLjQ5LjEwOC44MzQuNTA1LjcuOTc1em01LjU1LS4xOGMtLjcyIDIuMDUtLjY5NCA0LjE3Ny0uNzA4IDYuMzA1IDAgLjExNy0uMjY2LjM1Mi0uMzUzLjMyOC0uMTk1LS4wNTItLjQ3OC0uMjEyLS41MDUtLjM3LS4xNy0uOTgtLjI3Ny0xLjk3Mi0uMzg3LTIuODEyLjExNy0xLjE2My4xNjQtMi4xNy4zNC0zLjE1NS4wNzMtLjM5NS40MDMtLjc2OC42ODQtMS4wOTQuMDk2LS4xMTQuMzk4LS4wOC42LS4wNjMuMDg1LjAwNy4xOTQuMTQuMjI0LjIzNS4wNjQuMjAzLjE3LjQ1LjEwNy42MjZ6bS0zLjY1My03LjIxNGMtNC4zMTctLjA0Ni04LjU4Ny4zMTctMTIuODE4IDEuMTctLjQxNS4wODYtLjk1NS4wMzYtLjc0My0uNjYuMTgtLjU5NS4xMTctMS4xMi0uMzEyLTEuNTY4LS4zMTMtLjMyNS0uNzMtLjU2Ny0uOTg2LS45MjgtLjg3OC0xLjIyLS42NS0yLjU5Mi41MjQtMy41LjcxNy0uNTU0IDEuNDQ2LTEuMDg3IDIuMTQ0LTEuNjY1LjM0LS4yODYuNjg2LS42MDguOTItLjk4LjM1NS0uNTcuNjk4LTEuMTcuMzE1LTEuODk2LS4zNTQtLjY3NC0uOTIzLS45NjYtMS42NC0xLjAyNC0uMzM2LS4wMjYtLjY4NC4wNDUtMS4wMTUtLjAwNS0uODY4LS4xMzItMS43NzMuOTk1LTIuNDguMTkyLS40NDctLjUwNy0uMzU1LTEuNDc1LS41MzQtMi4yMy0uMTI4LS41NS0uMzYzLTEuMDgzLS40My0xLjYzNy0uMDMtLjI2Ny4xNTctLjc1Ny4zNTItLjgyIDIuNjU2LS44ODQgNC40My0zLjExNiA2LjgwMi00LjQyNS40NjYtLjI2LjgyNS0uNzcyIDEuMTM0LTEuMjM0LjU0OC0uODE3LjAzLTIuMjcyLS45MjQtMi41NS0xLjQ2LS40MjYtMi45MjMtLjQzMi00LjI0NS40NDUtLjg0Ni41Ni0xLjYxOCAxLjIzNy0yLjQ2IDEuODEtLjIxMi4xNDUtLjY5NC4yMjMtLjgxNS4wOTctLjIwMy0uMjAzLS4yNi0uNTkzLS4yOTQtLjkxMy0uMDctLjczNi4yNy0xLjMuODI3LTEuNzYgMS44NC0xLjUxNSAzLjc2NC0yLjkgNS44OTMtMy45OS42LS4zMDggMS4xOTQtLjY1IDEuNzMyLTEuMDUzLjQ3Mi0uMzU1LjY2My0uODk3LjU3LTEuNTA2LS4xLS42NjctLjY0OC0xLjIyMi0xLjMzMy0xLjM2Ny0xLjQwNC0uMy0yLjcxLS4wMjMtMy45MTQuNzA4LS45NjUuNTktMS44NzcgMS4yNi0yLjgzNCAxLjg2LS4xNC4wODYtLjUxOC4wNDQtLjU2Ny0uMDUtLjE0LS4yNzMtLjMwNi0uNjYtLjIwNy0uOS4xNjUtLjM4Ny40NjYtLjc5LjgyLTEuMDE1IDEuNDM3LS44OTggMi45MS0xLjczNSA0LjM3NC0yLjU4Ny43OC0uNDUzIDEuNjMtLjgxIDIuMzQyLTEuMzUgMS4xMzUtLjg1Mi44Ni0yLjQ0Mi0uNDItMy4wMTMtMS4yMTYtLjU0NC0yLjQyLS40Ny0zLjYzNy0uMDY0LS44NTQuMjg2LTEuNjkuNjM1LTIuNTUuOTA3LS4xNTYuMDQ4LS40NDQtLjEtLjU2NS0uMjQ1LS4xMjUtLjE0NS0uMi0uNDE2LS4xNi0uNjA1LjE2Mi0uODEuNTY3LTEuNDcyIDEuMzA1LTEuODk1IDEuMzczLS43OSAyLjczNy0xLjU5NSA0LjEyMi0yLjM2NC43OS0uNDM3IDEuNjM4LS43OCAyLjQxLTEuMjQ4LjQ3My0uMjg4LjkwOC0uNjg3IDEuMjYtMS4xMTYuNzQ3LS45MDcuMzI4LTIuMzU3LS43NDItMi44NTMtLjc2LS4zNTItMS41Mi0uNDQtMi4zMDItLjE0LS43NC4yODQtMS40NjcuNTk4LTIuMTk3LjkwNS0uODIzLjM0My0xLjY0My42OTMtMi40NjQgMS4wNDMtLjc3NC0uODkyLS4zMy0xLjk0LS4zNjMtMi45MjMtLjAyLS41NjMuMDE1LTEuMTQ4LjE1LTEuNjkgMS4yNDMtNC45NTYgMi44LTkuODA0IDUuNTU1LTE0LjE1MyAxLjQwOC0yLjIyNyAzLjMxNy00IDUuNzMyLTUuMTczIDEuMTItLjU0MiAyLjI2My0xLjA1IDMuMzI3LTEuNjg4IDMuMjYtMS45NSA2LjgyNS0zLjA3NiAxMC41MjUtMy42MzggMy4yNDgtLjQ5NCA2LjU1NS0uNDAyIDkuODI3IDAgMS4wMDYuMTI1IDIuMDQuMjU0IDIuOTk1LjU2NSAxLjkuNjI0IDMuODI2LjU1MiA1LjcxNy4yMjYgMS4xNjctLjIgMS45NTQuMjMyIDIuNzg0LjgzMi4zOTIuMjg1LjUwNi44NDYuMTkyIDEuMTY3LS42MzMuNjQzLTEuMjYzIDEuMjk4LTEuOTU2IDEuODctMi45NjUgMi40NTQtNi4wNTUgNC43Ny04LjkxNyA3LjM0LTQuMyAzLjg2Mi04LjM0MiA3Ljk5LTEyLjAzIDEyLjQ2LTEuOCAyLjE4NC0zLjc0MyA0LjI0NS01LjYwNyA2LjM4LS42Ny43NjUtMS4yMjQgMS42NDQtMS45NTIgMi4zNDgtMi41MTcgMi40NC0yLjc2MyA1LjU1OC0yLjc3IDguNzc1LS4wMDQgMS40NTcuNDkgMi43MjcgMS42MjcgMy41OCAxLjEyLjgzOCAxLjk3MyAxLjg0NSAyLjY4MyAzLjAxNCAxLjM4IDIuMjY3IDMuMzA3IDQuMDE3IDUuMzk1IDUuNTg3IDMuMTg3IDIuMzk2IDYuNjc2IDQuMjQ4IDEwLjQwNyA1LjY2MiA2LjY5OCAyLjUzMiAxMy42MyA0LjE2NSAyMC43IDUuMTIgNC41OTIuNjIgOS4yMzMuOSAxMy44OS43MiAzLjU5NS0uMTQgMy40MzgtLjQxOCAzLjMwMyAzLjEzNC0uMDUzIDEuNDMuMzg0IDIuOTI2LS40MzIgNC4yODQtMS4zNC4wNDgtMi42OC4xMjctNC4wMi4xMzgtMi43Mi4wMjMtNS40NC4wMDctOC4xNTguMDA3di0uMDg1Yy0zLjQgMC02Ljc5OC0uMDQ3LTEwLjE5NS4wMTYtMi4xMzUuMDQtNC4yNzIuMDUzLTYuNC4wODItMi43ODQuMDM1LTUuNTM0IDEtOC4zODIuNjkzLTIuMzk3LjkyMi00LjkxMy42Mi03LjM5Mi43NC0xLjQ2NS4wNy0yLjkyNC4yOS00LjM5LjM3Ni0yLjAzMi4xMTctNC4wNy4yNzMtNi4xMDYuMjV6bTYwLjYxOCAxMC43NjVjLTEuNTg0LjAyNy0zLjE3Mi4wMjUtNC43NTcuMDI3LTEuODEzLjAwMy0zLjYyNy4wMDItNS40NC4wMDJ2LS4wMDVjLTMuMDYgMC02LjEyLjAwNS05LjE4LS4wMDItMS42NjUtLjAwNS0xLjYzLS4wMjctMi4yMy0xLjY5LS4yMjQtLjYxOC0uNTYtMS4yNC0uOTkyLTEuNzI3LS44LS44OTMtMi40Mi0uNDk2LTIuNzU3LjY2My0uMTg3LjY0LS4xOCAxLjMzNi0uMjg3IDIuMDA0LS4wODIuNTEyLS40NTQuNzktLjkzMi44MDgtMS4wMTUuMDM3LTIuMDM2LjA0OC0zLjA1LS4wMDMtLjQ5LS4wMjYtLjc3NS0uMzk4LS44MS0uOTA0LS4wNDUtLjY3NS4wMTctMS4zNzUtLjE0Ny0yLjAyLS4xMzItLjUyLS40NjYtMS4wMjctLjgyMy0xLjQ0LS42MDctLjctMS44OC0uNDg2LTIuMzM0LjMtLjUyMy45MTMtLjY1IDEuOTEtLjc5NiAyLjkyNy0uMiAxLjM5My0uNTA0IDEuNjEtMi4wMTggMS43MzQtLjExMi4wMS0uMjI2LjAxNS0uMzM3LjAyLTEuMTU2LjA2LTEuNC0uMTI2LTEuNTgzLTEuMjEtLjA5Ni0uNTUyLS4xNTMtMS4xMTUtLjI5NC0xLjY1My0uMTM2LS41MTItLjg5Ni0xLjA3LTEuMjg4LS45MDctLjM4NC4xNjItLjgwOC40NTQtMS4wMDguODA1LS42MDYgMS4wNi0uMDggMi43ODQtMS4yODQgMy4zNC0xLjI4Mi41OS0yLjg0OC41NjYtNC4yOS44LS4zODIuMDYtLjgzMy0uMzkzLS44NDQtLjg2Ny0uMDItLjkwNC4wODUtMS44MjQtLjA0Ny0yLjcxMi0uMDk2LS42My0uNDIyLTEuMjctLjc4NS0xLjgxMi0uNDE0LS42Mi0xLjc2My0uNTU3LTIuMDg1LjA5OC0uMzk1LjgtLjcyIDEuNjU4LS45MDcgMi41MjUtLjE3Ljc2NC0uMDkzIDEuNTgtLjE1IDIuMzctLjA3Ljk1My0uNTY4IDEuMzctMS41NzMgMS4zMTQtLjQ3NS0uMDMtLjk1OC0uMjMtLjkxMi0uNzcyLjE3Ni0yLjAyNi4zOTgtNC4wNDcuNjY2LTYuMDY0LjAzNC0uMjQ1LjQyNy0uNTg3LjY5NS0uNjMyIDEuNDQ3LS4yNDMgMi45MDQtLjQ5IDQuMzY2LS41OCA1LjQyNS0uMzIzIDEwLjg4NC0uMzE3IDE2LjI3My0uOTMyIDcuNTgyLS44NjYgMTUuMTYtLjMxMyAyMi43MzUtLjUyIDEuODc3LS4wNTMgMy44ODYuNTY1IDUuNTQ3LS45MjguMDUzLS4wNDcuNTU1LjIzNy42ODguNDYyLjg3NyAxLjQ1MyAxLjcgMi45NDIgMi41NiA0LjQwNS4zNC41ODIuNzUgMS4xMyAxLjExMiAxLjcwNC4zNjMuNTguMDY0IDEuMDYtLjY5OCAxLjA3M3ptLTQ1LjQ0LTU0Ljc2NGMtMS43NTYuNTMzLTMuMjc1IDEuNTI1LTQuNDY1IDIuOTQyLS41OS43MDQtMS4wMTQgMS41MzgtLjg2OCAyLjQ5My4yMTggMS40NDQuNDQzIDIuOS43OTYgNC4zMTQuMzM4IDEuMzU1IDEuNTczIDIuMjQgMi45ODcgMi4zMzggMy43ODQuMjcgNi40NS0yLjI4MyA2LjU4OC02LjE3Ni0uMjU0LTEuMjA1LS41MS0yLjQxLS43NjgtMy42MTYtLjM5Mi0xLjgzOC0yLjQ1OC0yLjg0Ny00LjI3LTIuMjk2em0uNTc4IDUuOTczYy0uMDk2LjE2Mi0uMzEuMzMzLS40ODcuMzUzLS4xNS4wMTgtLjM4Mi0uMTQ2LS40Ny0uMjkzLS4xMDYtLjE3My0uMTI0LS40MTYtLjEyNy0uNjI3LS4wMS0uNTYyLjM5LTEuMDEzLjcxNy0uODA0LjIzNS4xNDguMzcuNDQ3LjQ5OC42MDctLjA1LjM0LS4wMy41ODctLjEzLjc2em0xOS42MTQtMjIuMTIzYzEuMjI1LS41NzMgMi40MjQtMS4yMDUgMy42MDUtMS44NjIuNjktLjM4MiAxLjMwMi0uOSAxLjk5LTEuMjgyLjY3NS0uMzc1IDEuNzA4LS4xOCAyLjE4OC4zOS40MzMuNTE2Ljc5IDEuMSAxLjE4IDEuNjUzLjUyNC43MzYgMS4wMTggMS40OTUgMS41NzggMi4yLjg0IDEuMDU3IDEuOTggMS40NCAzLjMwNyAxLjM2MyAxLjExMi0uMDY1IDEuODM1LTEuMDkgMS40Ny0yLjE1Ni0uMTEtLjMxNy0uMjI0LS42NS0uNDItLjkxNC0xLjI4OC0xLjcxNS0yLjU4LTMuNDMtMy45MTYtNS4xMS0uOTg1LTEuMjM2LTIuMy0xLjc5LTMuOTY3LTEuNjEzLTEuNzEyLS4xNjYtMy4yMy4yNTgtNC40NzUgMS43LS44MDQuOTI4LTEuODc3IDEuNjI1LTIuODEyIDIuNDQtLjQyNC4zNy0uODM2Ljc1NC0xLjIxMyAxLjE3LS4zNTcuMzk1LS4zNTYgMS4xNjMtLjAxNCAxLjU3NC4zOTQuNDcuOTQuNzEzIDEuNS40NXpNMjUuNDQ0IDEwMC4zNmMtMS40MzMgMS4yMTYtMi4zMzggMi43NTItMi4yMDggNC42ODMuMTMgMS44ODggMS4yMjQgMi45OTUgMy4wNzYgMi42MTMuNTQ4LS4xMTYgMS4xMS0uMTk1IDEuNjMzLS4zOCAxLjIyLS40MjMgMS45Ny0xLjU0IDEuOTc3LTMuMzI3LS4xNy0uNjE0LS4zNDctMS43MzgtLjc4LTIuNzUzLS41ODYtMS4zNzUtMi41NzMtMS43OTMtMy42OTgtLjgzNnoiLz48L3N2Zz4=;dashed=0;fillColor=#8CC64F;fontFamily=roboto;fontSource=https%3A%2F%2Ffonts.googleapis.com%2Fcss%3Ffamily%3Droboto;html=1;labelPosition=center;align=center;" vertex="1" parent="zuTwkrwnKx_cXMOe-0HA-6">
          <mxGeometry x="80" y="140" width="70" height="70" as="geometry" />
        </mxCell>
        <mxCell id="zuTwkrwnKx_cXMOe-0HA-10" value="&lt;b&gt;Morgan - Logger&lt;br&gt;&lt;/b&gt;" style="text;html=1;align=center;verticalAlign=middle;resizable=0;points=[];autosize=1;fontFamily=roboto;" vertex="1" parent="zuTwkrwnKx_cXMOe-0HA-6">
          <mxGeometry x="210" y="75" width="120" height="20" as="geometry" />
        </mxCell>
        <mxCell id="zuTwkrwnKx_cXMOe-0HA-11" value="Routing" style="shape=image;verticalLabelPosition=bottom;verticalAlign=top;imageAspect=0;aspect=fixed;image=data:image/png,iVBORw0KGgoAAAANSUhEUgAAAdEAAACNCAMAAADfJrCRAAAABGdBTUEAALGPC/xhBQAAACBjSFJNAABtmAAAc44AANpLAACE4QAAfO4AANgAAAAyOQAAHS50sLRbAAAC6FBMVEX////y8/P8/f3v8PHy8/T5+vrw8fL19fb6+vvt7u/m6Onj5efz9PXLz9L5+fnN0dTJzNDh4+Xc3uH+/v7KzdD3+PjU19nf4ePq6+3o6evk5uf09fXg4uTR1NfY293U19r8/Pzb3d/9/f3e4ePl5+na3N/i5ObZ3N74+PnW2dvX2dz19vfl5uj29/fe4OL7+/vV2NvP0tXo6uvKztHs7u/Mz9Lr7e7S1djd3+Hr7O3N0NPX2t3u7/Dp6+zQ09bx8vPb3uDO0tXn6eqnrbKBiZFsdn9XYmxCT1o7SFRBTlpVYGppc3x9ho6RmZ+prrTFycyVnKJWYWxIVF9qdH1/h4/IzM+epKpzfYVSXWhHU14+Slahp62dpKpweYJdaHJPW2ZNWWRZZG55goqiqK5ibHZmcHmssreOlp16gouvtLljbXY9SlaPl52zuL1kbni1ur4/TFhha3Vye4STmqGmrLK5vsLCxsqvtbqco6mJkZh1foc+S1d3gIiEjJPDx8uMlJuwtbqXnqRIVGBRXGd+h4+Um6G+wsa9wcWorrNUX2q4vcGOlZxGUl63vMDAxMikqrBPWmVQXGZ4gYmHj5aWnaOlq7DBxcm2u7+rsLafpqyLkplmcHpDT1tBTVlEUFx7hIy6v8Nxe4NbZnCqsLVMWGORmJ+Lk5o8SVWgpqyboqhJVWCzuLxjbnd8hY3Hy86/w8dtd4BfaXN2f4dYY22NlJtATViKkpm2u8BSXmixtrtveIFueIFga3SGjpWSmaBocnu9wsaDi5NKVmFFUVzHys5eaXJLV2KaoaeZoKZ6g4tFUl2IkJfEyMyHj5ets7iYn6VweoO5vcJcZnBfanS7wMRtdn93gIm8wMS0ub6yt7xncXqus7ifpatlb3hrdX5cZ3Glq7GAiJCiqa6ssbZTX2mYnqXGys2jqa+VnKOCipJaZW9zfIWFjZVOWWRVYWuBipHAxciEjZR0fYaboafDx8qQl559hY3///9bTPU1AAAAQ3RSTlMAAAAAAAAAAAAAAAAAAAAAAAAAAAAAAAAAAAAAAAAAAAAAAAAAAAAAAAAAAAAAAAAAAAAAAAAAAAAAAAAAAAAAAAAAF1+3VQAAAAFiS0dEAIgFHUgAAAAJcEhZcwAACxMAAAsTAQCanBgAAAAHdElNRQfhBB0CBiAojxglAAAPWUlEQVR42u2de1hURR/HFxBBVAzBvKXhmuWFwjLNUrLywhcxU1JTvEJqJUKYeAs1BS+hVCqlpUB5XcV7ipqaFhn5kua9fNWyi/qWZr1Zb3+/c1hZ9pwz5+zM2Vmep33m848ye76/s7/97pkzM2dm1maTSCQSiUQikUgkEolEIpFIJBKJRCKRSCQSiUQikUgkEolEIpFIJBKJRCKRSCQSiUQikUgkEolEIpF4R0BAzZ8zMKiWdwGCa4f4JqfQOkGhNa0UR1jPXr37xAMJfRP7Pd2/bo2cs94zAxIHJgGIH/jsoAH1A3n1AYOHPDd0WDIwXHBO4Q1GjBw1miiJdkxK6vA7avteKZaI58dCzbjx9LfSMDX1hUjWsD1TX4yo+n9Uaqr6xUYvTUhTn3PMxDvNomkiNErPcClpjrLnpCH05cRMaJk0nuFKt64UTONXlDNnJg6anDVl6rTpM14dm03+zp45mHbwLMMrQsds4DXXH3MA99eazM1RTpqbOG9+/wULX5/cL3G08nfeIuNwqghNF+crx6csHpL10htvNvMuJ3eav7VEUS5dVvD2O+lTl694972VqwqVkqJBd/lKKZiAiaTaKn7/g3ruZemrSSFm1dMf3mgN0lowBQ5Lwthguh+Ra5V6ad36lu7H371BMXl1mFE8twjRWeSjyhy5tpnBoZw5uXHHGMAxbmMrVaE9Yu0E5fuxKdgnSsFMKyHV3eZwXXntaUvJ9+0OvaB1IZay1F6hWzDsnuo/3R1t9izJcus23X0zdPsOoPB1Oz1gdYQ2O4m+IEhcTq43MJkE/vBe2kuNF5N7xK77xCsFY98NlM6lNxVDJjqAPY105XuBVxlCLwaWu/3p5uhgcoHti6KrPioG9relvuSKUJ8ck9FOaE5OoklVvSbKKG5Lcl/OaSVaKZjQrcCBewxfbn+QfLz6VvjHQE+PoRcCh9z/rnZ0O2k97O5gpIs5DIwMp71SFeGTTGR+ZNw6s5aTQuSnpNK/3zilwAFA2QNilYIJIZVcr1iTAwLJO92qqwTbjkJ2Rw+hIz7DKlVkl6Mr0lD2oInSvgl4hXbbuR1hsANFR4TnpDAc6GemtNmIMUtChCrFEkya/4fMuyJ2kv4eXWlEMfLMGxhtP0fJQ6qSKkc7pSGpjfn7mk+qdcpV5IzwcDkKO/sgJ5utSzzGRnv4yEiF/oVIpWAmAu94OkZJ/6iudArwL1MZqZg119FtRx8qQ0U7mzmRvYAB+uLKCPb9KH7EJznZvkRmV0/S8DzEPypQKZZjwHHPR9nJbekxXekM4CsT0cvACU2R09HQDHNDnMSeRFpLXWllhFPANN/kVCsZiz1LpwIzxCnF8mgZTrdlOC5gDEbp+hnhZ1BqXHd2jUdvrcTp6HRgAcM5Q0bjoO6cSgR7Cg6Y1Kne5HQW6MYg3YESuzClUOznEN+a6cjtwHhd4b0V2GXUXu2QgnUPawsrHW0Sj6+ZznmKUnkqEb5BcZixyquceqEvi/I80E6YUijki/VvxkNTkaMfUiC9k14Gxw+CQ992qXR0FiqaMJ0y8gISwigRxuFdX+V0EPNYhHWAjTZRSpFEfo6drCPuXSrcxmddvAakUw+/CFzSlyp+tHKY3n3d6eZQd2edEZqgxGQ4zbucymnvmsK3+M4mSikS0oTYznzwYhTp+1LBYxFP6zR3K8VJyv1CcXQPJjA/t5mlM49EGI/JPsspE2uZhPORqymxrhTJKlxm/nBtXYG9+tKYfJzWj6fVysNo2ogr8SM8H6eYz9kO2oNJhJ2IMJF4l9NSvM0k/B4JmhLrSoE0AL7hOPwwVlNKSfPiY13h10imPpohfpw1rTO1pOBZXQTs8F1OGfiBSbcC0HyPrSsF8ioG8rSk30Bad0rxRN11ZMsCvqeGIH5kmNaZWn4EGmsjYLPvcvoaiUy6I4B6NMwLpTiCExgrituEF+MnSrEyXqB+gNQiGTPpNZ/iB6hPmwyIc2C6LoLJo2Nvc9qAslgWXdj69V3UJdaV4ugMPM4lOIBz1PeYhDPuFWnQUlwxmIOh+NGb65w7cFIbIcnkPultTsuB81x6AUpxXEUS3zStLzCMWj7VfeKJzb4amUadaMVRvu7YCORHaiK84sOcYsuRwt6wEqMUxxYM4hNcA+KoLxxy7zFcArVyrkRx9DEbD+ScrTURhvgyp/m0sTEmrCtFEeDAFD5FD+Aa9YXYVciverzc2YGthhGIH2kmz4QpdNcMYcwxHRP2PifSGzNteRljXSmKN4EwTsku/If+QtMcZDjbBV3WoY/xQ13ixyTOc+biS00EkwejAnLqlA305J407J1SEMORFs0pOWDY53rm9vSTwO9QZDKXhvjB8MhJxYvYoolgEl9ETunkzjCqPmcUL5VieBpXeCVbMcHopZ+BYzalZWI6TE78mMN5zqPI00Qw6c4JyWn2FeJM4to43kjeKIXwC2c/grAH141eik5ESZxyqf5iFmAOz6Crkyx1Y3SO6ZCLmJzaflGq9Ju//T6GN5h1pQhu4FdeyVX19aIirgyJMTlYYzrERfxowHnOzYBdHaEGcmry1qjKxQ0Hpz/IuRbJutJ7tph2A6hk4abxi9uAfBQ2Ng1A/HiC85yksROgjlAzOT0xoHLFBuJH/tiRr7ljXeklefgtkZOBSDIJeIJkscj8nHOMerTGdAZi1BFqKif7k3MnOdch5c9ca/5NFab0is9gAbMnQRdh2rO47QfLDCB37lPP3zF3VHhOQQtXpjiPyi34hGt5mXWlZbKR8Ts3Ju2e9qVwoNx8vgnxg3c1Txv1xBxzR0XnVMnDZ1der7Qmbdx0j/M3BSktUYa3RIbrsQ9rHi/CBdMHEMSPOpxxGwDN1BFqLqdqui9Y7Gzx7L/GOXhrXcnNb3zPnTwQ+RyKGysN04lmRxE/Ilgj3ua/QA91hBrLSUOPb+ZVKKtVp/HeOLxQcjGJZZoyM5eAs+SfAuc/RhA/7uYMfJ6n9yI2Jz2hR24QZ0o28jdhrSvZOYcXxQWLcjiH98IPothksizxw+P6ag091W1Rc0eF5kSn4S9KDdqjRpWMLBM4zTCuHN86O9Qxw5BiuIhQ8YNnFpDCXPXMZnNHReZkyGNDgTxLu45YVzLxB06LChU7DmVVo62zYf40bRpbSBc3cFgToWZyMqHe+8DpDjWrZOFHZDJNjGHgBTiqK9MTQH+jA4kf6zljj1ErzB0VmJMZgcs8LcsTr2RgG9DG+ygKZ4ERbm/6gMHUTlulH6v4YnfR1NPmjorLyZzgHcDUGlZ6pg73VKfmixbRpnc2LsZq9+Zo99FYYtDrJH4U8V1E1zTPsM0d9S6nDk2bssqeylbNaLOuFMoYvMAnWA5QhoQ6rEGuev78I9n6dYZOlHlG7bnOeQnrtBF8ltMUgHnKzB+qgQ/rSqHcYJwz7GIAxlBKByFT28dcC/xMjaA4yrqMyckWzNRG8FlOpM5+ilUXAffhKetKoVxFPN8srsO4pS/8iTb1r5960xsXiqOehlFVNNPuyOLBUa9yage0ZBbexG6bAKVQHgc+4Dk+tFQzv13hzkzauskO11FBmzpP/CgbxrPsYyOS62gj+Cwn8vWJYlauwjKbAKVQIvcxbTLlogHwjLYsKBfXaf0r0loaRXGO+DGCawrkZe1ycA+OepVTLZ6vwyD3+UnWlWK5imyeMakf9KvK7CdRSB/0O0utXokfjXGQ/ZQNgdm6CD7LKbKCo7d8CCk2AUqxPMA1ghNUqn/Xm4y/mxOBi7pCxY/LMN1uVcU83IzWR/BZTrcwiln6g2rRo3WlWHZiJ/vSvHcA7WruIw7jm3zsBWR21BYqfmxkbxt1hO7pmCdHvcopC+jOKr2AWUKUYnmX4wsd2lc33PNUCTKMJ7zFlWOodi8OxY+A/GTW3UISkRREieCznFqaPwtUcRN/ClGKJTYFZazbw/8J/KX5PLagxGyopH6abi+GSj/ewy625u5ySsXt0VFvcrInaZeUG1IXWCFEKZgo4H9sR7bKxvuaog1wbDPVDIf221jpR4dy2q4remr9hgm6CtSjo17lNJn5+e0GFDYXoxRMKpKZRuWiJyFJs9/UImCTuSjyQ+1iNqcf6br9Aqmn3A+Hvnr27Kg3OXUvxFimzy0oQbMbnHWlYMISUM4w88f+q27foq7x1P1tVAT0RQ5tnP13rPO8K9gM0JpdDI5az8lmexv4iOVzK9A95LGuFAz5hHI9PjdQ9rnUfLFCUrTj8zTuK3Lfpd7lx/3XkeOpC9MTuEF5TMPgqOWcCLUrkHzM86f2OvC3MKVoSAN+l4eGd2AvoEAzNXErslm6lZvV22hW+dG6DPHm9+D+DiTSZs6xOGo1J4XB2Ujw+JsKyx2UqTfWlaLZBFwxXfT4QAbwhyb5/mDcYqtA9cTS5UfrJchON1bVSwXOULdjZnLUWk5O9gIV5m1R+yWHMpNVoFI0yg8gFBjuZh07JBOYrLljtshGP7bg4QdRVH3fqPYjJg9INGrAdOsLXKZfZGyOWsmpiueJ9IbJ6pwmJ4GSBmKVovkqH1iyIJr2Usj4FCDvSU1p99HsdUfMMPR19Q/d/Ohyi+T/KW1D6Ht+LoVjgMFqCkZH+XOq5s1ycrEdNfjZgod2lwKfh4lWiqbLVvLpls3Q/mZZdMcNxeSFL7X7KgTuQCH7byLMBj6sqt9UfizKARJSz6uvxcC/bjiAPoZbZLM6ypuTO0F/V65qWKi7xgNO/U0u7uQ994tXCueast4c5TOyTnXqGhQZGHTv3VOv9lZ+Mqn044a6g0+AY7PGysOrfpJL7UedlcqH61h1aVHUE3UCg2MavDF8T66y8PJp49UEzI5y5qTmyK3KX3PrMy8rqlvdoFBbQMNr045+ekEpdPzezDdK0QRfO15etfwu2bUQb+gQSg/lGLCBJ3TgAThuN1O0fjT/6XrVqRxV/zn3stn1w+EoT0464i7tq16PmO3635kRHnu61pXCsbeYfOam62f50lKO7xVe6VP8uCv9+Omqc+avOTmceVKdz3MKWzB3ZE61OUmJey4yTiayrvQFIWHtB29r16yWT5bGGVxhsUERdx6pH+GzjpoXOYUG1e3W+a9O7SJYLmxByn8SPHWm5J+AdNTfkI76G9JRf0M66m9IR/0N6ai/IR31N6Sj/oZ01N+Qjvob0lF/Qzrqb0hH/Q3pqL8hHfU3pKP+hnTU35CO+hscu61JJBKJRCKRSCQSiUQikUgkEolEIpFIJBKJRCKRSCSSGuD/jJO/mDRWJvUAAAAldEVYdGRhdGU6Y3JlYXRlADIwMTctMDQtMjlUMDI6MDY6MzItMDc6MDDAU/oWAAAAJXRFWHRkYXRlOm1vZGlmeQAyMDE3LTA0LTI5VDAyOjA2OjMyLTA3OjAwsQ5CqgAAAABJRU5ErkJggg==;dashed=0;fillColor=#8CC64F;fontFamily=roboto;fontSource=https%3A%2F%2Ffonts.googleapis.com%2Fcss%3Ffamily%3Droboto;html=1;fontStyle=1;align=center;labelPosition=center;" vertex="1" parent="zuTwkrwnKx_cXMOe-0HA-6">
          <mxGeometry x="410" y="120" width="164.89" height="50" as="geometry" />
        </mxCell>
        <mxCell id="zuTwkrwnKx_cXMOe-0HA-15" value="enviroment variables" style="shape=image;verticalLabelPosition=bottom;verticalAlign=top;imageAspect=0;image=data:image/png,iVBORw0KGgoAAAANSUhEUgAAAMgAAADICAMAAACahl6sAAACMVBMVEXs1T8AAACwdCKunTCBoDLs1T0AARB5OhNHaCggHQzEsTW7xjpEPhacjivg1T3s1T4RKhxGDguunS89DQrr0TgAARLk1T4AAAro1T63xjns1TwWNBzrzjhVEQ4AAQ2NUxqznTE1CgmIpDPGkCjowDXc1D3T1DzKzzvByzoAAhULHRkAARNkhi3qyTbs1TrSnyzGzzsZPB5ykTDSnyvRmyufYR2TWRodRR/itzHY1D09Yia8yzpsMBEdBQMMHAFRdCmvoi+rbiAWNB0qCQYtTSKrbh95ljGAQhQLHRiMSxa7gCXb0D1RdCqZrzWTqjV6mjHNmysMHAqUrzXXpS6SUxqxwjmaYR0AAhbP1DxOEA1igSysvTiluDdzOhLr0TnTpC0LHRvqyTcvVCQ7WyW2gCQvVCJriy+BoDPbuzcRKhsqRR8gHQS2rDXgwDgZPB+4njDMxzvCzzrRsjVBbSiijiznvDOXjS1LXB1HIQsRKh2unTFHaCaMSxkgTSGHoDPYqS6gtDfjvDKAmzKOqjSrcyHNmypykS+ZWhvs1TncqS+huDcyWyTXpS2ZWh0xNRRlLxA6NRrFyzvpxTW8hiZbgCzRzDzr0TwAAhi7xjg9YiW2rDa2wjndszA5VB5vSRVJbilrJRF0gSegaB50ljCutDKxeiM/aCbs1TteIw/YqS/dri+RoTDIsTVHaCnEsTTKujlTeirrzjemvTjBiyjitzKlbSAdRSF6QhOwdCG1eiTfuzew8gN/AAADzklEQVR4XuzAsQAAAAACsPyRokuic8sLAAAAAAAAAAAAAAAAAAAAAAAAAAAAAAAAAHTM2mdTFEsUBuDT4q7g6i4LbAJZlCSCiogiiiAmUMkGFBRECcacc84555xzDvf+O6uQ7VPT3WcQi9np8w26KXiq3pl5e5aE4TGmk7C+B7ChZ2f53ioJsPXPWnnMDQC4uak88rOblYDVkd+ZcLf/ILNZb9OWJe58JDocjyNLdQCwg/HZpnJ45vL1Pf5+gwzoFZLiFncGlomQQRHIQMNXLDdbAfmSyCEnIYqQeAnCCtxmEMjAnfMVkHru8JXYDGHjTSFjRnBIrCJZaRwyK2g3JG8cBREugltytoYlMmTbDWF3zCAwAcnHJAgujhoZXUiWilxjBknycsgURbJwzRJIQ5xy1q11qyBrskwg0Mghi5fQyaq1BOIM9S2Eo80gh1CcTiZrTrY1EFffID6XCWRsKoe0C8layCHTQAsI6wzSEJhOXdGYrMBZTSAs3QRSjOBVBkih0BjshGDGaUjyJQ5ZSSSrGXSBsGoaAh3qhycmy7lIH0h4KQ3JLOWSo4CTz30b/fpA2CS/DEGbolF5ioS6ZgHEt+UvIaWsjEvqCIihAvtyMFle/KZVkMCT7UMVs7NKIu/aLbQlCSJU4ApFsjrBEgg94ZAEqT6By/tIiGc/hxzg2cJkHYw2xOmSIB8wSSxwmIJAoVwCkrxYfDWAxMIRvCXNcFOQJK90YS8Xiq/tEDiO0i4KAhOlu9spPAJrAjmdirnJoSBnMJ8hIVm5k7WAGELCzskQqQJ3dUPOC8U3upCQDDGe81itBJEqcEF3ti7g+yQrIReHqObyFSUEro5gmBMCUsywWGGysPhaVFFKCKoaAtcYn+uOFiUkearhPLlAOl3afNSNFf9K5+1KJQTmGe7SjXz/PUshrr5B4D7j8+ChGpI5E4sytDbxrhnUCgJPGU6ZAJEqcDNgsp6BRhAsHDgIkStwip8/H/NyNINAPQmRK3D4eSqeff99mGH6C+KolCHka8U4jk3XDIIXMw3BClwmvHvUCwIvKIhcgRsikJegIeTVawqCFVicGqshJf8AgTe9Qd6iAIuvpZDwu/eDlfPxkwnEU0RAhAqM8xkshtDT5qYhsCKRhmAFxgl8tQ+SYgaBbwREqMBYuuyDxJtCkltMIFgusfjqCoHvNAQrMHZsfSHwg4TIT82fQY0hrU2mEMcvhlMBdkHwY93/KAjkm0IgQ/h83hrI/xRA+oeNDvIViCNNKoTEHbr9dztwTAAAAIAwyP6pLbETFgAAAADgFCx9ALRN2cQAAAAASUVORK5CYII=;dashed=0;fillColor=#8CC64F;fontFamily=roboto;fontSource=https%3A%2F%2Ffonts.googleapis.com%2Fcss%3Ffamily%3Droboto;align=center;html=1;fontStyle=1" vertex="1" parent="zuTwkrwnKx_cXMOe-0HA-6">
          <mxGeometry x="470" y="300" width="65" height="65" as="geometry" />
        </mxCell>
        <mxCell id="zuTwkrwnKx_cXMOe-0HA-25" value="Mongoose - DB Manager" style="shape=image;verticalLabelPosition=bottom;verticalAlign=top;imageAspect=0;image=data:image/png,iVBORw0KGgoAAAANSUhEUgAAAmwAAAEsCAYAAAB+Je/UAAAABmJLR0QA/wD/AP+gvaeTAAAACXBIWXMAAAsTAAALEwEAmpwYAAAAB3RJTUUH4gEDFhM04H38kgAAIABJREFUeF7t3c9120jWxuF35sx+NBE0HYHlCExH0HIEliKwvcNOrR12kiMQHYHlCARHYDoCoyMYfBHMt7gFESwREIm/hcLvOUeHdEFzWiORwMt7qwoSAAAAAAAAAAAAAAAAAAAAAAAAAAAAAAAAAAAAAAAAAAAAAAAAAAAAAAAAAAAAAAAAAAAAAAAAAAAAAAAAAAAAAAAAAAAAAAAAAAAAAAAAAAAAAAAAAAAAAAAAAAAAAAAAAAAAAAAAAAAAAAAAAAAAAAAAAAAAAAAAAAAAAAAAAAAAAAAAAAAAAAAAAAAAAAAAAAAAAAAAAAAAAAAAAAAAAAAAAAAAAAAAAAAAAAAAAAAAAAAAAAAAAAAAAAAAAAAAAAAAAAAAAAAAAAAAAAAAAAAAAAAAAAAAAAAAEKh/+AMAgMNSaV35Z/W5JL2WdOaNVZ3r8PFC0tYfrCgk/fLGtm5ckoqk+X8PIAIENgCoSKWV7GutXQhbP31D2HL3JVmI+7/KGMEOmDECG4BWXLA5d19lsFm5L1+1ilStGGWaMEh4/x/eusez6vdEKnOPhDpgJghsAI6WWqD5IKs4ne8f7awMdbmkv2WhIk92FaNepNKFpI9aTjhrayv7m+Syv0f591GyC3wARkJgA/CiVLrULuRMIZOFhV+Stl2rQG4u2rXm0+oMVRnqtrJK3dO/k90cOwA9ILABqOVahvcKM9hkkn7IQkLWJiAQ3AaXadcCz2UV06xyHMCRCGwADnLtz0fNp2241S7EnRTgCG6jy93XD/fYuWoKxI7ABuCZ1ELaTx1eQDAXZYD7fmxVx1UUr2UtYIxvKwtwvzTQHEZgrghsAJ5Jpb9kwSUWhVx4k1Xf8r2jHhfcLmXz9uZSYYxVIQtyW7nW6rEBHIgJgQ3AM6n0X8UdVLay8PbQ1IpzlcYLWXhd7R/FxHLtQtxWFuRq/5bA3BHYAOxx87ke/fGI5ZIeJH1tuuBXtgNZe4cQlky7tupWrFhFJAhsAPZE2A49Ra4XwpsLtB/EPLc5ybWrxmUixGGGCGwA9qTSN1k1aelyNYQ3FijMXq5KiGNeHEJHYAOwJ7V26NofX7hc0hfZnLe8eoDgFpWtKvv7+X9rYEoENgB7FrDgoKtM0ldZeHtqq7GXW5Ry2d+7rMI9q7QCYyGwAdiTSv/zx3BQIWuZfqleyFOrtN2K0BujQva3/iHaqBgZgQ0YSbp/s/Hqc0l6W3leWvsDJygvLP7YL0n/lvQrkTb7hw2BrZWtLLhtpKftQK4lfap+E6K01X4VLt87CvSEwAb0oBLGysfX7rEcC81NYqtBnyGwdVLIQtuXRMpdm/Re7OG2JLl2VbgtVTj0hcAGHMlNLl/JLsL/lgWxcmxuNol05Q9KBLYeZbKFCpmsRXpZOYZlybTfSi32DwMvI7ABHi+Y/SELZiFWybrIEumdPygR2AaQyxYpSNzqCmbrvsoAl+8fBp4jsGHRXDgrA9lb97iECyqBbRq55lmRxbBy7ebBPds6BpAIbFgQNxH8XFY5W1I4O4TABoQrlwU4KnB4QmBDtFz1bC1bALBWfG3NLvJEeuUPSr0Ftq2kG9lcnXPZrZz4/QPt5LIA913MgVssAhuiUQlob93jancUvqTm/Z9Kv9Xtd7dNpDf+oKtwXkj60z0CaGerXXjLvGOI1METNjAHLgCsZQHtQt1CxuI0BLZHddsD7iqp2eOtRHgDelNo1z5l/lvEDp6wgVCl1lYrL/S02Lp5d+jTeWr7hl364yd4dcpFoxLePoq/KdBVLtqnUSKwIWiVKlpZiTnb+wZ08T6xWyvtSW1D3Wt//Fh1lbtjuLb2pWzO26p6DEArW9E+jULrEyswFHfRvtCu1YlhHLzbQWq/82/++LG6BLaq1IL6B3Wr9gHYKdunZYDL944iaL2cWIGuKiGN1YTj2SQH7nbg/ha//fFj9RXYSq7Keilrma72DgLoIpdV2X8cqrYjLL2eWIFTuPloH8SCgak07cX2X7VvPx+cG9cHV3X7KCqvwBAexOKFYBHYMCrmKIWlrhqWdlsp+uIq0a7c6+hatEuBoeSi+haUgydroE+0O4P2JrFJyXs6Ljy4S6TP/uAQXLv0k7hHJzCkQsx9mxyBDYNwF9ILsc9W6A5Ww1zr8dEfP9LBjXOHRHADRrWVhbeHQx/4MAwCG3pVWdl3IS6cc3Bw4YHUeR7bSXux9YXgBowul6u+0TodFoENnTEvbdaa7in6Te2ro58T6c4fHAtz3IBJFNpfuFB4x9EBgQ2tpbuQtt4/gpn5z6ETq/v73vvjRxq9LXpIanMmb8VrFJjCg5j31hsCG07iKhcfZRdzWk5xqJvHdiZri7Y12PYep0qtUngrKsDAVLaSvootQ1r7pz8AHJJKF6lNQv8tmyNEWIvHW39AklzVrcuclA/+wFTc3Jo3mrBNCyxcWe3+nUo/U+mTKwDgSFTYUKsygZu5aXErEuk//qDUuS0qTbT4oIlrk96LLWamkvkDB6zcF+KXyz5QfU1YcdqIwIZn3AWtbHtiGer2YzuTVVXbVlRrV6FOLe221xxOU1ZrT15J6F6D59qFuNfukcAdn1yEt1oENjxx1RQWESxT7Wa3qVWjLv3xEwRXZSu5DyffRDVnTK3Dm8/9/VayR4JcXHLZ6+NLqOePsRHYFo62J5ym7T3War+JrhRwlU16eg/cqlsoRXsP6vn+lS7IlWHurXt+Vv0ezMpWLFggsC2Vm+zJak9UHWyLSlJqbdGVP36CYFaM1nEV5lvxfphSLhfgulbffJXW6rl21bh15VswDw+y6uzGPxA7AtvCMD8NDZraop9kYaatLJHe+YOhce8PFiSEodBuPlPmHeuN+/C6koW3P7QLdQhb+fr4UvdBMzYEtoVwba1r8YkS9ZpWi56p2+IDqWa/t9C4/6/3an+XB/Rv9LZ6pa362j2u974BIdlK+iJrmRb+wVgQ2CLn2jwsJMCx3te1otLuiw9yWdt1FifU1CqKn/xxTKb2tTkW98H3XLt5cavqcUyuUMRVNwJbpFxQuxYnFJzmIZHe+4PSU+votz9+otq2a4jc++jeH8ckcgUW+N17ohrg1tXjmFR0VTcCW2QIauhB7TYcqa0WXfvjJ6pd3DC21Lb0KNQwT8pVVb6pWzsY/Qg+8HtVuLV43UwtmqobgS0SBDX0qPai6C5Gj/74iYK4Mbwkpfub52ayk/rD0zc4qV2AH8XFNwSTt0ZP4apwa+2qcOfV4xjVrKtuBLaZI6hhAIWsynbwhNZTle0msbA0uVT6qf2LaC77+TaVMUJbOArZNjGzrJak9vpZa78Kh3EVsvf3rDblJbDNFEENA6td0dlTlU0KZG82F8R++uOyk/oXWcWxkAhtAZl1aPPRRp1UJpsSsfHGg0NgmxmCGkZSe+cDqbcqW65AJpF7rVHf3qdxQlswCll7NPMPzJ3XRl2L8/0YctndFDahVt0IbDPhPoHdizcuxjNGlW30/bXqHGiNHrKRVd0kQlsogmmvD8UFuGoF7qXXKbp5kH1Ay/wDUyKwBc5dGK/VvZoBnGqMKpvUEAzH1NAaPSST9F323iS0TW8r6XNoF9ghcE0YVS77gLYJoRNAYAuU+0R1L96UmFZtmOqxylZogPlI7j30WyfcOPqF1ijCl8kqbpk3PnsEtUkVCmBrEAJbYNxF5lrddpQH+jJWlS3XAPPZ0ud3ZyjDW+0n5iNbowjb0SE9dAS14GxlwW3jHxgagS0QqbVVPolP9wjP50S68welvSpWHwa5QXxqm95eeMPlJ+Yb/4J+YmsU4ctlf+tfsj0AJ6uQnIKgFrzR95MksAUg3QW1M/8YEIBCzfuy9XnPzd4XIbgPQ4+qr5pt5AU3WqPRy2R/779lAa6QXYAPvsa7ch8Cquf3deX5H9pfTLauPEfYRt2aiMA2odQ+9d+KlZ8IX+1KPBeIfqu/Dxy18+baOvJn3MiqiYVEa3TBcvdVKmTVuarXqn8tnYnXzRIUifSf6kBq0y9W7p+5er6jAoFtAu7T1q34JIV5eeW3D0vuRHXvj3fQ++2H3PvuUfUXWslOrjeJdEdrFECDvW5AWj+fd6sX5s0ei8A2Ivcp/1YsKMA8Nc4xazhhtVFomJWjF7I5bS/JZCfjS9EaBfDc04fKEz6wblSp4p/qn/4AhuHmxPwWYQ3ztXaBp86VWp6IDjiT9OiqXL1xJ9hj5sitZdW1vv7/AIhLVnn+ofK8yaWk3y7gnYwK28BSO/Hfi3lqiEOh5gUIn2RV5L40/vfaSp9v9wEAx3rqNqTtV8qfvMCKCttAUmmVWuvlUYQ1xONMDYEsse0/Mn+8g7LSduYf6MKdKDN/HACO8L3y/LLy/BSXacO59BACW89S6cy1P3+quX0EzNWlqxzX6bM1KrnFAn2HNknv1fMcOQCLkFWef6w8P9WnF86lewhsPXK/+J9iTzXE71tdgHIrSW/88Y56D22uzfpe/YZLAHErysVQqRVlup6Tjp3/RmDrA+1PLNCZGlZFudbogz/e0RChLZfNRSG0AThGVnl+dNhqcOEP1CGwdUT7Ewt2kTbP37hSzb5tHQwR2raSPvvjAHDAL+lpsUEf1/2jz2UEtpZS2+KA9ieW7jat2Xqj0nLs27lsafzB/24bidsfyR8HAE/mHvsIaychsJ0otUUFt2q+NyGwFGeS7usqXgNWr87UYp829/7969D/zrVxN/44AFRs3WOXxQatENhOkFqi/q3+bnQNxOBcL89n2/jjPShD29o/0OBMVhX/mVqVbq9CyHYfABoUiVS4c8bKP9hS5g/UIbAdIbVFBY+yhQUHKwnAwl2kNTeHdz5rmC00ytB26R84xFvBupJ9+PLDG9t9ADikPC/0sdigdPS5hsD2gtSd0HXap3hgia5dFfoZN59tyNWY9y8ExieJfZ9/klxp917/qf4XSwCYv/L8dfA819IPf6DOP/wBmNRO4PciqAGnKNRw03ZXwXrUcJXqjY64ubL7OX764wDQ4EZ2jmlzK6o6/3npfFWiwnaA+6T+W4Q14FRnath2wwW5K3+8R5dq+O+X3M/R9+a+AOLXZ3Xt4diwJhHY9qTSebrbqgNAOy+FtgcNG9rOdcS2H641mnnDANDktT/QQfWepC8isDmuqvZTL5zkARzlXM2hbaNhtvsonckWE1z6BzzcmgrAKdb+QAcP/kCTxQc2qmrAYM41zXYfVfdp8z5xhYbZ3BdAfP5Qf9t5bE5ph0oLD2xU1YDBXaTNoe1Kw4e2SzVssptYW5T5bABecvAc0tJXf+Ali1wl6k7c9+r3lw+g3saFs4NcqLv0x3tWyFaQbvwDkpTaPosX/jgA9CxPpFf+4EsWV2FLba+lRxHWgDFdBlBpO5O1R7/VtEivxP5rAIbXqqK/mApbyr5qQAhCqLRJFsyuXDv0iau+D7lPHIBlKyS9OnX+mrSQwJZam+NenISBEGxlm+sePGGl0q3Gu1/vnaSb6s+SWmCsrQYCQAc3bkuhk0Ud2Fzb417MSwFC81Jou9R4oSmXV20bOTQCWIbW1TUp4jlsqbU+f4qwBoToXM0rNzdqaJ32bCX7WW7LuW2J7RGXVb8JADr60jasSZEGttTKjY/qb78UAP07JrS9UYcT3Ik+yTbbLT/kvReLEAD0o5BNwWgtqpaoW1jwTTUXAADBumrYbuNc42/D8yCrsp2JRQgAums9d60UTYXNzXlhE1xgnu7dvLFnEjffTeO2KC+0m1Ix5C20AMSvc3VNiqDC5uac3GqcrQAADOtBVm0r/APSZIsBctl5hiobgDY6V9ekmQc21yr5JuaqATHJJb13lbVnXDX9VgQoAOEr1GFlaNVsW6KpmyAswhoQm5VsMcKlNy7paTHCO9UEOgAISKeVoVWzq7C5Fih7qwHLsJHd//PZCY/pEAAC11t1TZpZYKMFCixSruYW6YW4kwmA8PQyd600m5YoLVBgsVay/dH+8sYlSYktVHijcVeRAkCTQj2sDK0KvsJGCxRAxVa2irSu2vZJ0rWotgGY1ibp+W4tQQc2WqAAatxIujs0NyS188W97PZ0ADC2QtKbpOc7pQQb2Fi6D+AFubybtldxDgEwkV7nrpWCC2ys/AJwogfZStLcP+DOJ9caf7NdAMuUy6prz6r/XQUV2Fwrg3uBAmijqU16LvsguPYOAUCf3tTNse0qmMCW2on0m2hfAGivkLUj7vwD0tMWILdiXiyA/l0ltnfkIIIIbG5l160/DgAt5bLgtvHGJT3Nb7sWwQ1AP+4S6bM/2KdJAxvz1QAMLJe1Sh9qWqWXIrgB6GaQRQa+yQIb89UAjKiQ9EW2N1LuHSO4AWhr0DZo1SSBjflqACa0kfT10HYgLrh9EIsTADTbqmET7yGMHtjcCfHeHweAkeWyqtuDX3Vzq0o/iukaCEvmHs9FwWMqhaQvY7RAfaMGttSC2qU/DgAT20r6Ki+8uXm2l7LwtirHgQEVstdjLulv9/ha9lq8cI+YxkY2Xy33xkcxSmBzJ71HzW++WvnGKZ//qhyTDrRUDli5r6q3lefrynMA09vK3tvfq21TN5Xjg7hooh9lKPvlnhfl681VeNey19vcrpuxKWSbc08W1EqDBzb3wgv1fqBb7ULZ/1X+nY/9h3GLMFayC8G5pH+7x/LfAKbxIOmHpCyRtu4D6IWY64bjZbLryy9J20PznlJ7Tb2VPa72j2ICW+2mTBT+wSkMGtgCWVywlf2yf8hCWK4JAllXlUBXhri37t+r8nsADK6QXXx/uMdCu4UKK/c9QKZdyM/2D5lK8P9Tdq2c8joJs5X9vb6EmBEGC2wjLy7I3dcPVfr/If7Ch+CqmCvZ4+vKcwDDqga4QuOd8xCWXPuV2GL/sKHVGaRcNn/14JY/IRkksA24uCCT/UL/ds+LQ6VlGFfhXMlCXHmiAAB0l0n6rgOrjKtodQanrKL9koXrfO9owHoNbK7E29edC6q/1IM9f5zOhbi17ASyrh4DANQqtKui1c5rotUZnDJLNFY/56C3wOZepF1WgkbzS50L9zdby/5mBDgA2JfLVdISC2sHuTnG1ZCG6WSyPBFdluglsLm+/L1OC2uF7A3wXZH9UueqEuD+1AK2Lkh6ev1Pyf3Nfmuef6tR7r83llT6nz+GWcpl16avTZ2dSkhjPtq0Mr2wwCMWnS9YLqw96rgLRq4j3ggIg5t7EW14iyGwSVJqoefaHw9cIelVTB/UCGyzluuIa5O73n0Q89GmUmg/oNX+rWLU6YLlLuj3ar6Y5zrijYCwpRHeYzGiwHam+VXZPifSnT84ZwS22cl1xLXJVdIuxdYtYyqD2S/3uJW0avo7LUHrC1bNp/pC9gvNZSs5H5b+C46NO3ldq5+FJZOKJbBJT4H63h8PVJ5Ir/zBuSOwzUKu40PahWh3jqHMDT/c4zaZ0crNMbW+YKX2iX4vBfNLXg5X1fkku8fimXd4FmIKbNLTe3LljwfoKrF78kWFwBasQhbSvjSFNOmpa1S2PNE/wlkHUV2wML45B7cIA9ulwq+yZYn0zh+MAYEtOLns1kKbpGGuZOUcRsuzX4SznkV1wcJ03Emvrz34RhFbYJOk1BYArf3xgLxLIl3JRWALRi5bgbzxxvdUpndcaGYfNgNEOBtBdBcsTMudBO8VdmiQFG1gW8tCW4iira5JBLYA5DotqF3uH8GRCGcTie6ChTC4uSD3CviTa4yBTQq6yvYq5hM7gW0yhSyo3fkHqghqrWWqBLSY38Oh+5c/APQhkR5Se6N/0gznt83clWwBQkg2nOgxgDtZWCv8AyWC2kkyWTjjlpABirLCgLBUJvUGFdxirbBJUmrVzUt/fEJRV9ckKmwj28r28sv8AyWC2osyEc5mJdoLFsITWnCLPLCtFE6VLapbUNUhsI2m8fUU2nkmEJkIZ7MX7QUL4XIn1MlXlMYc2CQpPby59dgKRXYLqjoEtsHlsj38Mm9cEkGtIhPhLErMYcPo3MX7KpW+yoLbufct6Medpr94fVlCWMPgHmRh7eBryX04mfq1PoVMhLPFiLrCgHmY6mQbe4VNmrzKlicR3oKqDhW2wdTedza1D3vfZFMAYrd1X+WdhQhnCxP9BQvz4OZcfdOI1bYlBDZJSqe7ZVWUt6CqQ2AbRO1rKJ3HnT3aqoazbV0bGMtCSxRBSGx+ypuJK0KxutH4F7Zt3YUWOFLtJrgRhrWNCGd4wSIqDJiX1DZ9/aaBW6RLqbBJk1TZor0FVR0qbL2qbae7NuijBj4/jGArm8f74D6wAo2osCE4iZSldrL+pjB37J+jK413y6psaWENvbvxBypuNc+wtpW9L37I3iPF/mGgGYENQXIns3dpeBvAzpILwZnGCcCf/QHgRA/+gPRUfV97wyEqZO+3coFAtncUaIHAhqAltv3HD8U1X2UqNxr+YrdJWL2GjhqqTx/9gQAUstf8D/fI/TYxCAIbgpdIm9SezrUVEgRXZdto2IplUysL6OrCH5hA2dpk7zOMisCGWXChbas4JhtP6UbDBbY7KgvoQyqd+0HItUOnkGk37yzbPwSMh8CG2UikbSq9E6GttUTKU9uE9JN/rKNCVNfQn3M9r1ytvH8PZSvpuwhoCAyBDbNCaOtFWWXr8/fHLajQp7d6vgfbyvt3nzLZFhsZVWKE6p/+ABA61yp5JwJCKy5YffHHO8hVc+sgoKW1PzCAQva6fZXYvoEbwhpCRmDDLBHaOrtTf7+7G6pr6NkqHbai9iDpTWL3Kc39g0CICGyYLRfarvxxvMwFrD72S8uT560roA9r79+59++2HhLpPUENc0Ngw6wl9kmZ0NaCC1q5N3wqfvcYyp/ev3Pv323k4jWLmSKwYfZc8Nh4wzhOlyobq+gwpIt0f2FMH233K9r3mCsCG6KQ2KfmjT+OZq5CmfnjR2IbDwztonzipkB0wQcMzBqBDdFwoY0Qcbo2v7MNFz+MwL8VVZfq2A9/AJgTAhuikkh/iTkqJ3HBK/OGX9Im5AGnOvfucNC1ygbMFoEN0XFz2ghtpznl97VhhR1GVK2ydamw/dsfAOaEwIYoudDWZUL9orgAtvGGD+lrOxDgWBeVPdl+VQ+caO0PAHNCYEO0Etsc9sEfR60bvVzB4BZUmMK9P9DC+cCb8QKDIrAhdlciYBzFVdmabllViFtQYRprN5ct88ZP5S9iAGaDwIaouWrQKfOzlu5O9QH3M9U1TOjWH2jh0h8A5oLAhui5vcaoDB3BBbJDVbbczQsEpnKu7vPQzlJCG2aKwIaluBFbAhzFbY2Se8MsNEAI+mhpXvsDwBwQ2LAIrnL0XrT0jlXdZy1zVUpgamf+QAsrb283YBYIbFgMN6n+nQhtL3Ltz7IiySa5iA1VNswOgQ2LklgIeafnLT8891nSQ9J9ZR4QmnLVKTAbBDYsjgttb/xx7HNBjRW2iBVVNszKP/wBAMDpUul//hiC98pNlQCCR4UNALBUVNkwGwQ2AMBSXXK7KswFgQ0AsGRU2TAL//IHAACYUKHmTa5zSX/7gxVbNWzdw6pnzBWBDQBwisw95qoPTrn7qrPlvrTAaQhsAABfpl0gyyQqU8DUCGwAsGxbWRj7Jat8NbUjAUyEwAYAy1IGtB/cIxaYDwIbMHOpdD7Xqsicf/aZeZD0XVLGRrHAPBHYgPm713xvtTXnnz10W0lfZPeDZYI/MHMENmD+zlPpr0T6yz8QstR+3nN/HJ0UkjaSvlBJA+LCxrlAHD7Oacd297OyYWl/cklXsntjfiasAfGhwgbE4UzWXnznHwjUvT+AVnJJN4lV1QBEjAobEI91Kn3yB0Pjfsa1P46T5JKuEquobbxjACJEYAPicp1atS1ItEI7KyTdSHpDUAOWhZYoEJeyNfrePxCIewUcKAOXyapquTcOYAGosAHxuUilC39wau5nWvvjeFEhW0jwjrAGLBeBDYjTfUitUfezsNDgdFtZ+/POPwBgWQhsQJzOFNZcMVqhp7tLLKzl/gEAy0NgA+L1KQ2gBelaocG1aAN3lUif/UEAy0VgA+I2aWuUVujJCrECFMABBDYgbitNuzfbtSYMjDNTyBYWbP0DAEBgA+J3nU5wz07Xjp0yLM4JYQ1AIwIbsAyjtiVphZ6EsAbgRQQ2YBnOU+kvf3BA15rRzegnRFgDcBQCG7Ac1+7WUIOiFXqSK8IagGMQ2IBlGaNNeesP4KCbRHrwBwHgEAIbsCzrdMDql2u7jr7AYYayZNwWNYCZI7AByzNIa9StRA3p7gqhKiRd+YMA0ITABizPmYZpW47Rbo3BDbebAnAqAhuwTBfullG9oBV6tC03cgfQBoENWK5eblvl2qsf/XEcxP1BAbRCYAOWq6/W6L16CH4LkCVS5g8CwDEIbMCyXbp901pxK07X/jieuZP03h8EgGMR2AC0ao26ViirQpvlsjsZfE5sdSgAtEJgA7BSu+B1qxZBb0HuJL2hDQqgDwQ2AJL0ye2jdhS3wrS3VaaRyUVVDUDPCGwASkfto+bap0d97wJRVQMwCAIbgNK520/tJawKPYyqGoDB/MMfADAvqfQ/f6yjN4m09Qelp1boN3+8i4TzEAC8iAobAN/BvdlcK/TgMQDAsAhsAHxrt7+a71oD3DQeAPAyAhuAQ67dPmuSJLe57qEQBwAYAYENwCFPK0FZFQoA0/uXPwAAztotMngrWqEAMCkCG4AmbOEBAAGgJQqgCWENAAJAYAMAAAgcgQ0AACBwBDYAAIDAEdgAAAACR2ADAAAIHIENAAAgcAQ2AACAwBHYAAAAAkdgAwAACByBDQAAIHAENgAAgMAR2AAAAAJHYAMAAAgcgQ0AACBwBDYAAIDAEdgAAAACR2ADAAAIHIENAAAgcAQ2AACAwBHYAAAAAkdgAwAACByBDQAAIHAENgAAgMAR2AAAAAJHYAMAAAgcgQ0AACBwBDYAUyr8AQDAcwQ2AFN3BcPqAAAAJElEQVQpJL3zBwEAAAAAAAAAAAAAAAAAAAAAAAAAAAAAiMP/AzqhY+XXEngEAAAAAElFTkSuQmCC;dashed=0;fillColor=#8CC64F;fontFamily=roboto;fontSource=https%3A%2F%2Ffonts.googleapis.com%2Fcss%3Ffamily%3Droboto;fontColor=none;align=center;html=1;fontStyle=1" vertex="1" parent="zuTwkrwnKx_cXMOe-0HA-6">
          <mxGeometry x="130" y="380" width="165.08" height="80" as="geometry" />
        </mxCell>
        <mxCell id="zuTwkrwnKx_cXMOe-0HA-20" value="&lt;b&gt;database&lt;/b&gt;" style="shape=image;verticalLabelPosition=bottom;verticalAlign=top;imageAspect=0;aspect=fixed;image=data:image/png,iVBORw0KGgoAAAANSUhEUgAAAeAAAADwCAYAAADYdbe6AAAACXBIWXMAAAsTAAALEwEAmpwYAAAKT2lDQ1BQaG90b3Nob3AgSUNDIHByb2ZpbGUAAHjanVNnVFPpFj333vRCS4iAlEtvUhUIIFJCi4AUkSYqIQkQSoghodkVUcERRUUEG8igiAOOjoCMFVEsDIoK2AfkIaKOg6OIisr74Xuja9a89+bN/rXXPues852zzwfACAyWSDNRNYAMqUIeEeCDx8TG4eQuQIEKJHAAEAizZCFz/SMBAPh+PDwrIsAHvgABeNMLCADATZvAMByH/w/qQplcAYCEAcB0kThLCIAUAEB6jkKmAEBGAYCdmCZTAKAEAGDLY2LjAFAtAGAnf+bTAICd+Jl7AQBblCEVAaCRACATZYhEAGg7AKzPVopFAFgwABRmS8Q5ANgtADBJV2ZIALC3AMDOEAuyAAgMADBRiIUpAAR7AGDIIyN4AISZABRG8lc88SuuEOcqAAB4mbI8uSQ5RYFbCC1xB1dXLh4ozkkXKxQ2YQJhmkAuwnmZGTKBNA/g88wAAKCRFRHgg/P9eM4Ors7ONo62Dl8t6r8G/yJiYuP+5c+rcEAAAOF0ftH+LC+zGoA7BoBt/qIl7gRoXgugdfeLZrIPQLUAoOnaV/Nw+H48PEWhkLnZ2eXk5NhKxEJbYcpXff5nwl/AV/1s+X48/Pf14L7iJIEyXYFHBPjgwsz0TKUcz5IJhGLc5o9H/LcL//wd0yLESWK5WCoU41EScY5EmozzMqUiiUKSKcUl0v9k4t8s+wM+3zUAsGo+AXuRLahdYwP2SycQWHTA4vcAAPK7b8HUKAgDgGiD4c93/+8//UegJQCAZkmScQAAXkQkLlTKsz/HCAAARKCBKrBBG/TBGCzABhzBBdzBC/xgNoRCJMTCQhBCCmSAHHJgKayCQiiGzbAdKmAv1EAdNMBRaIaTcA4uwlW4Dj1wD/phCJ7BKLyBCQRByAgTYSHaiAFiilgjjggXmYX4IcFIBBKLJCDJiBRRIkuRNUgxUopUIFVIHfI9cgI5h1xGupE7yAAygvyGvEcxlIGyUT3UDLVDuag3GoRGogvQZHQxmo8WoJvQcrQaPYw2oefQq2gP2o8+Q8cwwOgYBzPEbDAuxsNCsTgsCZNjy7EirAyrxhqwVqwDu4n1Y8+xdwQSgUXACTYEd0IgYR5BSFhMWE7YSKggHCQ0EdoJNwkDhFHCJyKTqEu0JroR+cQYYjIxh1hILCPWEo8TLxB7iEPENyQSiUMyJ7mQAkmxpFTSEtJG0m5SI+ksqZs0SBojk8naZGuyBzmULCAryIXkneTD5DPkG+Qh8lsKnWJAcaT4U+IoUspqShnlEOU05QZlmDJBVaOaUt2ooVQRNY9aQq2htlKvUYeoEzR1mjnNgxZJS6WtopXTGmgXaPdpr+h0uhHdlR5Ol9BX0svpR+iX6AP0dwwNhhWDx4hnKBmbGAcYZxl3GK+YTKYZ04sZx1QwNzHrmOeZD5lvVVgqtip8FZHKCpVKlSaVGyovVKmqpqreqgtV81XLVI+pXlN9rkZVM1PjqQnUlqtVqp1Q61MbU2epO6iHqmeob1Q/pH5Z/YkGWcNMw09DpFGgsV/jvMYgC2MZs3gsIWsNq4Z1gTXEJrHN2Xx2KruY/R27iz2qqaE5QzNKM1ezUvOUZj8H45hx+Jx0TgnnKKeX836K3hTvKeIpG6Y0TLkxZVxrqpaXllirSKtRq0frvTau7aedpr1Fu1n7gQ5Bx0onXCdHZ4/OBZ3nU9lT3acKpxZNPTr1ri6qa6UbobtEd79up+6Ynr5egJ5Mb6feeb3n+hx9L/1U/W36p/VHDFgGswwkBtsMzhg8xTVxbzwdL8fb8VFDXcNAQ6VhlWGX4YSRudE8o9VGjUYPjGnGXOMk423GbcajJgYmISZLTepN7ppSTbmmKaY7TDtMx83MzaLN1pk1mz0x1zLnm+eb15vft2BaeFostqi2uGVJsuRaplnutrxuhVo5WaVYVVpds0atna0l1rutu6cRp7lOk06rntZnw7Dxtsm2qbcZsOXYBtuutm22fWFnYhdnt8Wuw+6TvZN9un2N/T0HDYfZDqsdWh1+c7RyFDpWOt6azpzuP33F9JbpL2dYzxDP2DPjthPLKcRpnVOb00dnF2e5c4PziIuJS4LLLpc+Lpsbxt3IveRKdPVxXeF60vWdm7Obwu2o26/uNu5p7ofcn8w0nymeWTNz0MPIQ+BR5dE/C5+VMGvfrH5PQ0+BZ7XnIy9jL5FXrdewt6V3qvdh7xc+9j5yn+M+4zw33jLeWV/MN8C3yLfLT8Nvnl+F30N/I/9k/3r/0QCngCUBZwOJgUGBWwL7+Hp8Ib+OPzrbZfay2e1BjKC5QRVBj4KtguXBrSFoyOyQrSH355jOkc5pDoVQfujW0Adh5mGLw34MJ4WHhVeGP45wiFga0TGXNXfR3ENz30T6RJZE3ptnMU85ry1KNSo+qi5qPNo3ujS6P8YuZlnM1VidWElsSxw5LiquNm5svt/87fOH4p3iC+N7F5gvyF1weaHOwvSFpxapLhIsOpZATIhOOJTwQRAqqBaMJfITdyWOCnnCHcJnIi/RNtGI2ENcKh5O8kgqTXqS7JG8NXkkxTOlLOW5hCepkLxMDUzdmzqeFpp2IG0yPTq9MYOSkZBxQqohTZO2Z+pn5mZ2y6xlhbL+xW6Lty8elQfJa7OQrAVZLQq2QqboVFoo1yoHsmdlV2a/zYnKOZarnivN7cyzytuQN5zvn//tEsIS4ZK2pYZLVy0dWOa9rGo5sjxxedsK4xUFK4ZWBqw8uIq2Km3VT6vtV5eufr0mek1rgV7ByoLBtQFr6wtVCuWFfevc1+1dT1gvWd+1YfqGnRs+FYmKrhTbF5cVf9go3HjlG4dvyr+Z3JS0qavEuWTPZtJm6ebeLZ5bDpaql+aXDm4N2dq0Dd9WtO319kXbL5fNKNu7g7ZDuaO/PLi8ZafJzs07P1SkVPRU+lQ27tLdtWHX+G7R7ht7vPY07NXbW7z3/T7JvttVAVVN1WbVZftJ+7P3P66Jqun4lvttXa1ObXHtxwPSA/0HIw6217nU1R3SPVRSj9Yr60cOxx++/p3vdy0NNg1VjZzG4iNwRHnk6fcJ3/ceDTradox7rOEH0x92HWcdL2pCmvKaRptTmvtbYlu6T8w+0dbq3nr8R9sfD5w0PFl5SvNUyWna6YLTk2fyz4ydlZ19fi753GDborZ752PO32oPb++6EHTh0kX/i+c7vDvOXPK4dPKy2+UTV7hXmq86X23qdOo8/pPTT8e7nLuarrlca7nuer21e2b36RueN87d9L158Rb/1tWeOT3dvfN6b/fF9/XfFt1+cif9zsu72Xcn7q28T7xf9EDtQdlD3YfVP1v+3Njv3H9qwHeg89HcR/cGhYPP/pH1jw9DBY+Zj8uGDYbrnjg+OTniP3L96fynQ89kzyaeF/6i/suuFxYvfvjV69fO0ZjRoZfyl5O/bXyl/erA6xmv28bCxh6+yXgzMV70VvvtwXfcdx3vo98PT+R8IH8o/2j5sfVT0Kf7kxmTk/8EA5jz/GMzLdsAAAAgY0hSTQAAeiUAAICDAAD5/wAAgOkAAHUwAADqYAAAOpgAABdvkl/FRgAAaZlJREFUeNrsvXeAJEd5//15qrsnbd7L+XR3yhEQAkkmCWFyxgRjG5ucXtuAIzZgAzYGnG2MMTbwc7YBg8mIjBACLJAQAqFwkk466XLYOKG76nn/6J7ZmdmZ3dm9272g+kDr7nYn9NR017eep54gqorH4/F4PJ7lxfgh8Hg8Ho/HC7DH4/F4PF6APR6Px+PxeAH2eDwej8cLsMfj8Xg8Hi/AHo/H4/F4AfZ4PB6Px+MF2OPxeDweL8Aej8fj8Xi8AHs8Ho/H4wXY4/F4PB4vwB6Px+PxeLwAezwej8fjBdjj8Xg8Ho8XYI/H4/F4vAB7PB6Px+PxAuzxeDwejxdgj8fj8Xg8XoA9Ho/H4/EC7PF4PB6PF2CPx+PxeDxegD0ej8fj8QLs8Xg8Ho/HC7DH4/F4PF6APR6Px+PxeAH2eDwej8cLsMfj8Xg8Hi/AHo/H4/F4AfZ4PB6Pxwuwx+PxeDweL8Aej8fj8XgB9ng8Ho/H4wXY4/F4PB4vwB6Px+PxeLwAezwej8fjBdjj8Xg8Ho8XYI/H4/F4vAB7PB6Px+MF2OPxeDwejxdgj8fj8Xi8AHs8Ho/H4/EC7PF4PB7PKUu4HG/y9i+8tuvvVq/az57yegxjhEGRu/v3smZ6FaXD/Wh/mZUD69gzeQ9GAnKRI6LKRDxAPFnm6P3jrDp3lP2lI2wZW0ecq4EtUilPY4KE1cM11CqHKoPkRPjJintYGQ+xdmKUQ/vHCfOGgRVFAs3h1GLFMnlgmiQ0jA4XsE4RIzgHRiFwJnewdKS4Z3CidN6BTf2KGwRGVWVAjBZRSkYkmq7ZQIS+YhSOONVBYADVoooWDZJTiEBDQNuGQwRxQOygKlABpkCmjTDunDtSie1UMRfFiibAtCplA5MYPWJcMHbP6IEJSZLpbUc2luMgqTjABAoqiMJEOcZOVhle1Y+KI28KJBJTLVumxysMjhSolBLuGNjNxft3kIhjIDdJKUjYXxlC1KC2gDHTVFzIuv6DjObHuePoJkSEmhUEw+q+McZqfZQTy7q+dVTdFFODIeyf5oH+A2yaWEUlqTC6ShlTe8rfSNf+/LeZDPtY6SpIbCibGFTBGIwDK45QwVQDrvzI45g2ZUquxNdf/WVAQCGKYkzVkNt8gMn71yIoKsKj3v+4ju8ZFEJ2fuw27vz47YSFEKS3cw2cIUBxGGomYN2hCSKm2b1uFHMEKBpQcIGw4/6D7Fqzgjhc/HdkbIiIomJAHaAYl55s35vPBITpd92BNQ5xggKiEBghxqHTSlAyuCRg9dvORhAk+6xGTPZ3QQAjkv4ekOxBBmn8XRDufMuNSJiAE8IgYOf+gxgKbB8e4kguR38ygRMwmr6PEyi9YnvHz1b++9tJchEDLz2jp7GY+oe7MRrjMARByN4j4xzSMhevHUXHAuKCogpRIPz0/gO844lPWPB4HxlJiCNFVJqmGGmZbkRBJf1Z22+yP9PzkFnXVP3RiqhSza8nivcjqoADDMalf5ZLFcRZqoX02umb7O9+jbiZ91YVRHTWY1TS824+x7kQBFRxRjAuJgkHMQriyoDiTOvz3/Snnzo9BfgU8wgMAHlgBXABsBEoAkNW3MaBWt/a/JHCILhBgUGF/uz3AYBzSjEXpF+wupbrVpAOF3rbRdbxt4pTwAilfIRz2vwgVZgGphw6vnpiaFwcE4mxB4B7gaNAGdgP3AzsBaqpsFPzX/ny8/VXfwWTiWsv3Pm8T7J7eIDH/uPjF/2eeVGsDSCV9QU/30qBKKkhAta4zjePmsZMKZK+kyDMJd1Tf3wHjoCgx8XDxN9+l/GJlWx6844Fnf/Ot/4Ao6BG6Hml0iKcdyHqUCOIqyuTNF5p4kN3A3QU4uo/3Ya1JnvfwN8AHi/AGSXgDGA7sFWdXpjry22OhEFVVgPr1GlRstWXihK5kHySJwnixo0soi3KqapLc7YKDm2ZPySdA/pQ6VPR1X21HAokxjYsgXQdoDHC3lwu2Kt9+XFF92WCvDM77gGO+Fvi5OV7r/kmAJe9/9G9ryidSZdo4fG7Jo1NRcQFtlV4l5Hkt78HQO49j5zzcbveeiMaKMu129YsxJMfuJMI9bOsxwtwtvRcnwnuNuBJhf7cDmt1pdPaKk3FmFwxRBRcBxEVBCeKDZKmte/JRWJc6sKbfX6RKptyoWwiilCnoPLzVVurquihIDQHM4v5GuDHwH2ZKMf+Njk5hfjyD1/Vfa0mEbkK2Gjp3PvGBunezAmk9lvfSS38917e8vN733bTCT2vqb+9EyJ/rXoe3AK8FjgHeKgVd8E5h7dcAXpmTGJG1vfjrEMVFNewZtXN76CTk/xDz3V+qvX/1I1qzaOsR3T90JrSRWr1aYVK5C4qb3vA4q4DbgF+APwkE2TPScL1v/LVjsL7YKT6m9cDcLivz18YHi/AJwgDbAIeBTx+Ii6dq1bPD4zrT0MHZoTHJu4UktTlwSWN8TEquhF4gcALpuJStZLo7ZkYX59ZybtIg8Q8J5jBQh9TXfZlPR6PF+ClZitwhTp5ElK5vFCSTSJRvpak+19GFhN24mkIszN5i1xoxF2ouBdiyvep6I3AF4BvAj8lDYH0eDwez4NAgEeBRwJPXlUZfmISxGdkqT1pwJSCwXnj9jggos3x24K4zYpsjkzyzLHqwO6Jat83gM8CXwf2+BHzeDye01OAtwLPKA7mnlsaXv1wEoo4sMZmeW/gzd0ll2QAjEBso40OXhyIeyHww0yIPwr8yI+Tx+PxnB4CfC7w4orNP1vEnacK6mYs3Ib4npxadeychIsKBURcPbMxUOWhkdGHgntJJsT/DHzXL4k8Ho/n1BTg84GXqPLiWhKsB8HU5/Olntbbq2JIVl2n6U8kq8oj0lI1RkTSyi3tgpXmCHU9dWl638bzdaYKjDKTc9yIaNYs97jDnx0/x9JL8+b9U0OvCYx7kaj9JPBh4Fv4fWKPx+M5JQR4A/CKQ+W9LwlNuFWXwxRsEioJBDFZCTsDYiQVWU0jqDW22NihVnG19O+2mpBMxSRTCXE5wVYSXM3iEkXVZVX4UmFsVLNqw5gm1TaCMYIEgsmFhPmAsBQQlCKivoiwGGFCwUQBJgwwOcGEBhOl5flSLwGQpVapc2iiyyLIobEAw6GEv3y0cviZIu6/YOCvSAO2PB6PxwvwSXhOAfALUox/PTHJJeocRpawfFtmzUomdBIaBEjKCfFEjI0trppQPlhhes8U5cNlkukEW4mJpxOS6YSkHGOnE2zswCrqFOdcmlPs6oKXmbFAWs+qsxmc1kA1bSZxJsZBuiCQACQwSBQQFgKiUkRUjDB9IVEhJCyG5EcK9K0rUVhZSoU6ZwiLIVEpSoPUbLp40Ox8l2x4BWIbjwCvDg9MPUmR9wMfAMb87efxeLwAnzxs2zSx6i0q7kU2X82LCnI8a6fWXccGTGCQQFCr2NgSj9WYPjBN5VCFypEyk/dNMP3AFPFUjIsTkorFllORFaShkXX3c+O120U9s2ilVU3nMD+15XfNLmc0LRTibGraqsbUMjd0c+EudYoJDWEhJCgEBPmAIB9SWtvHwJYBiitL5IbylFaXyA3nMXlDYAKcujQX2GmrC/sYMZIOlnPJVhXevXZq+CrgD4Dv+FvQ4/F4AT7xPNVi3xOoOc9xHOb+er8CI0gomMhgjMHGFltzjN97lMl7JygfLjO+c4ypPVPE07XUuq3aVDhN2l2lIbChIYqCVst0sSuBHn8nyKyHz1sGM9sDTj+rzUTZMXHPGHuuV4LIEBYiglJIaU0fwzuGKIyW6NvQx+CWYYJ8gMllohk7XOJQm1ULO5bPnRWuNk6emEjyMOAtwAcB629Fj8fjBfjE8Fok+mOUISfHIU5HwYSGoBA03MmTeyeZuGeMo3ccYXrvFJO7JygfnCZtMiQQzLiho/6oRcRPOZos8CY7FCT176tTbNUSl2PKB6Y5dPN+1EF+NE//pkFKq0sMbR9haNsQpTV96XiIYKsWV7PHvHfs0p5iK42J3pckdgeBfRtpdyaPx+PxAryMvJCg9ueikj9m3ZEsYCkfkEzFjN8+xpFbD3HoR4co75ti6uA0GlvQ1CIOi1EWydxqNZ+2STM6M06EENT31tP2niRTCQdv3o9BuP9r95IfLVJcXWL0nFFWXLCK0oZ+iqOF1CqO3TF3fTKBmspE+KbpXG0imAr/sBicmq3avvHary1Xsx2Px+MF+Lix9cDU6FuDXJJnMXm8mrqYTc4gRrA1y8TuCY785BCHbt7P2N1jxBM1XOLS6ODQYEpRWkHiwSC4PQpy3Wo2kSGXy4EDZx3VIxXK+6c4eushdn3xbvo2DLDyolWsvGAl/VuGCIth2vA6dosO5HLiKFYLb6iRfB34hr8lPR6PF+Dj+SYDnd3KibqXOcO54hYovpnwBsUACQzVoxUO33KQ/Tfs5dAtB6lNpH3mJRRMLiAohN2F50RroNOZQK6TRZQldeETQpAP0j3lxDF+11HG7zzCvZ+/i5FzVrDqoWtZ9ZBVFFeV0u+znKBWF+yiNoahUhj9mqq7Hqj529Lj8XgBXlrOFqMvSjvGL0wg6kFC03um2Pf9/ey9fjfjdx3F1lwa+Zs/dVyZQRSkqUCqJ2/daknTnuoeYrWw//v7OHDjfvo29rP20nWsu2Id/ZuGcOqw5YXvE7tAnyAhVwdV+dypdAN99TVfwRcc93g8J60A1zoEuYYiz1HYvhDxNYHB5A2VQ2X2XHs/u79xL1P3T6HWERTDNFjolHEnp67bkbPWUBuvMHHvYUzuFFk4GAj7QtQqk/eMc8euMXZ/4z7WXb6eDY/ZSP+WIVxscYnr/ftQ+rHmBaBfAmJ/a3o8Hi/AS8MKJ/rMXidnMUJYDKlN1tj9zXu570u7mNg1nlqQ+QAJQhZsSZ9o+c1yrdY8ZBNHDh5m7K4Dp44AZ54IMULYH6GqVI9UuPvTO9n7vfvZ8NgtbHrcZgoritiKxbneItut8thiTc8Fbj4VhuDzb/iGt309Hs/JLcBJ0moBJ5aLS4XgoT2Jr6SlFg//9BA7P34Hh245kLqhC8FM4QtOLfFFwMaWvtE+NjxkK9UHBPPNHJQdhKdeOK2IEBTSveLqkSo7P3obB27Yx7Zn72DVw9YiifQUpKXC5oKtPerAcOFmf2t6PJ7TnRMx24eFSJ4LRL1YvkE+4P5v3seN7/0/Dvxg30x+r5yitoeQVt+qJWx9zDkMrhwit7JI8dyRrNjFKYyAidKgt6M7j3DT3/yAnZ+4Y6Yi2DwETjnSl382UPS3psfj8RbwcSAKWibfYTHyhF6eF+QDyvvL3P2pO6gcKpMbyp961m67lZc4apNVNl25gx1PuQh1SmANpYeuJL59AjteQ/Lm1E6NEoj6I+KpmHs+t5OV569k5LwVJNPzb+0qPCa0bAduOZk/4jdf+dWTJ3Ld4/F4Ae76Jq0FFh7m0HXz1nAQMGHAgR/uZ3L3JGF/dGqPtKRlHZNKwubHnMXFL34kYSHAVhMMQrSqSN+lqxn78n2I1Zlc5VN2pQFhMSQer7H3+vsZPW8FYnpyRYc4vcrqySfA73n8/2v8/cqzNvvZw+PxHBPL4oJONNc4nPBoVfrnPbHAEE9WOXTzPlDFBKd2qSFXS93LO552ARf/yhXkBgsk5RhE0opUTik9bAWF7QO4yulRGlmMYALD4Z8eZvrAdM9BZoo+jlOjV7XH4/Gc3BZwE5E6Lmrv+NNx8g6Eqd1THL1zDAnNKRfl3Gz52ooFUc5+7kPY8aQLACGuxgQSIKqICC5Wor4c/Y/ZQHyggpuIkXxwyl9gJmeYun+CsZ1HGgU7ehDuc4sFtwHYdbJ8js+88Mt+tvB4PKeeAEe1xtuMJpHdjNj5BdgIE/eNUxuvEuROUSESsNUECQ1nP+8hnPGk89LuRFZT8RVtPA7AlROiTf0MPWUzY5++F1dOkNwpbPlr6slIKjXGdo6x9hHrEYG5th9UwYiuKuXc5pNFgD/zomv9TOHxeE5NAS7okfpfHz5hcttF5xcVG1uO3n4YF9tGOcRTDRc7jAhnPu9itj7xHGw1gcQhxuBwiAqBpN2YlKwaVtVSOGcEjZXxz9+Lq9pUhE/RoKx6P+SxO48QT9Qw+QBs9w8jAok1w9X97hFSjr3yeTye05ZlMa/iyNSP81H6epm048mYozvHUuv3VBOfLNVIFbY96wI2P34HSSXGxTZtPKSSHanoSmb6afanq1qKF44y8LMbkShAa6duepKqYgohUw9MMr1/Oq0xrfMNn5pYuQjfY8jj8XgL+NioNqKgZUR6EVMDtmypHq2m+7+nmugkDlu1bHnS2Wx+0tkkiUViskAyAVJBVUy6G96ezuIUV7OULlmJxsrENfdBcmoW6QAwxhBP1qhNVOmlbrIAcSEYqhWDAjB9Is/9uld+BRG/DvB4PKeoBZzRj3JhLw8MwoCxnUdJpmPkFCv2p6ok5YS1l29m6zPOQa1DY5daxcqMq5m6IaidLUKraM1SeuhK+h+3HkVS1+2pmJ0kaQOHo7cfQdX1+hm2i7JOFE7Uce0rvuZnCI/Hc2pbwKmdxxoVztT5+v5quiw4cttBXM2lJQ5PIZLphJFzV3PGc8/HRAFJNWns8UrT51PVmYCkhgXcGh2uiSLO0f/I1bjJmKnr94I5dauAHbn1MK7mMIHBzVf1S9mkuE3AzhNxrt961dfxXY48Hs8pL8DOBQCrER2c11gKBFtz1MaTU27+c7WE0poS255/PrnRIslknBafUEEFVB0iJhNdMktYEdFZlr5mlqNzilih7zHrcVMJ5R8ehHxwylVhEpMuTpLphNxgrpenlIzKBn+LejweL8DHOPkCa+ctwKFp39lkKqY2WeVUir5Sq5jQsOkZZ9O/dYhkqopp2TtMVbdu4zocgWbJzXUvdJs3Wuo2WOyQfED/VRuw4zHVu8YwxVOsToUISSWhNl4lP5KHpJdrUzboCVhoXPvqr/iZwePxLDnLswesCqrrgHkrMQSRoTZRpXqocsq4WlXBVi2rrtjMikvWZXvXrSsL1Zk93zTyWVqk1mmr6LZ/cq1aTH9E/+PXE4wW0OopFhktUJuoUT5c6TmwTkU24P3AHo/HC/AxzL2BIIGsqWfczDVJY4TqWJV4vNZTB52TgaQcM7B9mA1P2oYaUKc4Tfd90/QizSzgGVNXs59rVgnLdFls1FOVVBVXtkQb+uh//HqIBLWnjodAjGArCbVD5XRhNe9XqyiyWiWIVAKW67j21b7ilcfjWR6WZw9YLYZg9bwGbRalVDlYToN0TgEL2CWOsBCw/knbyI0USKYSAhHAogSpy1lJ94DrsqKCiqI4XKMslHasENUyAqJoxVI8Z4Rk9xTT39kPJjglbETJvO3lQ2U0cQjZAmWui0FYgdo8UFuOc7z21V/15rbH4zm9LGCg5NTNG1AjSKOpeyrAJ/8AatWx8pEbGTxvJcl0LS2k0SiqMWPNoXX5bfpZvcB1UxB0swtaOq9m0sYNl68lt3UAV7WniJM2PcnqkSoucT16N9waxI0gjqU+vvUqn3Lk8XhOQwtYy+EQkVsnQWYKzrUcUIinajjrMNHJXQDB1RzFjf2sfszGtHhGoogBwWRWr8NhMHV7T7MEUxTVMHNBpwsPM69F2PS+sSPoD+m7ci3x/mm05k7+giVZ1Hc8HaNO5xdgUYzKahKzBrjX36oej8cL8GLm3ulCHwOVYUI7Z2CzZFHCtmLB6UldhENdaq6ufPRG8mtKJOU031dUUlexNle4UlQl86qmdbCCRlR0+joi0ijQ0fH92kW4aonO6Kf4kJVMX7sXAnPSW8KiYMtxWp6yh+pS6mSIajC01Of19d/6IgGBnw08Hs9paAGPJiGqeekhcFcEkkoC7iRWEwFXsfSfNcLwJatJahbTWEA0dnoBRVIlbhJHRTBkIVjZv2dEVuYR3pZfOChduobaXRMke8tI4eRv2mCrLg0ei3ResVYhpyWN/G3q8Xi8AC8WVw7B5OYNqjJpOk8ynTQsw5PS+k0cUghY+dj1BP0hbjpBjclkN7VkJXOnp8FWacmrej0sJ9qwtxo7wSKNWOmez6PmMIMRxUesZvJz96alKk/iyHE1kFQTXMXCPHnMioBoYLBLeo1+7XU+59fj8ZwYlmXjUDUIRCScNwjaCMl0TDxVw5iTd0/TxY6Bs4bpP3sEW0uyDkdNqUWZCDf+16j93Jx+BKhLayNnNvHMeLUf2vkgbdqQP3OI3BmDJ33XpDQVyVKdqPYWhCWKQSKT7ZEvxeHxeDyntQVsIoxYCeYNMhIhKVuS6fjk3c90iokMww9fg+QCtGIxmXzOxDXXbeFGnHPTTzKFbfM7N8S28cMesQ5TCCk+bCW1XROoVSQ4OQdPRLA1m5boFOnsc29ZuQlCsGTX6Jdf90U/A3g8ntPbAhYhB0Q9PA5bTdIgrJPRAJY0+Km0fYjijiFsNWlYtg2Z1RkTti6qrYKa/t3N1MVq+ioW6oROH641S7S1n/yOIYhPYitYUrd5XE7QHtcITrTkRFmKw+PxeE57C1isDqoQzWsAm9RCslV78lXBEsAqEhqGH7aaoC9CywlOIJCZ3r7gUM32g0VxgKnvBTe1ITTNQVgCIs02dOvbdhPezEjMrF5D4ZJRqjvH0n+fhHvBIoJNLLaSYIz05OVQTYaXwh3i9349Hs+DwwLG9Cu95Xm42GFje/KNlKbWb35DH8Wzh9FkxtJ00Ow/zj505oiupxZpq3I2XNVat5oFaXJbt7qvW/eEnabv6Zre1sWWcH2J/FknsRUsaYtFW7X0LqrSh68H7fF4vAAvUrtUC6I9vlfDbXuyCXBqr/adO0IwGKGxo3Ujd8Z9XBdMMqFsCsdqPL5Fq6U1eDnLMJoRWG1/hy4WcWDInT+C5EwaEX1SDqOmOdQ9r3skr4hJY8iP3+HxeDwnmuXJAxYppI0Y5vNB12sln3wmj8ZKOJyjdP5oKiDOgclqXGWe47q7uZ5tpeisSNt6bWiy9KR6OY662C7Mdm0dT7WOaH0fua0DVH46hikFJ2VesC5gr1uEvKoa4Li5Rb7u3c+e05uNwKrsnnEd/sxm28b8HzLjdDNNk4thJjilbhPUgGlgDBg/jue8HRjIXt9m75nMVogWzQroLhU1YAo4ApQf1AKclofqcc7VRQQiLb1ioE4pbh0gWlPAxW4mpVnT/VbNdoHTs3fpdatpzq/RGSu4Xg2rXpYyTSeSLA+4Him9yM/vFJMPyZ01RO2OcTQ5+SKipT6evVvMc91kHo+nlWFn9KPAIzMBizMxav6zLl75TGDrf4bQUqKgWR9c9twJYB9wD3ArcANwE3DbMZzzmcAXgDOAyew8E6C9KbwBCszszuXn0LAJYE92XjcC3wKue3AK8KmOKiZnKF0wiskZmHYNJXEIpq63mgVTZUFXoBiVrBPSTHJS3QEtTtEgfbzovE7mHgQ4tYJzZwwSri1R2zOFBL7Eord+PacqH7jxh/z8o85byFNeGUf6yMAKoGE2xxdnectkxiLSdmujvlhuXfZmQq15YCXI+Sry1Hx1NyrhbSDfBf4d6JrbN9U/Sf/EcKdfvQLstuzvA9IlQ0F09jnOQUnRNQiXiOoLVMxB4KvAXwDfeXAJsFuIZ/XkM3ZUIRzKkdtQyqzf1HHcVOmZuomvKo2qVgI41dZev9pkBjae5Rb32TtchxorMhARbe0n3jM1f67tSY84b/96HsyU+wYW8vDrw2Tst51hi3FyPnCRCiPzzLixoj8F2Q1MqkgoqiXQQVWzSkTXAv0dpyAJAc4GPRvkGZkl+yfADzuq4nRH8fzUdEkPibIF2AZyIbB+jlNOgF3A0axkbQCsANYAuc5PMSvDZPL5wGNVgt8HPvigEWARqo3GPz08+KRTDAf5LX0EI/m0DKWm56mqaROFVj1tWllme8A6s3xrLsiRGc6Ikd5aH/ey8HOpRR2dOYT50WG0nMBJ1ClJszu+5xjo1A11XPZ/v/baL/vZ3HPK8cmvfJ9nPf5hvT78WuDaSiEnV153WxRUayu/+biLXlas1H4vtWBnYa3R3xTlA6KNvdfU4JTQTPedGfVP3r4K7PkqciXIVaDndRHkYdAXWiNPCBy/B/xj+727f80Yq/fN6q/yrewQIFTRAVTeKvD/0TlQ+L9U5JWi6lSgWDYUKrnCoRW19cbZh4E8C3g8MNS6WDAAq0H/ntSd/pET/d0uy8zsVGua1lycf8LNtv1Pml1gydy62wYgSGOvtOFGlpbcXm3+r6uLbL305IzruV66sh7yPatCmHY55hC1xiFpSlKwMk+4qrDQqK4lV18RWdi+tLhKOur1GJBjOTyeU5PPffHbfP6aby90rVsDHgDeAfrvXR63V5RvApVMlBJm9o6rpHuydwOfAX4XoitFeYEoH81+32nKXKHC3xtn3tlJ9PevGZvrnGPgsEnsW1B2dXncT0kDwSpNx1HgJ8C/AM8Vdc9W0W91KfhjgD8m3Xs+/QXYYCYQM68Vow5MYAiikyR6V4BYCYYicuv7svSoLLFIU9dxXXKb/6Sl8EZz/WdFcThtSkdS15bs25sWz6nLiSL5gGj7UFol5CRSYAmFIArmbL3Y8hWoTHMcroavvfarfhb3nPJ8/ovXL/g5xUoMmGu6/NqKZiErvZEAnwOeb5x7iaje0vFOFyVXzf1Ovlr8IzrUgJhDhOtMuED3dD/neU/4a/2TPD9Xk291+XDrAiuvD6yhfpy+FjBmAjTpZYIO8gEm3/sEveTnXrPkNvUTrSlAXE8aalZobVPCVotWW8pptJemnF0du0ejd36rPXGEm0oQnUTuBJV0gZWPev+AxoyLBBzL4cXX82AV4e9dcU5qDIhOdZ8tRBa57fdfwNNV+HQ3EVYxbypNld44ODbE4Nhgy1EpdJ4AiuWYfGIpTcdVnb03p90s7w7syVeDN4Ac6TIdXQlz74+fFgIs6qqijfD3OSxgJcgZgvxJIhpZrY1oNA+h4BoWb7PV2/RvbXJD113LWQGPelejZplGmzskcfwKRKhCogRDOaJN/WmXpJPAEFZ1mJwhKvbu4ahpPFnTmGM5PJ4Howh//2FbadqC6ZYLW1WVqqpQPxbIPcCvgHysm1EVJuE7SPdkZ9Euwv2TVcLE1Y9Ej33eugGkW+rDGtBtx5x9crILsBqxasz8FrBCkI8IC9GJF2ABdQ6JAnKb+mhOz9VZ4fBtrQSbfqRtj2ltT9gcWn8MYtt+ZD+XvEmtYNWTYkGjCkEuIOyLeur3LCoYJTaaFjhZzPGt137dz9aeB5UIixr6pmKa3auBNa6rX0qcE3E0Dl1wvMQh4P9T4RtdLOG8insXUJrrXgdhsr/QcpjOVfNaZo5y0c0SEhVhqg8m+2NE3Ze6vG0f6MiJFOBliYK2mjiDSeYtMqEQlEKiUrSgcoVLoxaABTMcYVYXWkS3Xs25pcUgM6VjsisqywuuP0cagiuGlghqgd6ioJuVrMfPEK4uIKUAraX7ryd6TE0uIOrP09M9bhwhYvF4PB0JkoklnAAXxF4V3ijKNaQpQe08xBn3msDm/2yWCZ6HNF6s5xObZcwdGalks2/Hugc7uwVhOnNiTZPlcUGbKAGJZZ7PqlYJiyFhX3hSFIRW6wiHI0xfgCau0ThBqNdpltYALJ2JcG6u/pw+Lw24UsC6Vld1tkzszbpdwLioQrCqRDBaQBN7wt3QapUgHxL1hWlg83yPd1inJnZqWMzx1dd+zc/QntOaz3zllqWbt3sJ22nlB4q8r4t6h6A/T5qre0z2nChl0cyYaTm6ZkB02/8eF+Vg/fmnrQVsxvOWYqWmkQM3n98RwkI44/I9kaLhwAzmkFKU5tfO/BiTmbdar+us0qiClVbFkpaa0DNVn+t/Dxo/oSkl6biuTW3mhl5dJLl3qrGnfaIQICwESNDDXpMoqImpBn4T1+M5QfRN3drRqqzmXdNs1DIj/VUUm18U5YwOL3dxFBceF4eT/zlrqpXOUmQ0njVpdbZaDeBQgQ4R0oOdJj4n3I1w64kc3+WphKVxFdXpXoRFSN2UmNku3uU11xRCIViZT9du1ZkSk6YhJ26WE6G+/9sQ38zV3On1FUWN9NScQBf5GSQIMKP5rKS6LtDXffwV2ORNego9LDYEnUbc9GLe6mtv+NLxPPNcehNztJP7K2MEGCbNexzPHruQcx/OjiJp7uVE9hpLPseS7s2VSIsr1HM/y6QF9483OWAbcBjY3+H3RWA1aY5mKTuXu0jzWWtLcD4F0iYAg9m5TWfH1AK/v+Mx9pXsfRc09p/5yi087fEXLN1UKHYhFuJhZ/jPwPK7s9fUJqjlJh8njv+mzScsneelXJeJT+aaHVUE1zQtB5aLurzIR3VprqmTS4B1MB5H2S/zWb/ZpByVohPfUN6C5AzhukLDOJW2r7tDVcmZPV2arOLM5m3UisbgmLtB8jF7ROpGtVXC9SXMUA43kSC5Ezek2vBumJ4erMJhcu7gCTrdIrAVuMCpe0oxF57zqHO2vgC4181sBUSkRe+fLKqPH6xNnVUV8og9LPBdhf8EPsXcaROXAk8T0ccnSXg+gRSru9dOidHbUL4A/DfHVui+m9hfDFwZWnfZ/pHS2SJ9a4OKFiiRAEdVuYu0Zu6XgO9mC4Jjeb/NwIXA1SLyfET+EHhP0FfGTfbVFzBPBJ4jwmMRVtl6JbmSHET1s8A/kVZ6Oh7OmIuAn4mt/Zmtq0YuQVlf01rUZ6sVRfaC/iR7r+tICzx0E+MrskXCzQsYi0uAK611l60Z7jt7Lf1rahUtUNAkW3TtzMb+GuD/jnHsj9u9WyeKA6J4zhrzH63l7G921hd3qRpZB9zfYr/ajqEeOZ3HYBCV+ZKYA1Ge2cHh9jXjgo+c6HFdHhe00zGQ+7UX/RUlHIwwgWFelVpiA9jkDMFAjua92lSIBURxahCpZ/pqoy0hCK7ReVZmCnKIog7UKAFNEdGSCY522Ao+DlHSZjDdx3YTs905yzmggpAbzKcu6B72gEVkH7pwAf7a6xaV97smE4ntwHkIFwpcrMgZ2dewzyU2XTukC4jHCe5VIvK01JKRme9O2JAKiTwH+DDwm6SRos1cBrxS4DlpJObMFy5CAeUKRa8AfhF4M/Cx4/AtDADPE+SFFnkMkK9fvzPR8wD0i7AxcProOzesepMoXwTeR1qAoRe2ZYuXrcD5IlwAXCjq1tXfQwOMxkn99n6aiv6qqDyhy+W5EpGXGKPPBN4C/O0xjMETRPTFqDwRWCvQFhAoRYQRQc5V4bmatrO7FvgmcAfpvx0wCjxMTfCaIHbvbhfgDrftIPA8UfcCleCxAjlaUhebxh42xlYfc86G1b+ROL5QTcf+8yfSCgbYdF++V9m4/b5N9kfAQ2YLuZ4DuVkC3GW/WecW3zlU16ZpnS7Ql6rwyLaT+IkafY3okns4Tg4BBhyq++d1f2YKVhguYAJBT2j1QEUCA1EmoG370TPWrLSuE7IbKnWpzERMSyNUqzVuWpuzf+V4mb9NL6KKBCC54IQGttULkOSGC0hocJWevtwDImY5bpK/RPQqQVeArJ65L7T5bj8qgbsPDUZTEdBfEmW0hw/+K9nrvS6zZPqA31bkZeicBefJGmSfed/q4Y9IzSrw8WP4jFcp8vbMYqtfafeKcIMqh0FGgQtAz2qZyJwLgKfkrX2Ug78B3j6HRZ8Dfl/gBSgrFRnVjhezYLS6yxKEwJ+Ica/SLsX+21byw5XDQ39JhAXev8DPvwJ4G7hfQBhJs+D0O4h8LkEOGBgUeASqT8nc0nVGUJ4h6DMQmRZlEhGXLma0D8CItrjSxRiSWNvG3rxT4PKmm78x9gorULlQRHc0TwWJdQHw1IKtPsrBXwF/RO9FKI47+1f3HI5RUeG7oh0EGCmJJptJ2xguaioxjjhd8M47n/2Scby7fj+ndo5+XdN78TZOApbHBZ1W3z/YwwMBIT9SwISGpGpP4B4wSClA8sEs8XU4DIbWDr5t4po9p9kN3RiNpsIbIk15w7O3lBcuuLPmf0WiADOch3snT+zVFgiF0QImANvLYkDd2GL2aEK74GumoOh25shTBEnAPEGVPxDc5dkPDwO7RKSqykbQtZ3uKRV+EeEGlGts3r1P4KrsV5Z036+ciVep0/ND5/pcRN3KumMRI/9ya4P3Zu5PBMZVeRfwEYQxIHE2CAc2PtBfPTx0eVItvAH0sW338IAIbxZ0SOGNdP5eAuAs4CwnkgYqdrx/FSU8R4z5eDwZPUPSFNV6s3eXjUHHzRIJXBBR+6PMLf6DHj//OjH6r6qNcVdJxezPaN1nLxqTPFyS4M+skUs7vE6pwzUyVk6i77U8KNfiTn2ltcG7JRt7RcYQ3gX6EUljBRK1QTSwcU9f+cjw5a6cfxOij24b+0ER3iLosMKbgBMSmFjNW/LVnlyS1jhu6+TxTLfn7IbOl07PmvUI4E5m9pEr2b3UR7qVcQ5wtaCPQxvX0S5U/xThH9PHK0loCROoFEKe8akbTsiUuDwWcGr57gO18460VaKBHNFQnmTf1InVi6EIigHOpkUdVDLXtMjMwqIlyGrGnnUKRhRD0x5wk0u69TkLMXoXaMVaRQuGYEWeExoCrRAWI/LD+Z77IiiyR9JrZql5tdH4HSrR8xR+mXSPrv1kzgP5ogg2QK5x6H+K2K+EEt8fa9EmucJoWJ1+ooi8SWFW65pA5Z1OeEfmijysyjdF9BMGc0MCY+BKRuXhCL+scHV7bUBR2a6qr6jmgt/q7GPqOqgvEzHv00zQVBkvuOiXKyb+RNvj4mwh8CngGkHfocgb2u9XRV4H3C/ou0JnwAlx2HjvsqAvFfjn/krteeV87onaua2cUzVvTYsguiMo14nwRYfcLEbHxel6J/Jo0OeISoeC+TJSC8NfHRvI//KscZ69LCiIk/chDfFFRT6C6ttltpCVgW+ec+++X/jhjg2fDBN7TievDOnefwQcEpU/Bm7vIr6vsmL+Jnssom6sGpR+KafVT3UY++ls7L+Ujf2vdxj7/y913eq7Qzd7pf6FL/2YJz3h/CUW4Z5Tk+7vZk2oyOBC3MntfhAVXgX6qhmDRmyWpjKHnuldKsG9KCsFu/tkqc67PM0YVDGq+0gj/Ob0uNnEkuvLUVhRPLGpwE6RwRymEIC1TWUltUueb1OtK9Us0jfrhqTNj9HsZ1lecD2HTXppu6AtMtzTkRkh0hemXYhO0KCqU6L+iPxIAWddr1/BXqvCQo9Fcj/wV6p6Fcg/dLo6FX7q0F8mDRb6MHAvM+3WDgP/Eap7Dmq+12H9MaDpCv1zquY5wLOBfyYN8Lk/s2z/3al5amjc29tXWgLUiK8G1i3gMz1WMH/esCYF1OqfAJ+Yz4WYC4PfyofBX0uH7ugi/F5mhQAQJS3TyDTpXvFLI02eaoz7n27zjqBfBp4LPJ10X/ebwE3Z83/Hhu7JkgaitXmiHZOl/KNJ95hbBdiZlkMC+UWFZzZ9E0dQ/dA8VuRtJpA/6+LufTsqL1R4iaBPAD7QRXyvMsa8ty6+6bnJH2UiOxflOAx+sxYGf6OdOtMLbwEefqKmRVHt9TjSdS4Q+lUyg0Y6l0BYqK00vzEpjwP3v+C+Ttqv+OwHjQAnVkis7Jf5BJisWEMpICqd4HKUIkjBNHJ625sGNutYU5HJDo2NtKUcZSPmiqYa0tLd1l1gZ8LOT3akPYEDOXFjqkpYCMn1R6jt6SRqBtljEBZ6/Mz7H38sZ3pEVf+c9jQJOAj8AvCv8zz/XueC36dDCpHAF4Gfg84l+5qsoT9Q7dCrVPV8LQ5dpMUhmg/rOlolQy5yfwk62PT8O0D+elpj3Px+Bf3hrn1vna7VvmZmx270icgfNM8fbSJc56YoSP5QVQ51mMi/JqIvAOaqlrITkV8U9Iezh0LXFZLgskISUD9ylVnnsEJVf1mkeZ6Tn4jyg3Q9PTvOpGZy/HDHepx1n1CR2zvcVgGiXyTdj+9m+Q6bvPwVqgNN3/1PQd/XF08TJfM3hrtw1763FqvxN7Xz2L/tRLmznAl7PWy3yUYU115EY2FzifwY4cMq8pH04N9APwF8Q4W7mNvHth3kt0XlU8CvnGgBXhYX9MjaKsChqYlwojYdrDOBzinAYSEkLAWcMLXIykVKLpjp29usawqmUShkxsUsLdqnjdAraShhc2BW04OlTdyP4by7/dxEAqFA7QRZwFkd6KAYzWuEq4A4yqvHq3uXd88haczUasOWHXmF3RLG35fM5JUkmvX0etJiwVS/kiDfc8jPtk08U06YRtw8C1YDaZDRM6Ep0MsEOTN55ExSIZ85bVPtcB+FLwG5uM2F+Sl6WAQ3MVmtunf05+VKVPNtLo0rkkLpSprTgpKZev/lfDY+cWBFdIz28oTCZzKvwXwcVGP+HKf/r921HKpsb1m5JLMurPOIeETbfbGH3vJ7D0VOfhSLu7A5DkXSVCojTZN8sVhpeQsXB78CckHbguF/WVhe8UQ+tu+YKuQeGcwe+59JCn2XA99e7vs4CaOeTZgornYT4GPZW4wF/YAif9/kHDKZlhVE6Y/iaF0SxVc65YUis7eDMs4KLO8HNgDvPK0FOE5XpgddTe4W0xpl2ckNLSr0bxpAQsMJQySLgK4HWdX/Kw27dkYtZmZprad1IA2hnrGK64Uw0gAVlSyMS6WtaeEiRHauJ6iDQBAjJ8ytLyj9mwcJIoObxwJOXfI8MN4XPrDoN4zihY5S8+AG2A6+t9SVWwPQMEa69xB1qlynwhOa93KdsKnlNToYMWZmXr+NNMjo6tZXjje1P69DWnUEvHjWuBqum5UHPv/18PVMZK9ue9qgGvOUoDJxbauFJLRZbQbt4GkTKmkQ4kwaXsvrDK1LI4HTf14XHL5/HGMGZ54ulIO4ZX/Z5GaN51lo2z6qkWonN2CUBe6FrWujuzrMC1HTggZmN/LLIfx8+7gK5rrmy8Wk5fTmG/uvgF7HTNBefeyHnDFPpjoxS4A/9dWbecZVFy3ZfRzVet4DlnqQaTs20Fl5zcECIj2cYVo6byFMknqq7gGuD9S+X5Xnqwn+ENjU4fF5Fd5OugX04dNWgOsrOlRuFuGJ8z3QxpbRs1cQFkJcfIJa6QmpxUhzybUZ8ZVZ6UTSoXKmok4aE2TdGq7XvpJ6OcvjLbidfhQJBAY4Ub0NhNFzV2BCg0t6ag29sxyYRVvAkhzbRaOdl2QtL6qBA5curMJamVqrEu6UVGjzTZdU1H6JuO71VscV7p+dFi4D1Ovu1X+WzAoYfnjaZq31tqpac0+nN8o3WeS1ShrkW47hrPVp2d7Y8p9G2hYCYjDVqYdkc0jSKme9eEQ6ra7T87B9K5BW62kK4QHSALYmQ1CGWp49O7xz9SwhdFrUDgFMcdDRK3FIVFo9IaqT7ZfHdLnlW7qsGJkz2vxcsZVwV0fPVJOO2EoIYgkS+OmG0Uyo7X+Auap97KU69RCdNfbLcRf3fF8NdnuosTxwjKcRaG91iqeAD6P6PUQ+RJp7P+sjhYl9R7bQvPu0FOCJsfr1644Ggenh5lSiwRxhKaR6pJoGDy2rvzSzxANpkd6ZYhuCy8QzreUsM3u5mUVcv0BEZpozSJaW5HAYCWaS8DMjdW4TWBd7x2QudZN2YToR2utAckJuKNcxp7rzgsGMB6GUFz1RHFuiRkxIrZf7I05zqjr96gjS1smpS8C76VJyVZSp9vgASd2RQbMAu9lbOhcZJyOt9xTjfTbqWt6wJhZby1Na2dErfG3l0NA0bSk4iqxTYzYAu47P5G4gSTATs7aMEyQYbx86US20jGOHcr9uVtVCWUNa5azl2upijJr2ppkC97Q399x3tCW97+Iz146O1Jr2eUV0YlryXcY+T8mWGT+6PT2r2VwXlCcqtOYmI7BBMOuA+5Z1auy5OZms7fx8rfRNzz7ncvEYJur5+bFo/Msq5rMQnDHb+tYNn3rGZb9yHrz1tBTgo9ON2XDPqqGCc07NfONqcgHF0SKVg2UkDE5sQFaH71lSRyOY2VOn03TJLEKTG7r1RbTeGSEbiu41SvS4nL4aYb5ukEuFTSyFFUWi/lxv94xTtC98QKp28ea6OaYPmrCAXMsu5fIq0nPCVdfXKHf4wmb9wIazfrQ5qErQLN4iaDRH+PnAhbfPdXr7KgdHbkfcJW0/HyEtRrKr9cY4BjqXoLWglQ4+iZYH29ljeHhWYX5hk5HaWcAPWxcoQadgoNW0RaBF2JtarN/Esn64RT22JLZ1flMVOzJHOl159Zz1WPbK9PgdKnLhrLFHVyyvAPf85RpwZ9BxUSl3VAocx9iOnu/zW2v5Ne/NV/b+nXZo/JCv1p7N6SrAQ30NF9n3VfV+Ovvjm1xLStQXMXDGEAd/fACTD0+IcszEL6dWbr1oRiP+KrNunZCV5cjsguxiracj1Tsj1UttCpLVOk5TkVLnZu/ZwAsdiZmXlmV354sRXM3Sv66P0upSTylIIlSM5buEJ6gOab1ewLFNTLWF5Xxpl9eYn2h2cYShDlWCpKbdi7FX79o811vUEHc3s/Ojw+Y90SWeTjs27Gw5ydqscdhZCJP219yIuCus5n5oSNe/qVGnEKT2ritk7t+pI+21HW8W+FHzD3L5wqyxd0nrtpmC9NnueyLxkTk9slUVuYs0+Ktl7BVZzi1EJvt7LuSTG5jov7hzIQ650QWzXdCyRFUPy30tBu8XSGMrOqUgbTgRE82yfIHRjAv5Puf0ARHZNO8SKjT0bx7ARJmL70TEY7lWn+1M+8C07u9cxlx9n9hlBeWlyfuox9BmURf74AX2Ej5uE6pLXfX9mwYIiiGu2oNRa8zRoOzuOSYFleW7YEznPIqqau8WsOv83UiHFKDZP+hgXOmszy9FW3JdHX1anbNLR4zo/k4pwcd9LLsMD1CZ/+qdNdx36qwJV426/EsQ/TiduzHVOQ/Vi+uuKWeERPinnG213pLZKiPB7M9UGstV+7r7W3SexY/s73DjL/vNPHJkgKPDPYnwiAoP7XA5O2tq1xrNHfd9axVp8WA4MRAY8pXdzQ+7RyX6MehJkQO8bALclGs3YcTcr71cOwp9a/oISxHJdEyQX0Y3dD32yrqmJLWsFJZ0a5OoLT2AZ+ryS+N3Ks1tjh1KMPNaXXzQixbc9l9lhUCWXYCtYgJD34YBjEhPJShV9GDskj3HuOo7pmeTaK5XfdHOOyoL8UAv4Cue7VuXaNb7WJJ2edQCCWtIC390WPPofMpW1k7ioFprd1/0uuTo1czN3j+e72YYnB1fstsqn4rF/WZbWbFHiOhbUHlTJy+DTBxCS32vVWFjfXIfKFc/PjBd+Zf2xx5YNWsKte0bJwolYll5DI64SodLMZZlbKXXNxVQyyml6T7CpIDKnCWpH+WMdvi8utM485XOcWPH7khRmTenWMHsZvbNcXoLcMtaT/XHmrYcm/v2dEpxdYnCcJ6J8SqSD9HlXPQpuJptpB/N3AupkznIzBuTpVKo1jsk0eiIJPXpUmbqRTtt/DoVxeY/m+tCH0+fnslW2W6ZFVjAWUdYjOjfMJDeHfOdQuqrvy0M5JgE2B7b3BRArveEx87+M12KBY+IlmmbwQ5NzdoePbKq2IdtqzIhhrPoVvhiced6WLW1y1Ov+ivYoLMsm7mujDmpSkJeW6Y0l9fg72piny3IjlYNltcDK4G/AJorl20CXmuq0y9XSTeWqkHus6XJ6V/DMKu609GJWam9h4f7+rBtpUE1tbq+tVi/VocgvSOCHupmDXZ+k8V9yR2CxglsH7VcmSiutD02hwov6fgZlM+qLG2ksQrEkUO6l9c6Yc0sTpgAT1Zb5oubBgphDcjNdTlo4sgPFxg5ewXjd4/hnOvWtHlpLGCrUMv2Z2c5m1O71bRYvjOPkaYCHcwq0TGzH5xO3MFMW8Kl1MfEpZ9pORd+Cq7mGDx3kL4N/di4N4swSfTGKDjWXSE5Dme/YA9P65Jejv/Giara9vKQU5Oz4sV2r+mTxNrW+1sdj4yq5gOdXrdWmHPSMgqFWbefyh5UHpjXsO3wsk6CUpcPeLyH7B6j8mqEf2F2Gc8XiuOxpG7qe4F+deZiArZlC+GqirzPiXkHHSqb3eAEpmdZc7tH+8XatjrOAleWk/CfOp1gIUyYo/25IORnDYvKA05lb2fB7DiGgXRtbj9HCKgseHX2aJXWRh4ZD4jyN6Kz111x1Dk6NEwWPuGLgooj6B5rErnOgz122grw4GDL/tIPsOxzids0XypKkA/o29BPS/TTsmmHomXbLcWkdYZWWtzLzafqEEybe7q5b/BMNa2lXFAIGiuaLHN/x6wGdnFtidxAjqTcS/6vahTKtxO7+DG57hVfwhyb9qkNFjK8HS/MvB6PKred5pi22Xjj6KztxZ8k1s6uPgWPJc2lHe/4oburQGRwq1rLryp5gh9W24taSsc5Jux1eXSsd0IHKxjgK4g+U5y8S4UraU3pWYuwFiTt752ewQTCdUbce5yar3c7rbWjHTso/jhOx360zSp9NGkt8I5VoGz3mIWcUbe6fW4qENxc6VJQtEtRi5Lr/BY5lbZKW/UvPTbE0YK+kcCJ+x2QTourd9OpsMkc2uSMK3RfNHQW38aCMgoJXDxrUaki67u85g84ASxPHvD+lo37g2Eu2FfsL2xyTucWQOsY3DpIfqRAPFUjyC1fVKwg2CM1dDpGCkHD6acd3EHSMn1Io1xlWrmhKWirqYdw/TM6VQJk6TS4/naxm3MxsSRv7ZSoGDK8Y7S+GulFf8eCkJ3H8r722AOwCrTHAykqtvO31CW2WBaiJsei1HE0KxL35sgmD6T9jVveZFNSsE9TG/x705Q5c1U7y5F8xxbHuZHakR3tji0nXBO1jXUyu9BLRKfWgsfL0u3wMn3n39ny76kfbwX4v6AqT7IFfSqqb8wEEdLuRgeAilF3PyI/EKNfdCrXd3q7B0ZHMCi2ZilKx/nopgS3R9sEWNAtxVzyVJMk/91y7QRhmqo4x9iPVg9va3MrjzvhmlyH6/zqJ5zXrdSOiHarzTz76uufjKgUkh6uvTzg0spe8HqEJ3Swov9HNP93nRYAUTzRbcEgcRR1StsIRKU4+z1cL3fROlHO6rJo+Y/TVoBN64U6HZjgMwiXzvkkBy5RBs4YYmDzAId+dACWUYAxgh6JcdOWoBSh2WVd10+XlZOsB2Wl/892elss3Rm7eKYGVvZIFcQc2872vPNYdi62nKBWkWj5ooNdYimt6WP07FHUZm52mfuz5AvR58S4+49x9XSs5GYLsITiOs+4XRpszhbxeRZ8nYyQeZ8XGCJriYOWk5iwJvhC5OIL28pWBoq8BvgkXeoSj9SOIChl0zLHrYPWiUuQ7yaBXtvpvu2wEJFuzs2ZiSi9kOOFeC6UMBv9OUPrc4NTTB/uR4uaBE5uRNxRly56r8HwTpS7RXW8m2egmFQ4vDJPORgmtEnTpB1gZ6vHeEBwTYw9X9rnWjWvAT5NWxGQ9rGvSsuCaj3SPvbmuzWj13UWU9u4KLV1F6fU5cYomOZa06rYYFGy8GQV3txBU25Q0deLdq7YZdyqdOEWTuJMS9yG6XJnGRXXsqDLV6Ga7+YuMllwlgPk0c5wbodg/m/lq+4LJ0KAT0hyz907D3+rF+Fw1hHmIwa3DB0f/9RCxa1q0aptKeow999m/j07qzcT6abqV8d0br1mFRnQxOKO1JY/ccFB3/p+8iP5NP93HmE0+YDJn+z/DsdYLzPJLfwAg2rjKHS4HnM2NDkbGmxomEqUXZOT7JqcxGUtJmm0mVRUtdjL/TXTsEo7laWcMzeo2fWdj2stR5TEH1Kk077W5YK+dCpXhHx3l0TBVQgr04RxlaIrP53WOk0JaUu3lklVrE3Lq2rmFkiPsPPnkEI93brZujPUGse8tq4QiiEQk9bDNjDXXmoEvNaJfsVhniGgNnBvUvRaYDcwHqrDVhxO0/NKA8Lmvmir6mYdNbUflI5i7h4F7leSwTW4fIh2Ebq8lokqZXK1KkVXeYbSosixdBh7gKdedc4sL6Jx1I9uKWijom6TAlN9Zyz2lnuqCh8CVs8WX36etAHG7M9ZLcxakjlj6kfU2ZUtgNsomn62BdSQHlHh10Rpk2o9pKK/R1pH+vS0gP/lt65p/9GuC/75uTtr1Xi7zuWGThQpCCPnjnLf13NobJFgmdYMhnTfdMrO7d1tmjO1pVlDa+EpafkzjaAOcKCmW9TiIj12beX6jKBVxR2qLG/gvabW2fA5KwiK4bz7v6rQP5Abv+Zzt/+Uz92++Av69sU3WhHjkNRP1jFA0DmTZEvw7msEbdiyRaStIpJgG0+sR+J1LDqtM9dE2++NMYlFMG2RX84EmNYtwZ+qmA+Iut+a5cIL7FuBHzN3K8A6K1XkVc3nYZ2+LzDy5XbxbX0XAzbO/AMm180AFunuATIi9VByoVOhRlGQNNxYXdDt+hbgssDIH4nqY5rmPAlULlf4iTP1b3bhBAh29ie4Ne0prb/R/nAnwR8At5D2Pp6P1Vbklc0/sE7/NjTy1fnEt/GGSR9qHElYWdllmyt0Jvg5VL+wCBGKgFeL8kfAQOv9LNeI8GrQu3sR38bnCwaJ4qMA/SrBYKeJRTT4GXBrgH09nmdBhfcCl7fd0VWV3Jsh+SYniGUR4Me/dFZO9t1JLfmuOt0+nxVsawlDZw5TXFFkcvcEwXJ5oY2glYTkvmnCswdSayNTQdfS5aheC7oeK6ZZJJ40/o6kXYi0ka6U1v91aS5SFqTVdT7uagD0ZNGqoNahleVtwqDOEZQCVpy3YqYnscxlzYGtuR+ZfHQTJxArijGc3T62ak1/aeXhIbXhVHVscO7LVhwKm2mrVCSwSkRLqjIxvwMoxrn8xlkpTo71mM5uV2cCxqOWefA9w/HRxyjyiNaXMKv67NSHCXkd8Lk5rqShAPdXUG/7p4RiPnP9nfe9rf2BV5y1cfaCpTSCmTq6HukgnkbXO1ECN9+yUBExoVNdK7M9LGuMmNVTQemBQpNX9+hPtqYNZ1O2o/IRCdw5He6Nvxb04Sp8g3QfeBKYyNzzMVAhTVup/7urCA+0xzEp7x4zlccKbVttJlgVTB36iKZj//k5PviQGv5ahDPQ1I8fSfDJb9x579s6mqBdBLhxiujjut2ACs9HZII0UOq+7HPPuSgDHgrxb4ia9j3fCeD9huAdip1ciPg2TPzcCqLagUdC0N/lIQ8B+U3SNoJH5xJe4CLgLSBPa71XzCHjSr8LtQ+eyPkmPFHzXBLb68XIi+bz8bjEEQ0UGD1nBRP3ji/fGUpaRCLZW0bjLB3JzQRWaRbd3GznplvCMuMiFprKU7bWplOpV8hagOAuxg1vSFMlKnb5osgFXOwYOWuUvnV92Fpv4l+Zqt2cTYSLWzP96OixnHWRNAf0Iarya7MiqIyus7X8O01g/5609vH+Dt9GEVgPnCfwCx3qt20D/hL4f6QRobs7nEcJ2AE8TUQfP1sz3LME817gf7PX2NPsjhyMJ5pF+BCOV2D4n+w1m9lCwn+j/CPCR1OrrZHTuwK4KMjLb4rKk+vJ6YkJPxnWgtfSlrLRQXxXA5uBHQi/1fESUZ6JcDNwPWkLuf207ksXgI2k+8/PEOTcWcMt8nAHfwv8G2kLunvr109TcZQJQcvdJ2h5hXHyCgzE4EyBMsoUwng2HoeAvdl3dQdpytIN7d/9hFTbRfigWn05gXxcYHvbLXwGCR8FPgh8vG3sVwIXm4L8hipPqotvzQQf79fiazOBa+Edr/3ZjjqXjd9GleTngJ+d5/p/WWlq59NUzJeBG0k7A42RFvuQ7PtYC5xng8rP2ECvlNk5298E/gz4VLc3mUN8B7Lrbh1wAZg3AHO0aJA3AReCfjm7D+rnqtk9dAbIoxB9Fk1NREQtKvJtZ/reYpx+lROM6DKUR3r7N1/e6cePkNB8UtG187kyg1LE0Z8c4vvv+W5aX9ksj5Jo1RGuLdD3C5uRoRzU0lzk+v8QIcikWIRG3XYj9X+nyTCCICKY7LkGwZjsb9nP9+0/ytR0FXOcc52lEFC75SiVLz8w7ybZ8SQpJ5z/sgvZ/MQziCfjXsS/Foi8HPiXxbzfl1//5WM53aeGsbwe2ApyTrdVjjpBRPaJcXclzt24Z2Li14F4/dAQwM8a5Q3ZpHcu3UKzUsaBOxSuQ3kzMJU5Yi83Ir+brtplyzyrrYlMEL6nmD9odsc1W8HD1aNI6M53at6HymO6vNZR4EeoHszC9FcJPFTTtBlAxkSTv5uMBt49VEnGrr1r51zie4EifwpchLp1zB+RvgfYb5R/Af6sngqlJG9Eg5eS1ugdnnu9pwAPgHxX4NczIcbOXHSvEPTvOcaYl6x96F4V+aatuXf1mdxN1TbfdbMIH9UyRHpBoPytquk29keAW1A9kOUprk6ty7poyJiR5G/Hg/73rLNm/JrbbutFfAfBfBA4T9EtAgMLXX07o4hKWZQqYJzRoqhEnauRuq+Kyn87I/8lqkfTsQpRsanXTxTjCnOJ76ZabuwvnWGHcW59uu3RY1vL7BREqTQJcB9K2FYJDnHJj6vFdR8M44l/dSY8FCaKSg1I6JtSXvX3nzo9LeAugvlDh7tBME+bc6IR0NhS2tjPwJYBjtx+hLAYLn1AkaRTqD1cwx6oEY7kW770uoXkmqottJfcqOcH11+u/oA0TUnTua7evrCXNn0L/gyCOrAHK2jNIsVl8N9LWnyjsKLI8JmjaT/n3k71nsCZ6xZ9IcfHNLc+DvRJ87kYxCiga1RZE5rgrM2j698IYONpgMci9deYl0HgYQJrSBuCT2W+kIuAp/fo6hhIJ2oZENy7WnyX8RhjUUur3B8jPE+Rl4vqa4DNTTsqZAL3qOZ6DNmvDivyUSOVf0TDGzpPgLPGfSvoE7MB62Us1gHrLHITMwopSPhwVT1fepqEBWC9iFzhVAc6uIs+LMIaVd7KMdQ8zPbl16L6fAnlUhwvBb4xjyV8C+jzRHilKq8GNrWVTBxpH3tmxv6/c2HtH6013597oprFM4HnZwO5OG9SujVQrFuhpnWroKbCT0T1S8bZzztjfggcnndRHnb1bL/MGfecNGLZLHiazr7mAs353Y3TlXFR+20bDH4szhWvEXRZ2zeerC5ogMp9g/u/d+aRTU+rhNW5qvDgEkduMM/KS9Zw+KeH03SapbbksiAirViSXVOEZ/Y3CsbUnc6NSlj1ulh1gVXFiGkLytLmPkmk1aBp7P92v5cWdeopgUItQQ9XU8t3mSqJ2Zpl9JwV9G3sxybzu74jF3KwOPbDfaVDuxftfnbHVGTk084QiZoxFZ1CZQqh1lw1VFSNGulX1aKBoWqc7CoEaVm7rBnD5xUpAlXQGqIVSZfXbZO4RqgUUPpE9CeZq5OsUdF3QP8AMTEwJaplJx3qT6krqpiSQVep6I9QeinbeRD4k/5Nez40cc/6p8fYpwSGC4yY0aZ5wAFHRbklisyXbrp3/6dXD/TtXjVoOu4hPPLMzZ2CA3eK8N+irFDhqEBZkargYpCKptrTJ2l4YEGRftCRgOSL6bUbAmhQc9/C6BnWBIcEnXQwLSI1US0DqiLF9MGaQ+hTqytiZ2/OB8E9jetwZuQS4I8E+YbCm0Cf2T6J6wJbdRphWzWI/xSVZ3fZSmgf+z8e2LTnn8bvWf+MnNon24DzXYexB27JheZLN+3a/+k1Q/271w53j/P9w9c/vVtqfR6q1wVOEnES2YC8cSbNvxCXzxYhWQC+5DN3dadPHwNTKnpUVPaA3iVOb6lG5maXC+8qTtemex0145K5ytJUReX/nHEVQANrFCR0RvPGGZOesxpFipJ6lsIO3gybbmHoIVHZ6wy3Ad/P1aIbbGAfYP597dNXgO/dOt5l9VL8gpvQX8cyOq9zSB0rLlxF4Qt3U5tcpqIcmaYm95ehph0KUs4uUIlKtvBvtpOb94B1lgQvuPtdN8GdvUeGm6hhD1chWJ5+wJooQWRY+dDVSBSkBUDme46q1QnzWUrLV1y+jW+0WzKL4NrsOBZ+SFuf2iVgP/BPwD8dLk8W1vYPrU+UIVEVxZQlqN1PEh5LsMWtwAuOw3m+LzuO4WJUjDEYiVFEEw1vFut+JIHUBfhHIHc6lao4FcSVEDOA6CDKILASYXiOcIxLEX0G8Hct+wtSYdB1dLfuI933/eBwebJ4sH9onVE3KCqmPvZqw+MR6PKP2ZGaqzkbDEwUgARnqkEWHKjOQBKaMBebUDuUjalFxqlIJbB2qe/Ld2VHm8UsQWk6hw2qOWdU1JgwSGzgjORAooajMZ3a4jCOp5IwmOIUYlkEeMX0ULdf3RKL/b6IPGG+13CxMrh1kJUXrWL3N+5dtqpYJm+wu6aJd08Tbi6hCWC00WCwUWYjK8oh9YhmpMkalpaIaZcFYDVctmR9gbuKqy5m7gER7N4qOpkgoSxLHnBSSRg9e5SVF6zsufRlYux9xWr/17bc37/o993yl2dww69fg2dhXigWVh7wlMHEBhu1GI+XGng3gVwFshfRd6L6MZB9re4FI0Zcv6pbi5gztOYukIgngnQLYnoq8BHaCpuMm8p82ezlZRx72/b32inyNdqmsTotMSf4/cui9n97Kdqn1mEiw5rL1hIVI9xy1DXW1NekNYu9ezIzVrVh7Yp2toob1nDmdJZ6bcpmSVVt9CcRTfvBdvrffKrZSF9qOxAgcdi9ZTTR5XE/O0XEsOph68gNF3r6jtLTDD5PFjjj8RwP8W3jRerMJ0CvAt0pqi/IrOt9Xe76eoDbNcCfI/p8UV4OzOo+JMoOUUqS+dabD4/npLCA+w7NORF/ETX7ELt2Pjesix2j561kaMcIB390ABMuz/pBQkN8xwS5y1akgUzZx3EoRgWX5fVKow60IlnuL1JvW2jQpigs0wjEmOnaLt0s2UWdtKBHY+w9E0huecYpqVlKa/tYc9ma9LP21v7QGR37hMn5m9GzJOL7RuvCd5IGEx0FXk9vRTCaGSN12/cD76U5kEu6z6FB0LFIh8ezzBZw0j/XcZdo8ImeZupYCQdyrL1yQ7o/u1z9bQXc/ip21xSSM02i2Lqpqh1rZUibbdxkH9cjUduaALdYsoteWgnJnjI6bZfNz6GxY/Wla+jb0I8rJz24vAWFr4vo9SJpVPixHFe8/zJ/Rz9IiZKAopsV4Pyr6vTPqOeTKv8DLKrmbw4hr/IhQX7aMifBAZdFOnQ6PJ4TL8Dz6CrGfgpkev4ZXnE1x5pL1zC8fQS7XMUljKA1Jf7RGFp1jQzP1m6/0q68jfYL3T9P3QK2OLd40ZXGkb6fGJDEYu8a79UKPeYFisaO4soS6x+1Ka2+5ebvPZzVB/s0J6gOq+f0IKx2nMbOFZF3tNS/MfJVFYMzXfpDzM9EtZbc2bybE6A3BarTgSqdjtCK/4I83a/dZTEgo3nn12tRuU6VJ8xridYshdEim392C7fsGkvrRQdLf5GLEZKdkyT3TRPt6EfLaXOBtKuRtiQAK4JK1gk4c0OnrulMsrMat04gwOCcQ+38ScCzsjSbZKz5ERIZ7P1l7N7yshXecIlj3c9sYOiMIeLppKc9Z0XuQuSzEg76O9GzuPtSwHZuKvHsLJK5cblJGkLZ8mR1ihGwOAKNCZIYlQgXGFAl6E/FvV6H0jmth1oiKBVTuKZgK7H/JjynqgUMMKWqn+jtjoOkaln1sLWM7BghqSbLc4aR4KYSajceAetSq1ibY5SbSlKSibA2u5XrrQhp+rNxU2edcDpaiY2jUX1apemYba2jULttLG0ksQwCbKuWwuoS6x+zKQu86tHqVvd50mAXj2cR4jvndbap/eHquCQkJgproA4jC3YSDxTCcLubuemurwb5b4zlhpjr8HhOqAC7ZP4Dx8fE8eOeXq9myQ3k2Pj4LYS5IG11t+R3O5ALiO+YJNldQXLSvgPcbt41xFab9nibU5caJTpcGg4940qecSm3noBkVvRc3gbBHazidk3OpBgvIaqKix3rH7WB/o39PVe+QjiMyIe6hnEv8rjyHx7v7+oHAWoFZ81cxz0dnvYcYM2C5q6q4ioOWwEq+gw0rantkiDJrzj6Z3SIjPZ4TjULGOBAnLgP9aoXtmpZc9k6Vl26DrccnX40E7fxmOr/HUpzXI1AU7JQk43aYtHWU4pc4+/NjxGsVZzTzJ3dfLRaujpL42cnLYFSu2MMe6SKREv/9SbTCUPbh9l09ZbUydfDJraiGMz/isjNImmd7ON5eE7zSatYIeybnu/4evuqWETOUoK/oK11Xo+c6dLGEmlpRuUvSRspeDyLZln2gJNe58RI/l1FXobT8+az3DRRwr6IrU/dxuFbDhBPxwT5YGmLTSiYnKF2yxi5C4aJzhqAWia79baDWTpSXUzTdmrS0js4q9lBvRS0dQ7nFNPBXawL+UChkByqkdw2jhiz5NavSxxBaNj61O30re6jOj5/fn+2ZBkPNPxgIrH1t6BnIQyf03Ptih8cuXXbZxGe1nw3WTUvsklUAP0j4Ps9vtbjgPeQ1uoG+AjC2yr7VjLAVA/TRg6J/KXuObktYIC9CB/UXs5KwJYThs8cYdPVW3BVhy5H3H8gUHVUv3MIrVoI647kWVrd5H5u/unMn40dYe1u1S4IgeTWMfRovCy5v7ZiWfXwtax9xDrintKO6gsP+XjVVr9nE8dSHJe//yp/Z3tideatdKrTrPJs1HyStITkc0jbRBaZ2f0pAWcCPw/8CyIfF9FLAavKu1FeR1vlK4/npLWA8wua1d3HxelL4tBcMl81GXWKWsemJ2zl4M0HGduZdUpaYiQXEO+cpHbzUfKPWAFWu4qPSFNhDtqzgdMsIXVuMXLb+kI5QfeVSW4dQ5ahQImLHcXVRc54+nZMzpBMJT1Z3LHjUKj6IRBvEniWmhuLK468fmr/yg+awK5qW6xudM68RoRfUnTMiIypRBPpRSmDojoMjAI5AFV2RmJ/26r5hIr4FF/PqSPAC+S+UiX5xyP9+b8J0HnzcmzVUlxVZNuzd3Dz396Ii9OSlUvuN4gdlW8dJNzaT7i6AFXXKAGZlqmURqGNFhHWmTQkyfzU893N0snEbv59YFAH1RuPwFQC+aX9/Oocah1bnrSNkTNHiad76vdLYIRqNfnvo1V3nb/1PMvE/5J2I3ov8PAOc15fdqzvchHvBvl3kL8Bu9sPp+eUE+D+gwt9RvTv5INfJEoe0YtZmJQtqx+2lvVXbuDez9+NGcwt+f6n5APcgRqVaw/Q/9yNqSi7mU5HM60Im+OdZ3xcjUdmFnCn2KH5hLdhjeaE5MdjJHdNINHSByHFUwkrL1rNxsdvTtsN9iLaKgjxfcVo6n2T1ZKvz+dZTq5TNU8QcS8m7bd8PrCRzr2By6nocrugXwb9hBLs8kPoebBYwABHAjV/CHySzAU05+SeOCQ0bHvOmYzddZTxu8eWxxWdF+Ibj1DZ0kfhslG07JC6hZsJqANMPcVIUll2KEE9yUiUwJm0gHunzzbfz6IAPVwl/v4hJNElt35t1VJcWeSsF55D1JcjmYp7XuyI2r+E3lLNPJ7jzBTwD9nh8XgBnofPa2D/VeLwpfO2FpG0DV5pVYkdzzubm//m+zjr0mYNS2lrGUGdo/KVvYTr8oSb+tGybUQ3z+z9amO/10iWXiT18h2GvEQdg7jmf39ALckNh3CHq8iSu57TnOUznr6dkXNGSaZ72/dNeyTbaw3yD0aKrB9YegN4/QcfxVdfca2/wz0ez4NbgMc2LKZaVYLAn6I8FmHb/OYVxOWYVQ9ZzaafPYOdn7yDqLT0eaFSCLCHq5S/tI++FxUIcgatdQ8v16bOgAoYhDxRm9u6q5K1fF5yAfZHR0l+Opb2+11i7LRlzeVr2Xj1VmzV9pTzmwlwmdC9m8TXfPZ4PJ5TwQIGuNWI/q2DP6MXW8ulVucZz9zO+D1jHPjBPnL9S78fbIoh8R2TVL6yn74nr80sY51T/BuCq1DQPMxZCrqD0OUCdG+Z+HsH018HsnTWvkAykdC3sZ+zXnQuYT4gKScLeLr+mzr5YtUE/o7zeDyeunYsy7tUg0UfDvchFa7p9a1czZEfzHPWC8+huLq0IKFYNIFAJFS+c5DKdw+lLQuN4FQbNTqctlXGUlB1RC6iKPmsSke3o02LQwMTMfG1B9CJGKKldbXbmsUUDWe98BwGtwyRVJKFXGG3CfJuIPG3m8fj8Sy3AB8bYzj9Q4F9vT4hmUoYOWuUs19wDkEuyBoELCEKEgiiyvSX9lK99ShSMCCCwzUKbahmu8GNNoQQETBoioQStmYCd9FiCQWsUrvuAHb3NOSW1qpUp2Bh69O2s/aR66lN1noXe6UmyB8Dd/pbzePxeFoJT5HzvN5V+FPJ63t7anOnSjKVsO5RG5l4YJK7P3knJpBGp6ClEmEig5YtU5/eTdAXEW3rhyk7y7OsTZ2CAwyrwiH6TJ7DNq6Xl+7ybQmIkHz3APb2ccgtfbnJpJyw7ooNbHvadmzNoon29p4OyOm/uQn5N1CoLv+ldsVfXc23f+3L/i73eDwPYgt4PDimQ8YNUpX3mUL0uV5r0NR77G57xo60VOJUvLhu9wtECgHucI2pT+4muX8aKQaZ5ZsZsTpTjlJVCVzAYFCiaHLp77qdYiAQCLUbDxPfdDgV46X89gTiqRrDO0Y46+fPJciHqSehB/EVp0hkbtOcfTvgK155PB7PCRPg40OZvuj3nOq99BjZ7BJH1Bdx9i+ez9D2YeLx2pJbjABSDEn2TDP5sXtJ9leQUpDt+c70A0611hFoQGRC+sJiS5/gliMQNDQkPzxK/N2DqSW/xH1+k8mYwmiRc3/lAkrr+7G13nRU0uYS4zYXvBm4x99iHo/Hc+oLMMBN1VryVlGNexaSckJpXR/nvewiSuv6sdPLFAtUDIjvnWb8o/eQ7CljCulerTaaJymCoUREKCGbi6sb4ttu+Wog2JsOE397P+I0tYaXEFezhH0R5/7SBaw4byV2sufhRhCc8n7gf/zt5fF4PN1Zlo25KSkfnxe6pwzwb5qPrrTGviKgtwCkZLLG8DkrOOeXLuCWD9xEUk4ICkvfulBKAck9U4x9dBdDz9tMflM/Op0gpMU5IgJGGERFWFdaycDREhN2mlw9ICtKK2S5G48Qf/dAuq+6lHWuJW3zKGLY8XPnsO6KDdSm4t7zfdOX+JqBv2C8giIQ+uBnj8fjOR0sYIAkrJm39kn/93otsqEKyVTMmsvWcuYLzsGEgqstT0MTKYXE909z9L/uoXLHBFIM0x7A6gg1oE/zqDhW5IbYMbCBmo1RdWk7wcQRX3+Q2ncOZOlHS2j5CqhVbGzZ8tRtbP7ZrSS1BO0xglwEBN3rqsnvsICIdY/H4/ECfGqxd/PA9jdWXXmfcz3G+Khiq5YtT9zG9ueejUssLl4eETbFgGRPhaP/eTflmw4juQBCKLiQSFJBjoKQK1ZdyPriSqaDGDdhib+yj+T7h9J96yV2O6tNI8c3Xb2FM59/NqiitreIZ0GJbZhUksJvA9/zt5XH4/GcvgIMcN3Zow/5fRV1vXbSVae42HLG07dzxtN24Gqu97SaY1I3MKUAN1bj6Md2MfGNvThgRThCQXJghFgsq4sreOF5T2HT5AjTn91FcsdEmmpklkN8YzY8ZiPnvPh8CFhQ7nRNIzYPPPDnwD/7W8rj8Xh6Y1n2gK94+FOW5HWL8GET7zyXsfIbCXrbD7Y1i8kZznzBudjYsutzdxOaEFnKUo6ZCEshgNhx9HP3Mng0Zt2TLyYII1QEwaC5gJFqH+bbYyR7psmXCku7OMj6EcdTMesuX895L70QUwiwC6geZpzDFKLPlEdW/snakTLLEma+AJ72ucfxmad8zd/pHo/HW8DHGevKlT+wuP+RnnvigYsdYuDsF5/Hpqu3YCtZgYllQHIBaoTyDYfR+yoEuQAjhigMKRSLXP+t73DH7bcRFXPLYpknZcuaR6zjvJddSFAKFyS+ghAnyfcN9leBI/528ng8ngePAANM9OUH3pAP89+zLunZArNVi4kM5/zS+Wy8ajNJJcFZt+Sip6qEuZBypcwD9z2ACQICE5DPF5iamOTWm27BOocxZsnPozZRY9VDVnP+Ky4iP1rEVuyCnm9E7i+G/b8K3O1vJY/H43nwCTDAvTLlXg+yq2c/soCtWIJcwNm/cD6brt5CUk6wiV3yFob1kb/v7vuoTlcJopAwl+PQgUPsuf8BoiiEpToHSffCa+M11jxiPee/4mIKIwWS6XiBr6MVFyW/Dnzb30Yej8fz4BVggP8L1bwekf0LeZKtWoK84dyXXMDWJ2/DVd3SN28ATGA4evgocS0miiKCIKBWjYmTGESWzBBXpyTTCeuu3MiFr76Y/GhhwR2jjErVivkd4GP+FvJ4PJ7FEZ5mn+cz1rg3GMffi8pArxahqzmCYsi5L7mAXCli56fvBAvBEnYaEoRKpUYcx4RhSGhCrE3rVy+VBa5Jmue7+QlbOOvF5xH1RSTTycLc7qI49F2i8tdJzZCYGtTg4G7j7yaPx+N5kFrAdf59ktrvhARWZSHu6AQFtj//bHY87+y0pnFl6ao4iRFq1SqHDxzBGIMJQsSlTSSOu/xKGv2d5kGfwdkvOZ+oFKWW7wLezAjETv+yIsnbWdqYcY/H4/ECfIrydxKb3xeVZCEC47J2e9ufdSbnvuwiwkWIVK8EYqhWqhzYf4AoyhGFOZIkwanjuL6hyRYSBna84GzO/sVzMcYs2O0MILXgwwhv8eLr8Xg8x86yuKC/f8NSxumUmKorTa0I01CkSBn+VIwdCKLkzWjv6wyXOFSVLU/YSn4gx0//3y1M7Zsm6ouO89JHsM4yOTGFMQFBGKKYVHqPY0qynUqI+nOc9fPnpilXtawC2ELdziL/LZXgTUTxpL9tPB6P5xQR4BNEougfCFJS5NcXEh2tNi1Osfby9eSG8/zkgzczdudRwv4IOU5VqdJuSJKVwzSEYRqIlf40q5FxLK+vabBVaVWJ8156IasfsQ5bSdIa2LKwMzXwPwm8OvC5vh6Px3P87LDT/PPFovqbuOp7QRbU0kddmic7fNYoF7/hUtZesR5XXYT1OJ/F7RwikrqhczmyxsGLf0FJrfhkOmHF+Su45I2XsurStSRT8SLO3aEu9/Gc9r8KL74ej8fjBXihljDKWwzyXl2oUZl1USqtLnHhax/CGc86ExE5Lj2FRSUTYIsQEEV5isUSxpjFW75ZbrOrOTY/fguX/NrDGNo+TDIdo27BH50o4GOR5F4HHPS3isfj8RxfwgfJ56wK8hbrJAkDfgd0QSpnKxaTDzjrRefQt66P2//jVsoHy+T6F18uMm0goRgTkMvniXI5cvliw/pelLk/WSPqy7HtWWdyxlO3IeHigq3AYJ3+RxjK62Jv+Xo8Ho8X4GOkBvw+mhyB4B1AYSGWpata1Aobr9pC/6YBbvuXWzn8k4OYnMGEC3ckiAgihumpaZLEMjg0ytDICCIGdQuoSiVZfm81YWjrEGf94vmsvGgVGuvCc3xJ85PR2t8h+d8G5wOuPB6PxwvwcUGBPxWRCVTfqzDQ8zMzoUumYoZ3jHDJGx7KXZ+8k/u+vAtbTgiKCx/KQqHAztvv5K/e+W4edfXVhGFEFIUkSe8CbCsWEVj/6M2c+bwzKa3vJ5lKUitaFjE+Yt4D9q0oNX97eDwejxfg480HRGQc5/4CkTU9O3wljS6Op2LCvjS1Z2jHMDs/djuT900SFIO0rWGvL2cEG8fcesuPuf0ntxLlchhjyOVy6FyBWFmktp1OyK8osu1ZO9j4uM2YnCGejBuPWdC6RKkK5h2IvBtI/K3h8Xg8XoCXiv+oIQcLGr4P3JmJLKwClataJBTWP3ojQ9tG2Pmx23jgW/ejqgSlgF6rOYsxFItFVLURET2/1ZugFlY+bA07fu4chs8cxlUttmwXtSctBEcV/S3gg/6W8Hg8nuXhwV7A90u3Du978URu8juhW+BQ1POFJ2JKa/s4/zWXcN4rLqK0ro94Mk4bOixADEWEIAjmfr8sNSo3mOfsF5/LJb92KSNnDmOnkwW/X9Pr7lTNv8SLr8fj8XgBXm7+bzKqvDDU6D8X+wL1NJ9NV2/mob91GZuv3pqmME3Hx62klS0nuNix7pEbeMhvXMYZz9xBEKUuZ11E3rAAonKtoD8HfMpfBh6Px7O8hH4IANglEr5cNd4l4n4dyC/YGo4diXUMbBjg/JdfyIoLV3L3p+9k/O4xTBhgosWtdVzicDVH3/o+tjz5DDY8ZhNhMSIuJ2B1kVav4Kz9D8G8QWCf//o9Ho/HC/CJZAr4HeB2Uf440GBNbGzv+pbVjoynYkxkWH/lRkbOXcl919zN/V+/j/LBMkHOYHJBT3UmXeywFUt+KM+ax65n61O30beuDxc74qnFBFqBcQaEssO9W1XfJeIjnT0ej8cL8MnDh5IwvnMiKL93oFq6TGWB7t2sFKRLHLnBHGe+8FxWX7qWez5/N/u/u4faRJWwFKW5w9rBknZpqpOJAlY/fC1bnrKNlReuxFlNi2os0qUtKlRylXsCzO8GSfif/mv2eDweL8AnI9/cUzr43BXlbb9XDWuvRGVR/mNXS8tCDu0Y4aLXDHHwZzZwz2d3cuTWQySVhDDfOvy2mgDC8Nkr2PqUbax66BqivpBkOkEX624mrbqVd9Hn7u7f89ubJlfe4r9ej8fj8QJ8MrMb5FcRuQnlD4E1i5W/JHNLr374GkbOGmX/D/Zy35d3MXbnkUbZSVUY3DzIxqu2sPby9RRGC9iKJZ6IabRHWhxlUf1zUXkPMO6/Vo/H4/ECfCoQAx+wzt0cBOaPUR5rVHCLdUuPO0wu3R9edcka9t+wh/u+ei+uZln/qI2svXwjheE8TpXaZC11Ny9CeI2mm8xO+LGY4PfVuk/6r9Lj8Xi8AJ+KXK+Y5wfweivudYKuWKxJ6mKHix0SCRset4WVF6/GWaW4qoitWpLqsRehSoyrOQn+OXTyHuAO//V5PB7PyYfPA+6dA8DbDpfGXiQq36LnWlfdlDhtdRgN5SmuKKb1m+3ik4Yl+2+o5tbJ3PQrpkJ9rRdfj8fj8QJ8OvElkOcI+kdq5MgxVdoQcBWbRjcfg5qLAkZih/mQwNOBfyZ1n3s8Ho/HC/BpZw3//p7bD/4cKl8WI+hidfgYAqxU0oYOJpSb9uw88kvjRyqvBHb6r8fj8Xi8AJ/ufMUE4fOMyOuDUO9c1ncWME4P4ninGp4O/Cdg/Vfi8Xg8XoAfLIwB7wtDfZaofBBlSpb07YRMaP/XwLOAtwC7/dfg8Xg8XoAfrPwYeKVinulEP4VQO26dGEhfSUVA9ToVXozwIuA6P+wej8dzauLTkI4/X0mw1xuJnhu68DVIfLly7DZx5PQnOP2n2Oi/gtnvh9nj8Xi8AHtmMw38i2juC4G1z69F7uXi5BKkt9oajccI4LhbA/vPUcJHYsw9fmg9Ho/HC7Bnfg4A78Po/yDmxer0F1TNhSKuq+tfAKcGCbhTcB9X+CA+stnj8XhOO/we8PKwB/hTF/KUDYP7Xh+I/bYiCSgqmhaCzszeRMMfrSsdfHMU2aeQtkf04uvxeDzeAvYcIw8A7w+wH4+JftaoeYFx5jEusHlBrkfcx1WCTwG7/FB5PB6PF2DP8Wc/8K9C8ImgFl2WbHS5YMp+j6o74ofG4/F4HhyIqvpR8Hg8Ho9nmfF7wB6Px+PxeAH2eDwej8cLsMfj8Xg8Hi/AHo/H4/F4AfZ4PB6Px+MF2OPxeDweL8Aej8fj8Xi8AHs8Ho/H4wXY4/F4PB6PF2CPx+PxeLwAezwej8fjBdjj8Xg8Ho8XYI/H4/F4vAB7PB6Px+PxAuzxeDwejxdgj8fj8Xg8XoA9Ho/H4/EC7PF4PB6Pxwuwx+PxeDxegD0ej8fj8QLs8Xg8Ho/HC7DH4/F4PF6APR6Px+PxeAH2eDwej8cLsMfj8Xg8Hi/AHo/H4/F4AfZ4PB6Px+MF2OPxeDweL8Aej8fj8XgB9ng8Ho/H4wXY4/F4PB4vwB6Px+PxeLwAezwej8fjBdjj8Xg8Ho8XYI/H4/F4vAB7PB6Px+PxAuzxeDwejxdgj8fj8XgefPz/AwB2DEbITGABcQAAAABJRU5ErkJggg==;dashed=0;fillColor=#8CC64F;fontFamily=roboto;fontSource=https%3A%2F%2Ffonts.googleapis.com%2Fcss%3Ffamily%3Droboto;align=center;html=1;" vertex="1" parent="zuTwkrwnKx_cXMOe-0HA-27">
          <mxGeometry x="350" y="850" width="340" height="170" as="geometry" />
        </mxCell>
        <mxCell id="zuTwkrwnKx_cXMOe-0HA-26" style="edgeStyle=orthogonalEdgeStyle;rounded=0;orthogonalLoop=1;jettySize=auto;html=1;exitX=0.5;exitY=1;exitDx=0;exitDy=0;entryX=0.5;entryY=0;entryDx=0;entryDy=0;startArrow=classic;startFill=1;fontFamily=roboto;fontSource=https%3A%2F%2Ffonts.googleapis.com%2Fcss%3Ffamily%3Droboto;fontColor=none;" edge="1" parent="zuTwkrwnKx_cXMOe-0HA-27" source="zuTwkrwnKx_cXMOe-0HA-6" target="zuTwkrwnKx_cXMOe-0HA-20">
          <mxGeometry relative="1" as="geometry" />
        </mxCell>
        <mxCell id="zuTwkrwnKx_cXMOe-0HA-22" value="Front End" style="swimlane;dashed=0;fillColor=#8CC64F;fontFamily=roboto;fontSource=https%3A%2F%2Ffonts.googleapis.com%2Fcss%3Ffamily%3Droboto;fontColor=none;align=center;html=1;" vertex="1" parent="zuTwkrwnKx_cXMOe-0HA-27">
          <mxGeometry x="420" y="50" width="200" height="200" as="geometry" />
        </mxCell>
        <mxCell id="zuTwkrwnKx_cXMOe-0HA-23" value="React" style="shape=image;verticalLabelPosition=bottom;verticalAlign=top;imageAspect=0;aspect=fixed;image=data:image/png,iVBORw0KGgoAAAANSUhEUgAABQAAAAOJCAYAAABCi4/dAAAABGdBTUEAALGPC/xhBQAAACBjSFJNAAB6JgAAgIQAAPoAAACA6AAAdTAAAOpgAAA6mAAAF3CculE8AAAABmJLR0QA/wD/AP+gvaeTAAAAB3RJTUUH4QoJEjYKUB862QAAgABJREFUeNrs3XmcHGW1//Hvqa7qmUDCKrKThEz3ZFEQATfUKyquuBtUkDAziVFR3Bdc7s9xR71uoKiBTE+CIBIURRQXFL3XjVVZssx0FgICKiBLEpLpqq7z+yO4Icskmel5uvvzfr1+v5cXwuQ85zxPVT1napEAAAAAAAAAAAAAAAAAAAAAAAAAAAAAAAAAAAAAAAAAAAAAAAAAAAAAAAAAAAAAAAAAAAAAAAAAAAAAAAAAAAAAAAAAAAAAAAAAAAAAAAAAAAAAAAAAAAAAAAAAAAAAAAAAAAAAAAAAAAAAAAAAAAAAAAAAAAAAAAAAAAAAAAAAAAAAAAAAAAAAAAAAAAAAAAAAAAAAAAAAAAAAAAAAAAAAAAAAAAAAAAAAAAAAAAAAAAAAAAAAAAAAAAAAAAAAAAAAAAAAAAAAAAAAAAAAAAAAAAAAAAAAAAAAAAAAAAAAAAAAAAAAAAAAAAAAAAAAAAAAAAAAAAAAAAAAAAAAAAAAAAAAAAAAAAAAAAAAAAAAAAAAAAAAAAAAAAAAAAAAAAAAAAAAAAAAAAAAAAAAAAAAAAAAAAAAAAAAAAAAAAAAAAAAAAAAAAAAAAAAAAAAAAAAAAAAAAAAAAAAAAAAAAAAAAAAAAAAAAAAAAAAAAAAAAAAAAAAAAAAAAAAAAAAAAAAAAAAAAAAAAAAAAAAAAAAAAAAAAAAAAAAAAAAAAAAAAAAAAAAAAAAAAAAAAAAAAAAAAAAAAAAAAAAAAAAAAAAAAAAAAAAAAAAAAAAAAAAAAAAAAAAAAAAAAAAAAAAAAAAAAAAAAAAAAAAAAAAAAAAAAAAAAAAAAAAAAAAAAAAAAAAAAAAAAAAAAAAAAAAAAAAAAAAAAAAAAAAAAAAAAAAAAAAAAAAAAAAAAAAAAAAAAAAAAAAAAAAAAAAAAAAAAAAAAAAAAAAAAAAAAAAAAAAAAAAAAAAAAAAAAAAAAAAAAAAAAAAAAAAAAAAAAAAAAAAAAAAAAAAAAAAAAAAAAAAAAAAAAAAAAAAAAAAAAAAAAAAAAAAAAAAAAAAAAAAAAAAAAAAAAAAAAAAAAAAAAAAAAAAAAAAAAAAAAAAAAAAAAAAAAAAAAAAAAAAAAAAAAAAAAAAAAAAAAAAAAAAAAAAAAAAAAAAAAAAAAAAAAAAAAAAAAAAAAAAAAAAAAAAAAAAAAAAAAAAAAAAAAAAAAAAAAAAAAAAAAAAAAAAAAAAAAAAAAAAAAAAAAAAAAAAAAAAAAAAAAAAAAAAAAAAAAAAAAAAAAAAAAAAAAAAAAAAAAAAAAAAAAAAAAAAAAAAAAAAAAAAAAAAAAAAAAAAABgtIwUAAAAARqNnne/m2ciehXq0uyLbLTfb3XJFZvmukuQe3euR/8XNN0iSp/kGRR2bdo105xklGyGDAABMDBqAAAA0yFz3wi4rdYAn2X657DFSvpfltreZdnVpkmSdZjJ3392k6Vs307pPprqk+2V+j9zuNtc9kt+hKLrF8vzP7smfNnTrL8vM6mQZwI6Yv9z3yJO0JItK7l6W/GCTHSTZvpLvL2nSDvz4eyX92Ux3uvtqyapmVjXl1fs6k1XLDrTNVAAAgPFBAxAAgLHmbvNWjZQKcfwkuR8qV0mmsqSDJXWM0986ImmdpGEzrc5zX2WRrtlYS25cNsdqFAXAg49TfUMj5TyKD4/kh8h1qJsOkbTfBEWUSbrBZVeY8isL8t+fXe5YSaEAABgbNAABANhBc90Lk6vpETJ7vruOiqQjXdo9kPBqJt0gs2vl+bW565opUXI9j+IB7aVnnXd6LTsqinSUpKfI9WRJe4Qdtd8sRT82149HosLPzy3ZfVQSAIDtQwMQAIDt0LfKp3ih/jLz/MUuO0bSnk0UfippuaRfRbKfdaSFX505xzZSVaCFuNu8odrjY4uOcdMxkp6pHXt8d6LV5LpUkX3T48Ilg9NtC0UGAGD0aAACADBKC6/2pLZr/QWR58e77GVNvpn+V6lLv4uky2S6bENXfCXvEwSa8Bi1wvfNCvVjXPkxkj1Xpn1adKj3yOxC9/yrg+XiH6k8AACPjgYgAACPomed76M0O9mkN0p6bBsM+V4zXe7ynyZp8r1Fs+12ZgEQpgWrNk+vR/FcmebKdUQb7mZ+IbcvTi0VftRvljMjAAB4uFMmAAB4SH1DtUPd9E7JXqvx+3hH6HKXfm3uy5J68h2agcDE61m5eVpUiOe6NFfSkWREkrTSzT4y2FW4UGZOOgAA+Hc0AAEAeIjNtRWSD0i+QFJERv4hN9PvcvdlUZ4sG5hpt5ESoDF6V/uBnqevjMzmuutpXMc/rKty1weWdCc/JxUAAPwTFw4AADygb5Xv51H9I5L3SYrJyCPKJf1G7heMdCbnnjfV7iYlwNjqWeedUVZ/Ve6+0KRncO2+TX5UyLO3nj1z0jpSAQAAFxEAAKjfPbq5mi5w2eck7UJGttmISRdLWjRQin/O43fAjulbtaVbUaHXpfmSHkNGtttmc312QxZ/atkcq5EOAEA7owEIAGhrPcO1J5hskXiP1thcWJiG3bW4EMdLzj7Y/kJGgNGZe4tPmnJ/fa4iX+iuo8jI2HHperkvGOwuXkU2AABte51OCgAA7aj/co/X7599RNKp4nHf8ZC6dLEinT1tRvxTvs4JPLTe6shs88KbXH6ipN3IyPgdk8z1gYFy/AXuUgYAtCMagACAtrOg6gfUPTtPW9+phfHmvl5mX6lZvOjckt1HQgCpp5o+S673mPQirskbeDiSflj0uGdRt91JNgAA7YSLDQBAe226h7IXmfkS8V6tiXCfTGfJ4i9XuuwW0oF2M9e9MGV1/VUuf69cR5CRCfMnyV9dKRevIBUAgHZBAxAA0DZ6htIPmukTnP8mXOryCwqmzy8uFf9AOtDqTrzOdy5MSvuk6J0mn05GgnC/y04cLMffJRUAgHbABggA0PL6L/f4pv3rZ5j8TWQjsAsR029y2WcGuwqX8F4utJoTV/tjk3p2spveKmlPMhIcN9fHBrqTflIBAGj5625SAABoZSdUfZeiZxdKOoZsBG25m31mU1fhvGVmddKBZnbian9sXM9OlelNkiaRkdB3RPaVSlfhbfwSAgDQ0qc7UgAAaFXzl/seeZL9TNITyUbTGHLZx6aVCufz5WA0m3krfc8oyt5jplMk7UxGmmpb9I1KqfBmmoAAgJY905ECAEAr6lnnu1ma/VTSkWSjKa00t9M2lAvnckcgQnfycp98fzF7i7lOlbQbGWlO7rZ4WrmwkF8+AABaEQ1AAEDLOX697945kv3MpcPJRtNfqdzgbv2DpcJF3JmD0Jy83CdvTrK3m/Rul3YnI83PZV8fLBVO5ngDAGi9y2oAAFpvQ/4Lcedfq/mDmfUPdBV+wMYcE23hbb5TujE7WdL7JO1FRlrOJyrl5L9JAwCgldAABAC0jLnuhZ2r2fdNejHZaFlXWaT3D3Qll5MKNJy79ayuv97cPyXpABLS0sXuq5SLFfIAAGgVNAABAC2jt5qdIfe3kom2cFlu+TuWlDqWkwo05PgyXHuy3L4g09PIRltIXXrxYDn5GakAALQCGoAAgJbQN5S+203/Qybaa4Mu6Wv1evyxpbPsLtKBcTm2DG852FX4jKRXk422c29B+VPPLnesJBUAgGZHAxAA0PR6q+nz5fqRpIhstOXFzN256xObsvgry+ZYjYxgLCxc47vW6tmHTHqbpA4y0raWJ5PjJy3az+4nFQCAJr9mBgCgeS2o+gF1z64VL+KH/Gbz6L8HyoVz+FAItle/e3TzcP31bv5ZSXuTEUh+XqVcPIE8AACaGQ1AAEDzbtQv93j9/tnlkp5ONvAvfu3u7xrsLl5FKrAtelelz1ak0yXNIRv4V24+f7BUHCATAIBmRQMQANC0+obT01x6P5nAQ8hdtqjWUfjgeVPtbtKBR3Lian9sXE8/L7MTuD7Gw9hcUH447wMEADQrLnAAAE2pd3X6NOX6P/HePzyyv5n8AwOl5CweC8Z/cLe+4fqJbv55SY8hIXgUV2wsxUctM6uTCgBAs6EBCABoOgtv853SjdkfJZXIBkbp/6IoP3lxV8eNpAKSNG/VyCGFKPq6pKeSDYx68+R6z0B38nkyAQBounMYKQAANJue4fSLJr2DTGAbpZK+NimNP3TmHNtIOtrTwtt8p2xD9j43fUBSkYxgG40UlB/Go8AAgGbDY1MAgKbSV02fatLbyAS2QyLpbZvj9Ma+avZS0tF+eoayl6cb01Vu+oho/mH7dNQVfUPu3EgBAGgqnLgAAE3jga/+/kHS48gGxsDFURa/bfFsW08qWtuCqh9Q9+yrkmj8Ymw2UWavHyjF55IJAEDTnLtIAQCgWfQN1d7iZl8hExhDG938/YNdydf4SEhr6h2u9Ur2RUm7ko2x4dLtkWmtu+436Z5ctily3S/zDblsV5PvLWmKTLvJtbNcu8u0T4ul4dZsc9x9zqG2iRkBAGgGNAABAE1h/nLfI0+yYUl7tsBwMjOt9VwrZRpy118i842uaIO7Nrt8Q1yPV1tc2ymNbKdCbrvLbCd37SzL95GigyWfYdIMd00TjzKOhV+a6vMHyp1rSUVrmDfk+xei7Cy5Xkg2tsv9kq41t+tz+RqLbI1n9bXFXYtrFu1n92/rDzt+ve+ebM5mFyKf47LZkv5L0hOaPEefrJSTDzNVAADNgAYgAKAp9A6nX1bzvvvvXpNfKunyuvlvOu4tDi86wtKx+MFz3Qu7rNQB9Tgry3WkmZ4s15Na8G6bRtjk8g9MKyVf7TfLSUczHy9qvZJ9QdJuZGNUXNKQ5FfIdIWkK6b+Kbm+/2jLxvMvnbfGD4ry9Fhze6mkZ2vrezqbyZZCns0+e+akdUwhAEDoaAACAILXMzQy0yy6vsk2h7lLl0Zmi3ZW4SdnlGykkX/5/BU+1ZP6kyV/cu56uklHiI9/jYpL/1uI6vMXd3WuJhvNZd6Q71+wbJGkF5GNR/UXl10q049qxcJl5021uye0dmv8oEKWvUOmN0ia3DwHDP9mpbt4ItMJABA6GoAAgOD1Dde+5bLXNst2UPLzvZB/ZHBGZzWUoHqrvpdUf748f5Fkz1NrPEo9nu438w8d1JWczt2ATXOc6PGt7/rbjWw8pLqkq0z6UT3yHy2ZkVwb4nsvj1/vu3eMZG+R9H41RyOw7p4/brC7YxVTDAAQMhqAAICgnVQdmRN5dL2a4O41l64vuL9hcXfxypDjnOtemLI6e5K7XuTSS006hJn2MBdKpt9kWb1v6azOYbIRpnlDvn9k2TdMejHZeKjDkn5t8vNiTy5c1G13Nkvg81f41DzJvtYc73D0b1XKxeOZbgCAoK9rSQEAIGR9w+kFLs0NPMxcrk8kG+JPjNW7/RrpgSbr61x2vMmnM+v+w2aZf6jSlXyJLwWHpWcoe62Zf03c9fdvXLpepvPyKP7W0hl2c/MOxK23mr1b0qclxUGfAyx/fKXUsYLZBwAIFQ1AAEC4m/uVI4+3QvRHhX3339880gmDXcmPm79r4Na3OnuKy46X+3GSHsss/Dc/szzuGZhpt5GKidW3yqd4lJ4h2Ulk4x9ulWlpZPl5i7s6bmypeq9Oj/ZcF0naNdxNlZ8/UC6+jmkIAAj3XAUAQKB6q7Xz5faacCP0Wwry559d7ljZarnvv9zjm/erH+PyN8p0rKQCM1KSdKfMFlRK8fdJxcToGaodaRadJ3kX2ZDLdLm5nXnQrYXvj/dXeyfSvFUjh0RR9GOT9g00xLrXs67BWZNuYloCAEJEAxAAEOZmb40fVKhnaxTsY1+2RlHh6EqX3dImtVgoaYGkvZmdkmTfSCYX3rVoP7ufXDRGv3t08+rsfe76mJrri+Dj4T6ZLS14/cxW/AXEw+mtjsyWR7+UtFeQAbq+WOlO3sVqBQAEefVKCgAAIeoZTj9r0nsDDe+2Qp49/eyZk9a1U03mLvfiznH9lTJ/s0nPZJZqlcxPqJSK15KK8TVvyPcvKDtHpqPbPBU3yvzMSbXknDPn2MZ2TMD8au2w3O1XkqYEGN59NYsPPLdk97FqAQChoQEIAAjOyct98uYku0Vhvth/g9fzowZnddzQzjWav3rkcbkX3i73EyV1tHEqaiZ9+KBS/Pl+s5zVO/b6hrJXuPlZkvZs4zT8OpKdtrhU+BEfopF6h7NjJf++Anw/rJm/c6BU/BIrFwAQ3DmKFAAAwtvw197iZl8JMLRcZq/k/W//NG/I9y9E2TvleqOkyW18QfXzzOOTlnbbrcyKsbHwNt8p3Vj/guRvbNMUuEw/9lyfHuxO/o8Z8aDzRDU91V2fDvBosHZqqVDiFwIAgACvVwEACEvvcLpC0qzgTpqmTw2Ukg9Rof80f7nvkRezt8p1iqTHtGka7jK3Nwx0xxcxI3bMA18A/3aIx4EGqMv8QnedNlgu/pHZ8ND63aObqtmlJj0vwHPF8wdKyU+pEgAgqPMTKQAAhKR3dfo05fpNgKFdkdwXP2PREZZSpYd34nW+c2FSusCkd0t2YJum4csb0/h9y+ZYjRmxHceAoewkmZ8paac2G3om2VIvZKcNzuisMhMeXc8638fS7HoF9lEQk58/UC6+jgoBAMI6PwEAENLmv5qdJfcFgYW1OYrqhyzu6lxNhUZn4dWeZLuk8132YUn7t2EKfl8vxK9ZOsNuZjaMTs8677SsfkaA63+8uUkXKq//98DMziFmwjbOm+HseJOfG1hYW6I03n/xHPsbFQIAhIIGIAAgGCde5zvHk7LbJO0S2O781MFS8hkqtO3m3uKTJm/O3iLpVLXfRxzuMrcTB7rjS5kJj+yk6pYZkReWSTqszYb+kzzyDy3pKl7DLNh+vcPpDyW9KKig3E+pdBe/QnUAAKGISAEAIBRJZ/1VCqz5J9MNxXvjL1Cd7bPsQNtcKSf/U7P4YLk+JmlDGw1/Tzf/Ye9w+om57gVmw0PrGcpeHnnharVX8+/3bjq6Uk5eQPNvx+VWf5ukkbDOHdZHZQAAYW1rAAAIRG81/blczw7sRHnMQDm5jOqMVY19L+XZB2R6s6TOthm463IvxscPTrc/Mwu26r/c4/X7Z5+W9O42uiZdLrMP8SXxcTi2DKefk/SeoJa957MGuztWUR0AQAi4AxAAEIQTV/tj5fqvwML6Ec2/sVUp2R2V7uRdBYtLki+R5G0xcNPRSrNre6rps5gFUt8q32/9/tkvtLVh0w7Nv7vc/C1Tb42fQPNvfCSF+BMm3R3URsuiuVQGABDMeYkUAABCEOfpKySF9Jiku/xDVGZ8nF2yP1XKxR53f7Kk37XDmE3a11yX9Q6lH5B72z6F0bsqfbZH2bWSntEGw81k9pUojcuDpeKZ/UdbxuofH4tm2L25FNQ799xEAxAAENK1KAAAATQFhtOfSXpuMCdI148HupMXUplG7JLdeqr115n8M5IOaIshSz+sdcQnnjfV7m6rOq/O3meuTyqsZv94uSy3/B1LSh3LWeSNsXDIH5NadpOknYM5l+T1mXzdGQAQAu4ABAAEsWmT9KyQYvJIp1GZRu2QzQfL8XnJ5LjbTadK2tjyQ5Ze3DFSv/Kk6sicdihxzzrv7F2dDprrNLV8889vMbeTKuXkGJp/jbWo2+6UdHZY55ICdwECAIJAAxAAMOGyKH2ZpDigkH5fKSW/ojIN3rzvZ/cPlpLP1AvxHJOfr5Z/P6B3RR79tq+avbSVR9m72g+M0uzXcpvX4lN4k5k+MNmS0kB3vJQVPVG7m/jzkmoBRfRKigIACOIUSQoAABPPjg0rHOPuvwm0dIbdPFAuvk6moyW1+hc0d3H3i/qG0/9uxfcCnrQqPUp5dpVLh7f2IUyXej173EApOe2Mko2wiidOpctukezcgEJ6wsIVvi+VAQBMNBqAAIAJNXe5F931nIBCGqp0FS6mMgFs5EvJryZb/ASZPiJpSytfj7n0sd5qduHJy31yqwyqd6i2IIr0C0l7t3Dt/uJur6uUkhcNzpp0E6s2lAWVfz2gcCyL0+dTFQDAhJ8fSQEAYCJN6ciOkjQllHjcVJGZU5kwnFGykUop+Vhu9cdJ+lmLD/eVm5Ps6r5VW7qbeRD9l3vcN5yeJrOzJBVbtFZu7ufU6/Gcwe74fFZqWBZ3F6+U6YaAQqIBCACYcDQAAQATu4vO9YKAwsnN4vOoSniWlDrXVMrJ89zsOEl3tPBQuz0q/LZnOD2mGYOft9L3vHn/7Mcuvb91S2Src9cxA93FeUtn2V2szlBPLvpmQHPm+XPdCxQFADCRaAACACZ4jxZUA/AXW98fhVANluJl9Xo8y2WDat2PhOxh0o96htJ3NVPQPStHHh8V6le5gnqkfyyNuKl/shUet6Q7+TmrMWxJFp8jKQvkPLf7lNXZk6gKAGAi0QAEAEyYhSt8X5MeH0o8bsaXO5vA0ll212A57nXTsyVb26LDjM30+b6h2tKedd4ZerB9Q9krrBD91uTTW7EYJl2TW374YCn5KB/5aA6LZtvtkn4azPnFW7YxDgBoEjQAAQATJi3Un7l1bx2EjfX7C9+lKs1jsJT8MttcOMTczlSL3g3oZidamv2it+p7hRpj73D6Hje/UNLkFixBKtNHDro1fsqSUsdyVl1zMbMlwaxl6RlUBAAwkWgAAgAmbkMUhbMhMveLzjnUNlGV5nLOobZpoDt+i3I9V+7rW3SYT5XXf79geGRWSEH1X+5x73D2dUmfa8lrStMNkfmTK6XkY/1HW8Zqaz7p/YUfKpAviJv0tP7LPaYqAICJQgMQADCBGyJ/ZiixeBRdTEWaV2Vm8otkSjJb0ulqybsB/eC6oiv6hrIXhhDNyct98vr9s4skf2MLTqe6SZ+ZrPjIxaXiH1hdzeucQ22TuX4ZSDiTb9ovPYyqAAAmCg1AAMCEOH697y7XnEDCST0uXEZVmtui/ez+Sjl5u0vPl7wVP+Yyxc0v7huuvWkig+hb5fttTrJfSTq29VJsa9x19EA5OZV3/bUGl/8wnI2XPZOKAAAm7jwEAMAE6BipHxXQeeg3g9PtHqrSGgbLyc+SQvJ4ySotOLzYZV/rraafknvD3585v1o7zKPsKklPbLG8uktf2jip8PjB7uT/WEWto+D1YBqAbqIBCACYMDQAAQATtNv2o0KJxaQfUZHWsmiG3Vspx31u9lJJd7TeAtIHeofT8+fe4pMa9Vf2DmfH5m7/K2m/Fsvln116/mA5eeeyA20zq6e1nD1z0jpJKwIJ58lUBAAwUWgAAgAmhJmOCCWWuuU0AFvUYCn+QRbFj5Pp0hZcRMdN3pxdvmCt7z3ef1XPUO0Nkl+k1vvS72VJPX7iYDn5GaulpV0SSBx7L6j6AZQDADARaAACABpv66OLhwUSy/olpY7lFKV1ndNlf53aFR9r0vsk1VpseE/OsvrvxusLwf3uUc9w+kUzWySplb5gOiLzd1VK8fMWzbbbWSUtfsoJ6BcAddUPpyIAgIlAAxAA0HALhrZMk7RnGGfCiDt/2kC/WT5QTj6XR/40Mw230thMPr2u6Le9q9Jnj+XPnXuLT7p5dfYdk97RUvkyDcv8aZVS8Ysyc1ZH69vUGV+hQJr/7k4DEAAwMdseUgAAaLR6IQlmA2Se/4aKtI8lXcVrNnTGT5B0eosNbTdFurRnKHvtWPywnnW+2+TN2U/d9fJWSpK5n9NZiw+vlIrXshrax7IDbbNLfwxiDgb0+gsAQHuhAQgAaDjPw7kDInf/PRVpv2ZApZy83WWvkvS3Fhpa0czP6x1O37MjP2ThCt/X0uyXkp7eQrm5z8xeP9BdnHfmHNvIKmg/5grjlz1OAxAAMDFoAAIAGr8RszDe/2fS3YPl4hAVaU+D5fi7URY/Ua7fttLykvS5vmr6yQfetblN+lZt6U4L6e8kHdpCObnWVD9soBSfy6xv512PhbLO9+pZ5/tQEABAw0+FpAAAMAHmhBCEm37PO8Da2+LZtn7qbfF/mfQZSS0zF9z1wd7V6eDCqz0Z7X/Tt6p2hEeF/5XZ1FbJg7mfk0yOnzFQ7lzLbG9vVi8E0+i3kWw2FQEANBoNQABAQ51Q9V0k7R9Gc0C/oyLoP9qygXJyqpm9XNI9LTMwt3npLtl3Ft7mOz3aH+1dlT7bI/u5pMe2yOi3yP0NA93FeYv2s/uZ5RiYabdJflMQSzPyOVQEANBoNAABAA3VmacztfUxxQmXS7z/D/9sEJTii71Qf5Kk61poWC/JNmU/nb/c93i4P9AzlL1WkS6VtEuLjLlq7k+pdBfPZlbjQQK5CzDiDkAAQOPPPqQAANBIuaJZgYTixUJ8JRXBvxqc0VndOCl+qmSVVhmTu47Kk+x/F1T9gAf/u96h2lvN/FxJxRYZ7kVJIT5yoLt4HbMZ/8kCmRdOAxAA0HA0AAEADd5/hbLx8VsWzbB7KQgebOtXguM+cztJUqs8Pjqn7tkV81aNHPL3f9BTTd8vszNa5HowM9dHp5biV7Ou8fAbH1sexGkwkPfgAgDa7TwIAEBjzQwiCgtjI4hwDXTHS839aZKqLTKk/QpRdHnfUPr03uHsG+Y6rRUG5dLtkfScge6kv98sZ+bi4dTraSjH/T17q74XFQEANBINQABAo3UFEscKSoFHM9BdvK5m8RFyfb9FhrSHm/5X8oUtMp7fF7P48MXl5H+ZrXg0gzM710vaEMQmLE+nUxEAQEPPPaQAANAw7iZpWiCxcAcgRuXckt1XKcevcNOpklrhDjNrjcr4eRsnxc9eNNtuZ5ZidDPf3KWVQczeKJpGQQAAjUQDEADQMD03aW9JOwUSDncAYvTMfLCUfEayl0niHXMTq+6mUyvl4gnLDrTNpAPbtJQDeQ9gLucOQABAQ9EABAA07qSTZaFseDwpJKuoCLZVpRxfYnn9yZKGyMaEuE+yl29txgLbzgK5+9vcaAACABq7FyMFAIBGyYPZ8Pif+FIottfAzM6hej0+StJlZKOhVnqhfkSlHF9CKrD9LIi7v507AAEADUYDEADQuG1XMBse4+4/7JCls+yuqbfGL3TpS2SjIS6pWfyUwRmdVVKBHZGrvi6M86FoAAIAGooGIACgcRses6khxOFuN1MN7Kj+oy0bLCfvlFuPpC1kZJyWq+u0qaX4ZeeW7D7SgR1VnFIM5fh/ANUAADQSDUAAQCN38vuGcfbzW6gGxkqlO14Suf+XpNvIxpja4rLXD3YnH+g3y0kHxsKi/ex+SXcEEMqk49f77lQEANCwLRApAAA00H5BnPzc11MKjKXF3cUrLY+PNOkasjEm/hZJzx8sx+eRCoyDIH4J1FGr7UspAAAN2wORAgBAA+0TQhB1N+4AxJgbmGm3dabxsyT9gGzsCFtjef1pi8vJ/5ILjJMgfgmU5xENQABAw9AABAA0RL97JOmxIcRicZ13AGJcnDnHNm4sxa+QdDrZ2C6/kxWeOjCzc4hUYBwFcQ6IIqMBCABo3HmHFAAAGuFP67SXpDiAUHxTseNPVATjZZlZvVJO3m7yN0rKyMjomLRs46T4OZWS3UE2ML6TLZDXQLjvRzEAAI1CAxAA0BB5mu4TSCh3LjvQNlMRjLeBcnGRZK+QtJFsPKpPDJTi17A20QjmURh3gbv2oRoAgEahAQgAaNCOy/YKJBLe/4eGqZTjS1z+DEm3ko2HVDN5b6Wc/LfMnHSgIdz/EsZOzPekGACAhp12SAEAoCHM9ggkEh4vREMNlot/TDK+EPwQNniklw2Ui4OkAo2UK78ziEDcdqcaAIBGoQEIAGjQRiffLYQwTH43xUCjLZptt3em8bNc+iHZkCS/WZY/ZbAr+TG5QKPVC8W/BXE+Mu1BNQAAjUIDEADQqJ1OEBsdt+hOioGJcOYc27ipFL9MskVtnoqVipKnV0odK5gVmAgzbtHfJE34I+fu4g5AAEDD0AAEALTXRif3v1ENTJRlZvVKqfAmc320LY8D0pWJx8+sdBnv4sSE6T/aMkn3BrAeaAACABqGBiAAoCHMwnjXkUU8AowJXww+0J30m/tbJeVtNPJLipPjoxd1G3fhIoSFOOG/DDIagACABqIBCABoDPfdgogjj7gDEEEY6C5+VWavkTTS8stfNjj11vgVi/az+6k8wpiTHkIjunPuLT6JagAAGoEGIACgQZst7RJEHCYagAhGpRRf6KYXKIDHEcfRZwdLhb4HHrsEgmCmu0KIY/f7tTPVAAA0Ag1AAEBDuBTGXQ4R7wBEWAZLyS/N/b8k3dZyy978XZVy8n6ZOZVGUJPTwzgX1Os0AAEADdoGkQIAQCOYaacwdn35PVQDoRnoLl7n9ewoSUMtMqRUZvMqpeIXqS6C3ARZFMTj6BbXdqIaAICGnPtIAQCgITyMBmChnm+mGAjR4KxJNyUeP92lK5t9tUeyV1RK8TepKoKdpO5BnAvy3LgDEADQEDQAAQCN2m4F0QCM8s4t1AIhM2lysw+hLr1a7kY1EbAgzgUWGXcAAgAasw8iBQCABm1zgngHYN1b/4uraE4nVH2XzLIfS5rd9Ktd3tNbzb5EVRHsHHUFcQdgPRINQABAQ9AABAA0ShANwFpGAxDhmXuLT0o8+4FLh7fQsN7WO5x+mOoiRHkURgMw4hFgAECjzjmkAADQIJ0hBLHlEPEIMIKy8GpPJm/OLjTpmS04vI/3DtfeRpURHPcgzgW5K6EYAIBGoAEIAGiUOIAY0mVmdUqBUPS7R9ku6VJJL2rdUdqXeodqC6g2gpqVgbwDMIpUoBoAgIacc0gBAKCNzjk8/otwuNv6av1rLntti4/UZPb1vmp2HEVHMJPSozC+CJ/TAAQAtM9mDADQ4ua6h7LB4fFfBKOnmn1G8oVtMtyCu5/TV02fR+URglDeAZhHeUw1AACNQAMQADDudr8mmPNNjWogBD1D6QdNem+bDbvorotOWpUexQzAhHOF8ToI7gAEADQIDUAAwLir7ckGB/i73mrtzWb6ZJsOf6co0g/7hmqHMhMwkczC2AdFxvkRANCgcw4pAACMt/p9YWxwXDKqgYnUW81eJrcz2jwNu7rZz3rWbCkxI9D25wOnAQgAaAwagACAcZd0hHG+Mc57mEA91fRZcv+2xIZf0l5WL/zwxNX+WFKBCdoEBdEA5BdTAIAGnvsAABhf6YjyQEJho4UJ0bNy5PHmukhSB9n4h1Ihz362cI3vSirQaJ4Hcj6IAnkXIQCg5dEABACMu912UsZ5D+1qwarN01WIfiJpN7Lx70w6JM2yi06pOo1RNHryBXE+8DyY8yMAoMWxEQIAjLs9/xTMHQ6c99BQC4f8MfUovtSkfcnGwzAdvVHpkn531icaJphHb7kDEADARggA0Cr6j7Zs636L8x7ax8LbfKfUsosldZONR+H2mvXV+ldIBBp2MrAwGoCWRzQAAQBshAAALSWE9wBy3kNDLLzak2xD9h1JTyUbo+Vv7hlKP0ge0JDZxh2AAIA2w0YIANAoKec9tAV3q+2SVtz0ApKxbcz0ib5qbT6ZwLjPtTyQ84HTAAQAsBECALSWEDY5MWXAeOutZp812QlkYruYu319/nD2YlKB8eSWTwpiwhsNQABAY9AABAA0ZpMj1QIIo3Oue4FqYLz0DdcWSnoPmdghcS6/oKdaewqpwHhxt51DiCOXNlMNAEAj0AAEADRmsyXdH0IcU4a0E9XAeJg/nL3YZV8lE2NiJ3O7eP7qLV2kAuPBTEHcARi50wAEADTmnEMKAAANEkQDMCrSAMTY61tVOyKXf1s8Zj6W9srzwsXzl/sepALjIIgGoEdhnBsBAK2PBiAAoFGC2OTk2cjOlAJjacGqzdM9skskMbfG3qw8yb53StU7SAXGlIfxyyDuAAQANOycQwoAAA0SxCYnrxtNGoyZ+ct9j3oUXyppb7Ixbp6xMU+X9rtz3YqxYxZEA9DrOXcAAgAaggspAECDNluBPAIcR5MpBsZCzzrvzJPs+5K6myz05ms4mB13czX7FLMOYzalPA+iAWh5xxaqAQBoyD6IFAAAGsLDaDrUc94BiLGYz25WS8+S9PTmCtzWRlk8W9IlzXcI0ft7h2pvZfJhLOSB3AGYJ7wDEADQGDQAAQAN2r17EJucQsQjwNhxPdXsMzJ7fZOFfZspO2bxbFu/cVJ8nFyXN13izb7UO5wdywzEjk+lMH4ZlN1PAxAA0Bg0AAEAjdlsRdG9IcThzocasGP6hmtvMum9TRb236Iof/5AuXOtJC070Dabxy9z6comG0dB8vN7q7UnMhPRAueC7JxDbRPVAAA0Ag1AAECDNlseRAPQlE+hGthePcPpMS47o8nC3ij5ixZ3ddz4r/9wYKZtKKTxCyXd2GTj2VluF88b8v2Zkdjuc4Fp9wDCuJdKAAAahQYgAKBR7gkhCHfbk1Jge/QMjcw06QJJcROFXZPp1ZVy8YqH+peL59jfsih+jqShJivH/gXLfnDidc4dvdjOc4EeM/FRGA1AAEDD0AAEADRqtxXGRicSDUBss3krfU+zwg8k7dZEYddldkKllPzkkf7QOV32V0XxMXJf32RlOawwKfv2XPcCMxTbyqQ9Ajgx3kclAACN2wYBANCQM050TwhhcAcgttXCqz0pRNkyybuaKGw38zdWSvGFo/nDlS67xeP8GEl/aabamPTiydXsU8xSbIuTl/tkSR0BhMIdgACAxm3HSAEAoCE8jEeATU4DENsk27X+VZmObqrl5nrPQKm4eFv+m8EZndV6nj/PpLubrETv6x2uvZGZitHa2BnC3X+SaAACABqIBiAAoCHM/Z5AQnkM1cBo9Q6lH3D3NzTXYtNHBruTL2zPf7p0Zsf1ufmLJG1ssiPMGScNpc9hxmI0kjwN4hdBFsqrMQAAbYEGIACgMRudQn5PEHEY7wDE6PQMZ6+U6RNNFvaXK6XkYzvyAwZLxd/L9GpJtSYadxKZLpi3ckuZmYtHk+UWxh2AFsarMQAA7YEGIACgQfuc4h0hxOFOAxCPbn61dpjJlzbTtZK5nzO1FL9rLH5WpZT8xN1eIylrorLtUSjEl/ZWfS9mMB5JIQrjXbAu/yvVAAA0Cg1AAEBDHLBed0nKAwhl9353zn94WPOGfP/c7RJJOzdLzC798KDbkr5+szFbY4Pd8ffk/ubmqp4fLM8uWHi1J8xkPPw0yYO4A9Dkd1IMAECjsAECADRE/9GWKYyPC0RrV2l3KoKH0rPOOwuWXSRpvyYK+6r65vg1D6yxMVXpLp5tro82WRmfVdulfjqzGQ8n90AeAVZ0B9UAADTsrEMKAAANFMTjTrGN8CEQPCSrpWdJOrKJIl6TRfGx5xxqm8brbxjoTvpldnZT1VH+pt5q7c3MaDzkBshsn0DmKQ1AAEDjzn+kAADQKC4FsdnJC4V9qQYerG84fa/MXt9EId9pefbic7ps3BvrG7sKb5J0UXMdcOzLfavTo5nZ+M9zke8fQhx1z3kHIACgYWgAAgAaKYgGoMkOoBT4V33V9HkufbqJQt6sSC8bmNk51Ii/bJlZfeOk+AS5fttEOUo817KTqltmMMPxIEE0APO8yB2AAICGoQEIAGgYk/01jDicBiD+Yd7KLWV3fVtSoUlCrpvbCZWupKHNuGUH2uZ6Hr9U0lATlXfPyAsXn1D1XZjp+CcP4R2f9YNnBvFeXABAm6ABCABo4J4rjPcduWx/igFJWrjGdy0UChdL2q1pgjY/ZaA7npDHcZfOsrtM9RdJ+ksTlXl20bOK3I0Zj61fgQ/iHYB3juVXuwEAeDQ0AAEAjWN+WxBxuNMAhPrdo7SefVNSd9MsIdOnKqXi1yYyhoFy51qv58dIureJyv3KvuHsI8x63HSTHispCSCUW6kGAKCRaAACABp52gllw8MjwNBN1ew0Scc2T8T+rYGu+MMhRDI4q+MG5XqlpFrTZM/0//qq2XHM/Pbm9TSUXwDdRjUAAA3diZECAEDDTjqWB9EAdBqAba+vmp1g0nubJmDX5ZMt6ZWZhxJSZWbyC5f1bl1STcHcffCk1bXDWQHtyzzaL5BIuAMQANDYvRgpAAA0Ss2SIDY8Ju298GpPqEh76q3WnujuZzVRyNfVovjlZ5RsJLTABsvxeXJ9qIlyOSnKdeG8lb4nK6E9medBNADd/HaqAQBoJBqAAICGmTFDdyqMRwajLbtrXyrSfuat9D3l+o6kSc0Rsd9sefyic0t2X6gRVrqTT5vbmc0zC2xaoZB9a657gRXRhtzCuAMwdx4BBgA0dgNECgAAjdJvlsvDuOshzjM+BNJm5roXokJ2nmTTmiTkDfXcXzIw04JvFGwoF97m0g+baDocs/Nw9glWRfsJ5SvwBYtoAAIAGooGIACgwUJ575EdSC3ay+TV2cdNel6ThFuX7PilMzuub4Zgl5nVozx+nUvXN8t8MNP7+4azV7Ey2uwMFPn0MBZ4zjsAAQANRQMQANDoTXcYHwLJfQbVaB89Q9nL5Tq1adaJ6/2VcnxJM+V4YKZtyAvxS+T6c/Ok2Su91ZHZrJA24n5wGOfChAYgAKChaAACABq79zLdHEQcMhqAbWLeyi1lMx+UZE2xRmSDA93J55sx10tn2M15wY+VdH+ThDzFFF20cI3vykppfVs//hTE3d/3V0p2BxUBADQSDUAAQGPlflMIYZh5F8VofScv98mFQuG7kpqlwfPrKVZ4UzPnfElX8RqZnSQpb4Z43VVO69k5/e5cF7e4+m4jUyWF8PGXm6gGAKDRuNABADSWRaFsfGgAtjp32xyniyXNaYpwZetk8SvPKNlIs6e+UoovlPSRJgr5Jeur2QdZNK0t90Iod37fRDUAAI1GAxAA0NgTT1QPZeOz34nX+c5UpHX1VrP3yuy4Jgn3vkJUf2krPRZYKcWfNPdzmijkj84fzl7MymllYbz/T7L11AIA0PB9GCkAADRSbVNxXSChWKFYO5iKtKbeVemzJX2yScKtR7LjF3d13NhSRTDzDVmyQNIvm+W62OXnzF+9hbuDW5S7BfEFYDenAQgAaPyFDikAADTSOYfaJkl3BhFMoVCiIq1n3pDvr0jnS4qbImD3dywuxz9sxVosm2O1xOO5kq1tilJIu+d54cK5t/gkVlJLCuMLwLndRCkAAI1GAxAAMAG7nzDefxTJ+RJwi+m/3OOCZd+StFczxOtuiyvdxa+0ck0Wddud7vUXS7qnSUI+dOfN6VmsplY89SiMY77lN1ENAEDj9z4AADSah9EAdBmP+rWYm/bPPiXpGU0S7mXTbmvuL/6O1mB3xyqXjpOUNUO8Jjuhp1rrY0W1nDAeAU4SHgEGADQcDUAAwARsrrUmjECcBmAL6atmLzXpPU0S7tBIR3xc/9GWtUt9BsvJz0x+StMcp9y+0jdUO5SV1RoWDvljJO0aQCgbB6fpL1QEANBoNAABABOxs64GEYerm2K0hgWrNk+X+6Aka4Jw7/FC/SXnTbW7261OA+Xi1yWd3iThTnKLLly4xndlhTW/mrJZgYSyWmZORQAAjUYDEADQcOZWDSSU/XvW+W5UpLktvNqTehSf69LuTRBuHslePzijs9qu9dpYit8l6SfNEa13pfXsHLkbK63Jzzvms4OIQ6pSDQDARKABCABouEIWB7MBirJg7grBdqrtWv+ipKc2RbCmj7bqF39Ha5lZPUrj45vly8CSXtI3nL2LldbsLIhjvZtWUwsAwITse0gBAKDRFs222yVtCCOaMO4Kwfbpq2bHmftbmiTcH0ztij9B1aTFc+xv5vkrJW1qhnjddFrPUPoMKte8XArjlz3u3AEIAJgQNAABABMlkLsgjAZgk+pZs6Xk7mc1SbhVT+J5/WY5ldtqoLt4ncvmSWqG96HFJl2wcIXvS+Wak0lBHOvdjTsAAQATggYgAGCidkFh3AWRiwZgE+pZ551WL3xb0i5NEO7G3PJXDE63e6jcvxssx9+V9LmmCNa0T1rIzp3rXqByzeWEqu8iaf8gginG3AEIAJgQNAABABO0mQ7jQyBuPodiNKFa/SuSDmuCSN3N+paUOpZTtIe2sRR/UM3yURDT0ZOHs/9H1ZpLZ57OVBhfCN84OE1/oSIAgIlAAxAAMDH7aLfhQCI54IG7Q9Akeoay15r5/GaI1aX/GSzFy6jaw1tmVh/piF8nNcmjkaYP965Kn03lmkeuKJSPPQ3LzKkIAGAi0AAEAEzQhixfGcp2vugpXwJuEn3DWw428683Q6wm/XzarfEHqdqjO2+q3e1ef4mk+5ri+jnSeT3rfB8q1yQskI89ua+gGACAibuAAQBgAuyUJSsVyMv/3cRjwE2g/3KPXYVvSto1/Gj9Zrf4df1HW0blRmewu2OVrGk+CrK31bLzeB9g0wjilzwuW0kpAAAThQYgAGBCnDnHNsr95hBiMb4E3BTW7599UtJTmyDULXmkV1ZKdgdV2zaVUvx9SZ9simC3vg/wfVStKYoVyDHeuAMQADBhaAACACbwLBTGZshdj6cYYeutps+X9J6mCNbtTUu6itdQte0ztRR/RNIPmiJY08dOWpUeRdXC1bfKp0g+PYhTnmfcAQgAmDAxKQAATKAVkl448Xv4pviabNtasNb3rmfZEjXBLy7N7cyB7njJo/25nnW+Wy2S7bR5y255ZCaPptQLiuPcdnapmJtNktQZSUV5vvOD/3uX7eKmf3v8NJJMrt0eYoIn7jZ5NPG7lEfyex/8z3PTZklbtv44r5lr0wP/PJOiDQ/8/SNyv98j3Z/LRzzNN8QFZVs6Ou62murnlmxU7/frN8sXrvET03r2e0kzQ7+WjiL/1vzl/oTFc+xvrNbw1JUdEoVx7Bg56PaONVQEADBhFy2kAAAwUVy+wmQhhLLXgqofcHbJ/kRVwtLvHt1UzZaatHcThJu6qbO3Wlsit50k7SZpZ0k7STZF8ilb/7d2VpqpQ1I9euBSzKQol/IHfpC5P7BGHviXD+HB3xL1h19oGu1r9exh/uS//132jz9j//Kz//FHcimSSYWCXFLHyNbXIPYOp5JUM2mTS5sl2+LyjdHWvN3rriyS7nV5mtbrG2VaJw++ASjJDsyTrCL3l/OF1/AUzJ/gYZxnqrwTFAAwkWgAAgAmTCRbGcpuue71J0iiARiYm1Zn7zXpeU0SbiJ5n/yhmg30hR5QdKkoaXfJ/9lw9H9tPj7wv5orZS/tW52+fUD6EiUOS67oMAthMpkvpxoAgIndewEAMEHiKA7mhegm5zHgwPQO155sro+TCTQDd/tMz1DtSDIRFov80CDmB18ABgBMMBqAAIAJs2iG3Sv5LWFszngPYCj6VvmUeatGDpGi8yQlZARNomgWnT9v1cghWz88gYnWf7nHcj0uiE2X241UBAAwkXgEGAAwwew6SQdOfBzcAdgIp1S9Y5OP7C8v7JdHtq/kB5trP5P2lXRwLu3nyvYtKBKPzaL5+MGFKLrOlal3ON0i2W2SrzX322Vb/7dka+uW375zrbj+zDm2kZyNn5v2qc0yRZ1BnOmi7DoqAgCYSDQAAQAT7TpJxwawPZt6/Hrf/bypdjcl2X4967xTtdq0SIXpUn6wRzZdrumSpkk6YKNnj5UKkv3zQxfSP1t9RgrROjolP1jSwW72bzM88kibk0y9Q+mfFelPct3k0jozXyfZ2npWX7dr3LH+jJKNkMbtF8WFQ9yD+EXCpgNndKylIgCAiUQDEAAwodzsOgtjg2adafYESZdTlUcqmNuC1drfPTs4d5tu8umSH+xm0yUdrDTbVxaZyyUZN/EBj3jU0T5y7SPpCNt6QJQkFQoFbfQs7x2u3eqydSZfJ7O1LlvndV/bkcdrF82220ngox2u/AmBhHJjv1lORQAAE4kGIABgQuVZdl2hUAhps0gDUNLx6333JE0PNo8OlvzgKPc5Mpvt1ay7Lk2WJD3Q5uO+PWBcRJIdaNKBkj1z65eSXRZJaZSpdzgdkexWyVeYtPzvjxfHWbyc5qD+fmQ6LIzfQdgfqQYAYKLRAAQATKiDZ3asXl/NNknaecK3aHl7fQhk4W2+U7opnekezZR5ydzLkpUklTSS7ba1sbd1+/zPRxgBBKLjH48YS8f+vRGfxpl6h9O7JFVlPiy3YTOrKs+Hdo6SVe30WLFLQXwB2Dy/gekKAJjw8xEpAABMtN7h9HeSnhJAKCsq5WROq+X35OU++f44nWWKZst8tqTZks2WfJqkiBkItI26pLVmWu7SSslW5Jav7NgpWbloP7u/lQY6b40fVKhn60OIxV3PHOxO/o/pBwCYSNwBCAAIgF0neQgNwJkL1/iui2bYvc2YxYW3+U71DenjPNLj3W2muR7n5jM3K5tqsge9kI+X8wFtqCCp5K6SpJdLrshN6cbMe4azm0y+0qXlMl+lXDcUpyTLm7UxWMjrTwokFFcx5g5AAMCEowEIAJj43ZHl15sHcVN6VKtnT5L0s9Bz1rNy87QoTg5x90NMOkSmQ9ONWZfMor/39ramlJv9ATwq2/pBH0036UVyk0xKN2b13uF0tUnXu3S9mV2fZ+n1g7Mm3RT+icWPDCSOmwen2z1MMQDARKMBCAAIwbXB7IKlJyugBuDf7+qrS4cqig4190MkHSJpV3/g68n+j/8PAMZUQVK3S92S5rq7rBCrdzi9V9IN5na9LL8uN11fvz+54ZxDbVMwkbuODOL3H2bXMo0AACGgAQgACOBslPxRaZZKSgKI5skT9RcvvNqTkV1r5UJeONzNDzfT4enG7EiZFU2SnC4fgCDsKunpbv50yWQuxZMy9Qynt5t0jbmuySO7plAr/GbxHPtbo4Prd4/WV7PDQ0iUu65mugAAQsBzQQCAIPQOp39UGF9svKtSiveS2bh22x6q2eeuIyUVmQ0AWoVL/9YUzLPCb5fOsrvG8+9cMDwyq65oRSC7rRdUSslPmAkAgInGHYAAgDA2iW5Xm3kIDcA9T1o9cvASac1Y/cB+92jd6toskz3ZFD3V3Z+UKpsdeRT7A31Gbu4D0IpM2lfSsW461txVKGTeV02ruftVkq4ouK64L0v+uGyO1cbq78y9cKQsjINqZvEfmAUAgBDQAAQAhLFJjPJr5DY/hFgKip+iHWgAnlD1XTo8e5JcT3fT4eur2VMjRXtu/bfO7fcA2vpw766yycqSTshNmpxkae9wWpXs1+b6TT2qX7Okq7hie+/EziM9KYz+n998Tpf9lZIDAEJAAxAAEATPdbWF0hlzPVnSuaP5o3PdCztX08eb6amSnmKyp7hnZZd40QYAjE4iabbks920MPJIvdXsLxpOr5B0pUX6bbopvnK0Hxkx9yNCGJTxARAAQEBoAAIAgjAlSq7f6FlNAbwDL5c/7IdA+i/3eN2B6aGW6+mR7CivZs+RbI+/f4WXJ3kBYEzsLemlkl7quRRPyuq9w+mQZL9202Wmwi8rJbvjwf/R3OVelLInhDAAPgACAAgJ9yYAAILRO5xeK+mwAEJJN06Kd112oG0+8TrfOenMDssjHWWu50o6StIkqgUAE76VWWue/0amX9fNf7Okq7iibyg93CO7KoToPNILB7uSH1MnAEAQZ01SAAAIRV81W+Tubwhi4yY/V7KSSU8Ud8wDQPAe+OLwnxXGL5KURfHevAMQABCKiBQAAMKRXxFKJCY7waQnieYfADSFB744fFgg0ayl+QcACAkNQABAMOry35MFAEDzyzmfAQCCQgMQABCMJV3FFSbdTSYAAE3uClIAAAgJDUAAQDjMPJeuIhEAgCZHAxAAEBQagACAoJiLx6YAAM1sZLIlfyQNAICQ0AAEAATFZDQAAQDN7A9nlGyENAAAQkIDEAAQlLxY+J2knEwAAJoUj/8CAIJDAxAAEJTB6XaPpGEyAQBoTkYDEAAQHBqAAICgnLjaHyvpDjIBAGhGJu/qWef7kAkAQFjnJwAAJti8NX5QXE9f4LKXSHqBpJisAACaWG7SH+S6JFd+/mB3xypSAgCYSDQAAQATom94y8G5opdEZnPd9TTOSQCAFt52rZX8EnMtGyjHv5GZkxMAQEPPRKQAANAovdXaEz23uWZ6laQSGQEAtB339RbZd3L5ssGu5AqagQCARqABCAAYV31DtUMV2XHudpzkXWQEeEi5Sfe6lEt2r+R1k+7LpbpJ95krk2mDyzMp2vAQV3Q1c9/0H//ctSWPtHlUF4WuxKTJD/GzE3f7z3/u+U5m1pFLO5nUYaZJcnW6NEmyTpdPiqROlzolTaLEwEPxm2W2TO7LKqXkSpqBAIDxQgMQADDmelaOPN4K0XFmOs5dZTKCFryAutvd75PZBrnuk2mDSfe57G6Zb5B0n8nvk7QhV3Rf5H63yzfkkbJCnt8d5e73T+q8p5jLH/jydesfF9Z5Zy3SpMmb1JnFI5MiWUca2U4F2S5ymyJpins+2c12i6Rd3DVZsikmn+zS7pKmbP1/PtlkUx74Z0DrcF+vyC6Mcr9gcTm5imYgAGCMr18BANhxJ1W3zIhUOEGu10qaRUbQJO4y012e606Z7nLZXWZ+l0t3RPI7XdGdlvtdkeV31bx4X+y6b2CmbSBtYTh5uU/OTFNGktoesUd71t32UJTvEbntmbv2sMgeI/c9JO0h055ybf3f3JGI4PlNZnZeXfl5S0ody8kHAGBH0QAEAGy33qrvpTx9jcyOl/RUMoIgL3bczlSUX5vn0V2R/M7I8rtGouJdW2bormVmdTLUfhbe5jvlm7RHrV7bI46jPT3XCyS9j8wgUNeZdK5H8fmVLruFdAAAtuuamBQAALZFzzrvVFY/JnI/0aWXS0rICgJ2SaWcvIQ04BG5W081+7FJzyMZCFhupt/l7svMkvMqJbuDlAAARosGIADgUfW7R+uHsmeZeY+bvUIP9aEAIDx3JVn8+EWz7XZSgUczf4VPzePsekm7kA00gRGXLpHZkml/Klzaf7RlpAQA8EhoAAIAHtaCqh+QKTvB3N4g+Qwygqbi9tpKd/xtEoHR6qvW5rvb2WQCTeZvkl0YWf71xaXiH0gHAOCh0AAEAPybBx7xfYm5L5T0HM4VaFIXVcrJK0kDtlXvcPpdSa8gE2hSK9y01BQP8IgwAOBfsakDAEiSeoZqR1oULZT7ceIROPy7uyStNLOVLv+TXB+U1BFstK4/J4ofv6jb7qR02FYLV/i+aZzdIGnPgMO8011ftMi73W2mSTM5buNBRuT+fTM766BS/It+s5yUAEB7owEIAG3shKrv0uHpa132RklPJCPtzaXbTVou2VpXviKSLZfqawfKnWv//md6htPPmvTesMdhrxosx9+lothePUPZa838W0HPc/eFg93Fs/7+fx+/3nfv3JLNkflsyQ52aY5ksyWfzjV/2/uTSedmhfjMpTPsZtIBAO2JiwEAaEO9w7UnS9FCyV8jaWcy0lZqLq2KpKFcWiW3FYUoH7qvM1m17EDb/Ej/Yd9Q7VA3u1pSHO7wfEmlXOyhzNjh4+RQ7dsyOy7gEO/xJJ41ON3+/Eh/6ISq75LkaXekaFYun2WmbkmzJc0Iey1jHKSSLjG3sw4qF37CXYEA0F5oAAJAm+hb5VPyQnqi3N5o0iFkpPU9cEff9ZKuM7Pr86x+fXFTcdWiIyzd1p/V7x6tr2a/lfTkgEd8iyfJIYPT7R6qjx01b6XvWYiyG2XaJ9wp7xdUuouv2Z7/tGedd3o9nWOuQ+X2eDMdItehCvvRZ4zd3Fkvs7OyKD7rnC77KwkBgNZHAxAAWtz81Vu6PC8skLTQpd3JSEtKJVVNWi7XijyyaxQXrnq0O4O2Rd9Q7S1u9pWgt7ORXjTYlfyY6YCx0jucHSv5D4K+mDd72UApvnisft7fHyXOzQ+PXIfLbPbWx4nVyYxoSTWTvi9p0UA5uYx0AEDrogEIAC2o3z26aXX9xXJ/q0nHcLxvKX+V9AdJ17nsukJUv75wT3Foe+7qG60HPoqwUtKuAV/SfK1Sjk9memCs9Q5nA5L3hhuh3zwpTeacOcc2jtffMHe5F3cppnM8jx7vkR8i16EmHc4vlVpuY3iNy7+6cVJy/qO9EgIA0JTHeQBAq5i/3PfwJJufy95sW1/8juY+Sd/t0tUyXe1uV+eFwtUT8QL3vuH0ApfmBpypNZPSwhPGswGC9nVC1Xcp5un1MpsaaowufWmwnLyz4eec1Vu66vX4CIv8CLmO0NaPSU1h1jS9u1wayAvxV/hoCAC01N4CANDs+oa3HOwqvF3SfPFRj2a10UzXuesac7umHtWvWdJVXCEzn8igelanL7Bclwact1ymZ1dKya+YQhgvvavSZyvSZQFfO+duftRgqfj7CT8frfL98kL98Mj9KJme7q7DJO3ELGpKuaQf5blOWzIz+Q3pAIDmRgMQAJrY/OH0mW56p7teKikiI03jfjP9wV1Xy+xqz+tXTysXh0P7IuPC23yndGO6XLJpwV7ImL4wUErezZTCeOsbzk53+SkBh/jHqbfGR/YfbVlIQfVf7vHafWuzo4IdYR4dIfkRkp4gKWFWNRHXbxXZFzd2FS5aZlYnIQDQfGgAAkCTWXi1J+ku9VfL/F0PPHKF8HdOt5j0G5d+Z7l+e9DtyR9D26Q/lJ7h9LMmvTfgEIc8iZ8wON22MMcw7sfe23yndGP9eslnBHxh/76BcvK50HM59xaftMvm7Mi66+kyPS2Snsb7BJvkbCZbF1l+uurJ4oGZtoGMAEDzoAEIAE21+UwXSHq3ZAeRkWClkq516XeR2e8iFX57dsn+1GyDmLdq5JBCFF0jKQ40xNxdzxrsTv6PKYdG6VudHu25fh7wNfT9pvrjB8qda5sqse520ura7ILbUW46Sh49TfIuZlzQ7jHTmanFXz6ny/5KOgAgfDQAASBwJ1R9l8TTXsneb9K+ZCQ490q6yly/kenXGybFv2n2ryf2u0frq9mvJT014EsYvvqLCdE7nH1D8oUBh/iTSjl5QbPnecFa3zur15/0L+8SPEJSBzMwOCPmfkEe5x8fnNFZJR0AEPDVMykAgDAtXOH71uLsnSa9SXxVMTyu33pc72nFDU9PtXayuX014BBvTQrxnEUz7F4mIhp+bF7ju6b17EZJBwR7gW/2+oFSfG4r5X3uLT5p5y31Y839AmZhkDK5nx8V/DOLuzpuJB0AEOD1ASkAgLD0rNw8zQrJqZL3iLsdQnbnxlK8T6u9DH3hCt83jbOVknYN9uLF7GUDpfhipiAmSu9wdqzkPwg4xDvq9XjW0ll2V0udH6u1PnNbzAwMmku6xN0/PthdvIp0AEA4+GIkAARi/gqf2jucftkK8SrJ3yiaf6F7zM7D2dNabVBZnH1ZATf/ZP5tmn+YaJVyfInk5wUc4l6FQv1zrZZ3y+2lzL7wyyTpJWZ2Ze9w+rPe4dqTSQkAhIEGIABMsL83/vI4G5L0NtH4a6ZtzktaaTg9q9MXuDQ34BD/Vigkb2fiIQT1evI2SX8JN0Lv6RtOn9sq+Z57i0+S6bnMvKbyXMl+31dNf91TTZ9FOgBgYtEABIAJ0je85eDe4WxxHmdV0fhrSia1zN0oC2/znSz3rwUdpNu7zj7Y/sLMQwiWzrK73O0dIR+iXDqzZ513tkK+d76/frSknZl5zcddR5nr8p7h9Ce9q9OnkREAmBg0AAGgweYN+f69w9k3XIVVkvdJSshK0+ruW7WluxUGkm7MPiLZtGA3kNJPK93xEqYcQjLYHZ8vKeRH0ktRlv13SyS7xe64bkcmPU+5ftMznF7SN1Q7lIwAQGPRAASABpm30vfsHU4/V7CsKvlC0fhrkTNpoenvApy/euRxkt4ZcIibVM/eyGRDiCyP3yzpnlDjc9d7FgyPzGrqJLubyY9ltrXImpFe7GbX9g7XzutZs6VERgCgQdsWUgAA4+vE63znnmr6/kIhWy3pPZImkZXW4S3wGHBej05XwA1pM//w4KxJNzHbEKKBmXabmb8n4BCLmaKvy92aNccnrUmfKOkAZlur7UPtdVYvrOgbqi3tWbl5GikBgHE/8AIAxsPCqz3pGa6dEk/K1prrNEm7kZWW9NTequ/VrMH3VbMTZDo64BCv2NCVnME0Q8gGupIBSZeFGp9Jz+xbXT++WfNrbtz917piNzvRCvGKnuH0sz3rnGslABgnNAABYBz0DWWvSHfJlpvsdEmPJSNjyW+W/FsBBVRQXn9RM2byhKrvkrt/LuAQa17P37DMrM68R9DMvJBnCyVtCvbImfv/LFzjuzblhsXDef+fS1ea6QtyX8/EH1OTTHqvpdnqnuHaKQuvdl6TAgBjfT4lBQAwdk5aXTu8dzj9pZt/VxLvtRmzHZevl3S6uZ5RKSXTppaS10v6azibf2/Kx4ATzz5q0r7h1l2nDc7quIEFgGZw9sxJ61z+oWADNO2T1esfb7a89q3y/Vx6YkAHpm8OlJJ3V7qL03LLH2euj0paxQoYM3ua7PR0l2x5TzWbSzoAYCwvBQAAO2zeGj+okKWflNkJHFvHTFWmCyW/sFIqXvvgf9lbrS2R27xAYt3oSbzX4HTb0izJ7Vk58ngrRNdKigMNceVkiw87o2QjLAU0i373aH01+42kpwQaYl3mT3qoY2qoeodrb5Ts6+FsnuozBsqda//jOmDVyCGxRa9006skPY7VMGZ+Zbm/Z2Bm8WpSAQA7eg4DAGy3hbf5TunG7AOS3i0+7jEWVrj0nTzPL1w6s+P6R9wUVrNXy31ZKIG724sHu+MfNUWW3a23mv1K0jNCjVCmoyul5FcsCTSbvqHaoW52tQJtrrt05bRS/NR+s7wZ8tkznF5i0otDOUdVysmcR50Dq7Z051Z4lW1tBj6RVTEGZy3ZkjgunHr2wfYX0gEA24cGIABs7yZvOHuVe/55mU0lGzt0Klpr5ueb5d9a3NVx42j/qxOqvkvRszskFQMZxzcq5fhNTbGhrmYnmvvScKeEL62UiiexNtCseofTz2nrV98D5W+qlIvfCD2PD/yS7U6F8wu2z1bKyfu36Xi7ZkvJ8sLr5HqdpJmsjh1yr8w/mtybfGXREZaSDgDYxktsUgAA26ZnaGSmWXS6pGPIxvbuPfVnmS5w828NdiVXyMy3c5P904DqcFulFB+wvWNp2IZ6je+aZtkqmfYJNMS/ZVE865wu+ysLBc3qxOt857gzXR7wL4j+JotnVkp2R8h57K1mL5P794I5dbmeOdid/N/2/vfzq7XDcrfjJX+NZAeyUrbbcuV6W2Vm8gtSAQCjx0dAAGCU+lb5lJ7h9LNm0XWi+bc97pGsYtIxG8vxAZVy8vbBUvH3O9Iwc/kPAhrffvOH0yNDL0KtnvUH3PyTyT9A8w/N7pxDbZMsemvAIe4h1T8VfCJdLwsomr9Nuy3+3Y78gMWl4h8q5eS9U0vJtEj6L9/6bsO7WDHbbI4i/bxvOL2gd7XTSAWAUV9nAwAeVd9Q9go3P0PS/mRjm2wx6Qe523lTosKlY/1BhwWrNk+vR/HagMb7P5Vy8t5Qi/HA3avXS0oCDfH3U0vxUc3ybjLg0fQOp9+R9MpAw8st9yeH+nGFhVd7ku6S/VnSHiHE4/JzB8vF14/HOGtT6sfI8uNN9gpJO7FytslGmf+/jV3J6cvM6qQDAB4eDUAAeKQL8xW+bxpnp0t6NdnYppPLNbn8nKIn5y7qtjvHeYN9g4L54qLfVCklB4f6GHDfUHqpm14Q6LSpR+ZHLi4V/8AKQoudQ1ZK2jXQEH9XKcVHhXjM6lmdvsByXRpKPO72usHu+Pzx/Dvm3uKTdt5SP9bcF0p6Dnu1bXJd5L5wcXfxSlIBAA+7RwMAPFi/e3RzNV3gss9J2oWMjGJzJN1u0jJzHxjoLl7XqL+3t5p+Sq4PhLNJ9CcNdhevCm4zXc1eYu4XBzyBvljpTt7FSkKr6Rmuvd1kXwp2M+B20kB3HNxHgXqGsrPNfH4g4WQjHfFjz5tqdzfqL5y3xg+K8ux1cnujyaezkkYll+xsywvvGZhpG0gHADzonE8KAOA/NmtPMNkiSUeSjUe1RebftzxasqFc+OlEPH7Tuzp9mnL9JpSEuPS5wXLyvpCKNHe5F6cUsxvcVQ50Hv3J8ng2Gza0ornuhSnV7AqXDg8xPpduTy2eeW7J7gslpv7LPV6/f3a7pMcEEtKvKuXkWROSC/fopmr2HJP3aOsjwpNYVY86q2+WordUyvEl5AIA/omPgADAAxZe7UnvUPpRk10pmn+P5iqZnzzSEe9XKRVfO9AdXzpR797ZOCO+QlJAX7K0V8s9qF+wTU6ytwXc/JPM3knzD61qmVm9HvkbJQX5fjKT9k08+3BIMd28f/YshdP8k7km7INT/Wb5YDn5WaVcPCEpxPua/I2SrmBlPWLFDpL8B73V2pLj1/vu5AMA/nHOBwDMXz3yuDyPlkh6Itl4WFtM+kE915eXzEx+E1JgvdXsLLkvCObkmvuRobxY/8TV/tg4z4YV7jvIflIpJy9geaHV9Q6nX5b0tkDDq1leP2RgZudQGLnKviH5wnA2TPUZA+XOkD44pQXDI7NyRSdJWugSTa6H4/qzy9482B1/j2QAaHfcAQigrfVf7nFPNX1/nkfXiObfw6m66dR6PT5goJwcF1rzT5I810VBxRPZ3FBiifP6pxVu829zbvW3sMTQDiyPPyzpT4GGV/SocEYIgcx1L0j+8oByc11ozT9JOrvcsXKgnJyqPJ76wF2BfEDpIRee9jHzi/qG0wvmL/c9SAiA9j4kAkCb4q6/R5Sa9D3P9fVKd3x5qF+1/btTqt6x0bO/KpgPttjaSjmeMdFRnLS6dniU25UK9xd+H66Uk0+y3NAueoazV5r8O8FuDMxeNlCKJ/RjQX2r06M91y+CyYnrowPdSX8zzK/e4dqTpeiNkr9G0k6suP9wq0zzK6XkJ6QCQDviDkAA7cfdeoZrp+R5dJVo/j3Yn0z6f0kWTx0oJ8dVZia/CL35J0lnlGxE8h8GNMkOPml1bcJf+B/l9qWAz/WrJlv8Pyw5tJPBcvxdaeLeJ/fop0d9fu5yL05oEHV7dWBZuahZ5lelXLyiUo77PIn3l/ztklay6v7N/nJd2jucfqlnnXeSDgDthgYggLbSW/W9eqvZxSY7XRIXf/90rbmdlNwXHzxQTj6+aLbd3nQjsOi7IYVTyCf2MeDeavZqSU8Ptl653rK1cQu0l3ohfqukjWFG511TkuztE/W397tHufkrAsrHTQPdxeuabY4NTrd7KuXi6ZVyMttcz5B0iSRn9W29WpD0dkuza/qGaoeSDgDthAYggLbRN5S9UJ7dIOlYsrF1HyrpQkU6qlJODh/ojpcuOsLSZh1Mdn/hUkmbg9k2auLuYpm73ItyfTrcavl5lZnJL1iCaEdLZ9jNbvpEsKtT+vCCtb73RPzdt1Szp5u0byi5MLPvNvt8G+hOfl0pJy/xen6oZAOS+MXLVrPd7Pc9w7VT5M5rsQC0BRqAAFreKVXv6B1Ov+zmP5S0NxnRvWb6gtezrko5mVvpSn7bCoM651DbZKaA3uvjM3qrtQl5xHxKMT1Z8q5AS7XR8uS9LEO0s021+IuShgINb5d6vT4hDcpcelVQmQjsA1M7YnBWxw2Vcjy/EMdT5fqYpDtYieo02em91eyShUP+GNIBoNXRAATQ0npX+4EbPfulpLepzT985LJ1bjrVk3jaQCl59+CsSTe13CBzC2yz1vi7AI9f77u724cDrtLHB2babRyd0M6WzbGaS6eEe8Lwvr5VtSMa+Vf2u0cKqwH4lw3l+HetNvfOPtj+UulOPjLZ4gPN7SRJN7Ii9aLUsj+ctCo9ilQAaGU0AAG0rN7h7Fjl2R8lPaXNU/EHmc2dVip0DZaSzwxOt3tadaBbOgs/kBTOY8ze+PcAdtayD0vaM8T6mGl4Yxp/iaMTIA2Wk59Jwd5hFuWRfb6Rf+H6NdlTJO0f0BHr+8vM6q06/84o2chAd7y0UooPiWTHyvXbNl+SB0SRLu+r1t7BI8EAWhUNQAAtZ657obeafkryiyXt0baJcP3W3V5cKcWHV0rxhf1measP+bypdrdLlwdUhK5GPgZ8UnXLDHe9NdT65Lm9c9kcq3GUAh44QtSzdymgd5f+K5Oe2VPNGvdLjFyvCWr8ru+1xSQ088Xl+IeV7uQoi/Rsk37exksycbcv9lazCxeu8V05QgFoNTQAAbSUE1f7YycPZz+T6wNq30d+L3PT0ZXu5KjB7vhHMmurL/+Z/LthxWMnNOyk7oXTJBUDLc0PBrvjH3GUAv5pcNakm0zhfrDHPP/s3Ft80nj/Pf2XeywF1QC8d0NWaLtG2EBXcvlAOXmumz9V7f3l4Fem9frVPStHHs9RCkBr7ZMAoEX0VmtPlOt7kh3YhsN3ST+Q/FOVcvGKdp4HC9b63vUsu1VSIZDC3L6pFB843o+S9a5On6Zcvw703D6SW33OklLnGo5U42veSt/TknRaIY+myfN98sgeE7nt6cr3NFnywJzc3aU8ku7dOkl9S252l0l3yfwuU3RrntXXRVa8aWCmbSCr46tnnXdaWr9R8hmBhvjhSjn55Piev9Pny/XjYDZI7ucMdBfntf3cHK49wWQfkvRKteeNIxvNbd5Ad3yRAKAF0AAE0BoXqUPZa818saSd2mzoucyX1ev+qaUzO65nJmzVN5xe5tJzgjnZmp4/UEp+Om5/gbv1VrPfKtD3XZrpUwOl5EPMzLGz8GpParumh0t6onl0iOSHSJotaawfW7tTrhtkukHuN9Tdrzy4u3hjO7xSoKHnsGr2EnO/ONDwNnoSlwan25/H7Zg9VFvqZieGMmA3e+lgKf4BM3OrBcMjs3K3D7jZ8Qrkl2uNnA5u+uhgV/yxdnuiAkDroQEIoOkvy/qGs4+46f+14THtMpm/v1IqXstEeNBmeqj2BjNbFM7Z1pdWSsWTxm+82WvN/FuBluNPk9J41plzbCMzc/v1X+7xLftnT8ul50l6pqQjJE2aoHDuk/Q7d/1vIfJLF3clf2RjPAbreDi9xKQXB7plWFQpx28cj5+88DbfKd2Y/VnSlEAGe89ki/c5o2QjzMoHn2tGZkYWfcylV7fhNdclNYtPOLdk9zETADQrGoAAmlbfKp/iUXaepGPb7Mj9C5d/aLBU/D2z4KHNW+l7FgrZ7ZKSQELamEyO9160n90/1j/4lKp3bPD6SpNPD7EW7va6we74fGbltjvxOt+50Fl/iZm/StJzJe0WZKCuP8vsR+76TnFD4WeLjrCU6m27+au3dOV54UZJHQGGV88tP3RJqWP5WP/g8H6B4Usq5WIPM/LhnbS6dnihbp9w0wvaadwuXV/I4pcunm3rmQUAmhEfAQHQlBau8H09yn6p9mr+XeFmL62UkufQ/HtkS2fZXeZBfclwcm1j/eXj8YM3efa2UJt/kn49WC58mxk5enPdC73D2bF9w+kF8aTsrw80Rl6tUJt/kmTaR/I+M/9hukv2595qdtZJq9KjqOa2WdzVuVrS/wQaXsE8+sy4TB/zE4Kazh5xzHoUS7qK1wx0Jy8009Mk/bJdxm3SIXkh+/1Jq2uHMwsANOlxDACay0nVkTmR248kO6hNhrzczT462FW4kMfsRq9vuNbjskpAIf2oUk7G9PG+49f77h0j2WpJewRYgrq5Hz7QXbyO2fjo5g35/gVlC2Xqk3RAiwxrhczP9jipDE63e6jyo5t7i0+avDldIdm0EONz6XmD5eRnY/Xz5i/3PfIku12BfL3cpLs3pPE+y+ZYjdm4Lefb9LmSTnOpXRpjmyLZaxaX4x9SfQDNhDsAATSVnmr6rMijX7dH889vdtkJU0vxIYOleBnNv22TJ8n3JIX0DqfnnbjaHzuWP7BjJOtXmM0/yexrNP9GsXEeqh3aO5x9o2DZam19l+kBLTS82XL7gqXZLb3D2TfmrdxSpuKPbNmBttkUvSfU+Ez6TL/7mO0f8mL6GgXS/JMkl32P5t+2Gygnlw2U4iPl9lqXrWuDIe+cy7/XO1RbQPUBNBMagACaRu9w9jpz/VghPwo3NjZK+u+Nk5KZg+X4PL62uX0euOPopwGFFMd5+tqx+mE9a7aUJL050PTfOVIs/D9m4SPUb6h2ZN9Qeqmb/VHyhZI6W3i4kyVfWCgUVvRWa0tOqm6ZwQx4eAPl+DuSfhZoeIfdPFx//Vj9MJMF9fivR34BM3B7i2le6Y6/raQw20wfkLShxUccy+ys3uH04xQfQLOgAQigKfQN194k+TcV5svRx2zvYdKyeiGeUyknn1h2oG2m8ju6H7Gg3uXkY7jZjfLCZxXOR04etKn3D5031e5mBv6n+atHHtc7nH7fzK5otxfoSyrIbV7khZW91eysBVU/gBnxMMeKQv0tCusO5n85UfmnFt7mO+3wWljhU931tICGdlfxnvjnzL4dMzjdtgyUktPq9Xi6pNMl1Vt8yB/uGc6+NpZ3xgLAeOFABSB4PdX0/S77Wosfs/4vj/zIgXJy3NIZdjNVHyP1wsWSgmmkmvSksXgMcv5w+kx3vTzQrF97UCk5m8n3oJot9z16h9Mv53n0B0kvVXu/hzmR+4K6Z0N9w+lpJy/3ycyQfzc4o7Nqpq8GGt7+6Ybs7Tt+eM5OCGodmF3EF6zHztJZdlelnLzd5UfIdXkrj9Xkb1q/Oq3MdS9QeQAhowEIIGh91fST5jqtVcfnsnUym1spJ89c0lW8hoqPrYGZtkHSpUGdeAuFHXt8zt3ycL8UKje9m8fW/6nfPeqp1k7Ok2yNpLdJisnKP+zk0vs3J+nynmr2EtLx7/I4/rikO4MMzvT+eSt9zx36EaawHv91Hv8dD4Pl4h8r3cmzze2Vkq1u2YG6zZtczS6Yu9yLVB1AqGgAAgj0Qsqtbzg73V0fbNERbnFTv5LC7EopvpCCj+M+NbDHgE12gty3+66X3tX1V0k6Msx1q+8PlpJfMuu2Oqm6Zcb64ewyc/uqWv/dpTuyKg4y94t7h9MfzBvy/cnHVoPT7R65fzTQ8HaNCtn7t/c/7hmuPUHS7IDG89dpt8aXM+vGz0B3fNHGtDDHXR9SQHfmj7FXTomz74/FI/IAMB5oAAIIsIng1jdc/4rLT2nREf6qoPyJg6Xko4PTbQsFH195XLhY0r0BTfCDe9dkT92e/3Kue0HuHws01Wk9r7+PGbf1GNZbrb0z8sKNMh1NQkbt2IJl1/UNZ68iFVtNvS35uqTlIcZm0inb+x7H0D7+YbJv9x9tGTNufC2bY7XB7uRThTybI+lHLXn4N70g3Zh9v2edd1JxAKGhAQggOD3V7AtufnILDu0vLjuhUk6edXa5YyWVboytTVb7blBB5bZdjwFPrqbzJM0KNNVfWzqrc7jd59uCtb53bzW7RG5fUGt/2Xe87OnyC/uGakt5N6DUf7Rlkez9gYbXWff6h7f1P3rgPWmvC2kgrvxcll7jnD1z0rpKOXmxmx0n6bYWHOJzLc2+w+PAAEJDAxBAUPqq6SdNekeLDcvN/Zx6PZ4zWI7Po8qNl7sHtrnz47f1EaG5y73oiv470BTfU6/HH2v3eda7Kn12PctukPQiVt2OHjTtxM1JdtWC4ZFZ7Z6LxeX4h5J+Emil5vet2tK9Lf/FlOH68yQF9Ki3ramUkitZdY03WIqXZZvjskmfUet9LfhFk4vZ906pegeVBhAKGoAAgtE3lPa34Dv//ij5Uwe6i/OWzrK7qPLEmF6OL5d0a0Ah7Zpuqr9yW/6DyUn6JpNPDzG/5vpEu8/vvuHaQkX6saS9WHFjZmZd0ZV91ey4dk+E1/P3KswGSexR9JFtGovynrCS6+fKzFluE+OcQ23TQDk5NY/8yTJd3VoLVy/c5Nk5/Zc7H38CEAQagACC0DOUvstNH2mhIaUm/b+pt8ZHVsrFK6jwxOo3y10K6+5L9/mj/aMnXuc7SxZoc9zW7hzFX2nXuXVK1Tt6h2vnuuwbkhJW25ib7O7n9wynH9uRj+c0u8FZHTdItjjQY8Br+oZqh47mT85f7nvI7GUhRV/P6zz+G4AlXcVrNnbFT5H0fkkt835kl+au37/+jXY+fgEIBw1AABOuZyh7rZk+10JDulHmTxkoJx/npeIBnfCCewxY/9WzZktpNH8wnpS9Q9LeYe799f4zSjbSjnNq/nLfY6NnP5HseFbY+M4yk/67r5p9u51frJ9Fhf9WUB80+pfDq9knRvMH8zg9XlJIj0RexbtLw7HMrF4pJ5+V5YdLuqp1RuZ9vdXsY1QYwISfsEkBgInUU02fZeaDLXI8ykz6zGSLj6iUitdS3bAMdBevk+mGgEIyywu9j7pG1vluJr070LT+rtJV+E47zqfe1X5gnmS/lfRfrK4GbaGluVbLftS3yqe04/jP6bK/mum0QMM7treaPvpaMOsNa045d/8FqFLqWDH11vhpbjpVUq1FhvXhnuHaKVQXwESiAQhgwvSsHHm8uS5SWHcDbCdbY66jB8rJqe16N1STNBDC2uzl6l14tT/iY6NRmp3q0u5BpjPSe9rx3Vk9KzdPU16/XFI3q6rRh1od7YXsF/NW+p7tOPwNtfgLkq0J9AD7iHcBzl898jhJTwwo4rqS5NssqjD1H23ZYCn5jNfzIyT9oTUOX/bFnuHslVQXwEShAQhgQvSu9gNViH4iabcmH0ou0+c3Tio8fqA7+TWVDfzi2+LzJOUB7Qb2yXatv/Dh/vXCFb6vS4HeMeDnV7qS37bbHJq3ckvZCvGvJZ/BipqoqacjCoXssoVD/ph2G/qyOVaT60OBhvf0vqHsYY9neT3qC2sa6eeD0+3PLKiwDc7quGFjGj/FTJ+S1OyvVSmY/Js9Q7UjqSyAiUADEEDD9azzTuXZd0zat8mHcodHenGllLxn2YG2mcqGr9Jlt8j1q6A2obk/7KY4K9Q/LGmnAFO5JcqSD7Tb/Jm3xg8qRNFPJe3PappwT0gtu+z49b57uw280h1/W1KQv3DKzU/rd/+P/UX/5R7LFNS7MiM3Hv9tEsvmWG2glHwocj9K8puafDiTZPb9eUPOeQRA4899pABAw6Xp2ZKa+refJv3ck/iQwa7kxxS0uXjk3wxsMr144Qr/j2Z43/CWg918QaDz/8uLZ9v6dpo384Z8/0K9frnMprKKgnFox0j2o5OX++Q2PJK9R5IHeGw4ZP1wfe6D//lN+9WPVVgfMrpfXriIJdRcFncXr0w8OdKlHzb5NeS+BcuWnVL1DqoKoJFoAAJoqL7h9L0mO6GJh1A310c3lOLn8+hQc0qVXCjp/oBCirMkO+k/9/dRv6RigCm8Iy7En26nOXNC1XeJLPuR5AezgoLzlC1xtqz/co/badCVcvEKyb8VZHDmH39wPcw8qMd/5f7dgZm2geXTfBZ1252DpfglLn+HmvsDIU/dqHQRFQXQSDQAATRMXzV9nkvN3Di4VabnDHQn/cvM6lS0OZ1bsvvk/t2w9qLqk7v9/f8+qToyx82ODzF/bt6/aIbd2y7zZeHVnhQ9u9CkQ1g9YXLTC9YfUP9a213EZ8kHJYX40anSTful//ja74K1vrekF4QUoJktYeU0MTMfLBe/LPkzm/qRYLd5vUO1t1JQAA27diAFABqhb5Xv565vSio058WmLpXFh1VKya+oZvPLZYOhbZh7V2fP/Pv/UVD0iTDXiq0u3puc1U5zpTal/jVJx7BqQt9I+4KeofRd7TTkxbNtvUtBNj7N7P/1rPNOScrT7PWSkoAmy80HleJfsGiaX6VcvMKT5DBJ323aQZh9/qTVtcOpJoBGoAEIYNz1u0ceZUsk7dWkQzh9ald8bKVkd1DN1rCkHP9CsrVB7QFyny9JPUO1I931shDz5q7/XnSEpe0yT3qqtZPNttYFzbCP1mf7qunz2mnMRY8/Kem+AEM7wLL0zZLkkU4K6jgmW9JvlrNiWsPgdLunUk5e9cAjwc1Y12KUR98+oeq7UE0A440GIIBxd3M1+5Ck5zZh6CPmdlKlnLydzULLdQpcHtbHQNzs1T3rfLfI7NOSLMCsXTetXLigXaZIT7X2FHP7AoulqRTcdV7Pys3T2mXAi7rtTpP+J8jg3D7YN5w+V67HB7X5yet8/bcFDZaLXza3YyU14SsqfEYxT8+iigDG/RxICgCMp76h9Oku/b8mDP02d3/GQHe8lCq2JrP6EoX1Fc1JUZotcuk5QW5PIp3aLo3w+ct9D3NbJokvNDafPa0Qn9dOHwXpTOMvyhXiR6ke49L5gcX064GZnUMsk9Y00B1fGkX500O7w3+UFyXH9Q3XeqgigPFEAxDAuDl5uU9283MkNdtG7CrL4yMHu4tXUcUW3iiUO9dKCuqdji7NDTRdvxzsSn7cLnMjL6ZnSjqAVdK0nnrzftmH22WwZ86xjSb/RKDh7RlSMGY+yPJobYu7Om6s1wtPkuvyZovdZafPX+FTqSKA8UIDEMC42Vysf1qyaU12+XXexknxfw3MtNuoYBvw4D4GEmSW3PwD7TLYvuFaj9xeQ9mbfWnrQyetSo9ql/HGG5JFkq2h8o9ok+rJBaSh9S2dZXclG+Lnm9uZTRb6lHqcLZK7UUUA44GDC4Dx2URX06e669dqrl80nF4pxe+QmVPB9nDidb5zPCm7XdIUsvGwvlspJ69qh4EuXOH7pnG2QtJulL0lVDdOig9ddqBtbofB9g5nr5P8PMr+cLseX1opFU8iEe2lZ7j2dpN9sZn2vW4+f7BUHKB6AMYadwACGHOnVL3DXYub6Bjjbjq1Uk7eTvOvvZxzqG2SbBmZeFh1Wf7f7TLYLMnOFM2/VlKasqV9HgWulArnS7qWsj/c0cyWkIT288DHQXokZc0Ss7l9YUHVeQ0FgDFHAxDAmNuo7COSZjXLnt/kfYOl5DNUrj25806oR9iGLKmUOla0w0h7qtlcd72cmrfa+tZ7560aOaQ9lqu5TB+k6g85EdZP7Y5/SSLa00B3vNTd5kra0iQh71r37HQqB2Cs0QAEMKbmr97SJde7miTcLWb2qoFycZDKta/BcvxrSVUy8Z/rQ1Ghvx0GOvcWn2R5/jlK3pKSuBCd2S7v1KqUkp/I9AvK/u9MNtguXzHHw5zru+PvuemFku5rkpBf0TOcHkPlAIwlGoAAxlSeF74gqaMJQr03kp4/UIovpmrtvjM0l3Q2iXhwWnRmpctuaYexTrk/e7/M+PJii3LXUb2r669ql/FGuX9AEq+z+JdLkyyOeZ8aNFhKfinzoyX9tSnOw9IX+y/3mMoBGLNrBFIAYKz0DafPlfSSJgj1fne9ZHE5+V+qBkkqxPESSSmZ+Id7syz+VDsMdN6Q7++m91LyFuf5506pekc7DHVxd/FKl75L0R9g+snSGXYziYAkVUrFay2vP1PSX5og3Dk37Z++maoBGCs0AAGMiYVXe+LSl5sg1M1uevFgd/J/VA1/d/bB9hdJ3ycT//A/S2fZXW1xIWT1D0vaiZK3Opu2MU/f0DYX+Hn9Q2qijx6MJ3fjDm/8m4GZnUOR+Qsl3RP8kUvWP2+l70nVAIzJ9QEpADAW0inpSZJmBx5mLZLNHSwlv6Ri+I+LbNNZZEGS9FfL4y+3w0Dnr/CpJu+j5O3BzT648DZvi2bvwMzOITOrUHX9pXhf4QekAQ+2uFT8g+QvkLQh8FD3iKLsPVQMwFigAQhghy282hO3KPQvD2bm9trF5fiHVAwP5aCu+DLJ1rZ9Itw/PjDTNrTDUPOk/mFJRWZ/ezBp33RT+sZ2GW+WFz6q5vnq6XjVfHDREcbrHfCQKuXiFTK9RNL9Qc9j01t7q74XFQOwo2gAAtjxTcau6TyTTw95n++ykwa644uoFh5Ov1ku9zZ/VMxvnhwlbXEn5IK1vrfcX8/Mb7cpbu+eu9zboum7tNtulbSonaudF+qLmfR4JJVS8iszvULSSMBhTpZzFyCAHUcDEMAOWXi1J+5h3/1n0qmD5fg8qoVH3S0W44ra+2MgnzqjZCPtMNC8nr1NUiezvu3sP7lYP65tjmlJ/GkFfnfT+A1evxyc0VllyuPRDJSSn7rZiQr769lvOXG1P5ZqAdgRNAAB7JBsl/QEyQ8ONkDzpQPl5HNUCqMxON3+LKlN3xflN21Mk7Z4Z9jC23wnd72RGd+m3N/VTsc0M329LetsxntdMfq1UoqXyXRawCHunHj2dioFYEfQAASwo1fYbw04uN9NVrKQGmGbegNRm34MxPXJZXOs1g5DzTamx0niq4rt67D5Q7Untctg4zz+tKSNbVbjuzwp8NoPbJNKV/whuV8Q7GnatbBnnXPnOoDtRgMQwHbrG0qf7tLhgYZ3m+Xxq9vlcUaMnWkz4p9KflN7jdpv2pglS9tmtG5vYKa3N4+iBe0y1kXddqekM9uqvtI5g9NtCzMd28TMJ2XJfEnXBRrhY6xWfw2FArC9aAAC2IELJX9LoJFtcvmLB2babRQJ26rfLJes3V4c/7F2ufuvtzoyW6anMdPbm7u/7uTlPrldxpt4/DlJG9qmvpafzSzH9jhzjm2Msvhlkv4a5u7d30qVAGz3IYQUANgefat8P5e9KtCd3TsGy8U/UiVsL8vjAbXNx0Bs9dRbk3Pa6NKHL/9CkiZvLtZf3i6DXdRtd5rpjDYZ7v8tKXUsZ4pjey2ebetlmqcQPwriOqKnWnsKVQKwXVfBpADAdl1/RNnrJSUBhnZxpbvIb/6xQx64e/T7bbGWTR/rP9qy9jl42VxmOLbOBT+unYabx/HnJN3T+mW1M5nc2FGVUvITt0DnkkcnUSEA24MGIIDt9doAY7rTk5gve2JMWNQW78yqTvtT4VvtUtO+VbUjJO9iduMBz5+/3Pdol8EOTrd75Dq9xYd5x5SIj39gjMSF90gK7m5Skx83d7kXKRCAbUUDEMB2bKK3dEs6LLjAzN48ON3+TIUwFga6kssl3djKY3RZfzvd/eeRvZyZjX9RrCf1F7TTgJM4/oJJd7fwEBfx8S+MlcHptkXm8xTeK0H22DmuP5cKAdhWNAABbPsmulAI8AtkVqmU4gupDsZ2svs3Wnh0KzeVCt9us4q+kEmNfztzWP78dhrvohl2r6Qvtujw6lEWn8WsxliqlIrXyvSJ4I5dyl9HdQBsKxqAALadK7T3Jt0ZpYX3UBiMtVqULFWLfjnT3T62zKzeLrXsWef7KMQ7lzHBC8Fe2O/eVtfDIxZ/WdJdLTi0Hy6ebeuZ1Bhryb3xpyWtDCoos5fxGDCAbUUDEMA2mTfk+0uaE9YGzj+weI79jepgrJ1bsvsk+2YLDm35tHLhgnaqpWX150oyZjUeZK9bVqeHtttxzV1faL1FLj7+gXGx6AhLc9cpgYU1ZZck42vAALYJDUAA26Rg6fMCC+mPU8vJAJXBePF6/WstNyazj/ab5e1VSD2d2YyHUm/DubFTFp8u6Y7WGZGtntoV/4zZjPGypDv5uVzfDymmXHoelQGwLWgAAthWx4R1ELMPt10jAw01OKvjBpf+t1XG49L107oK32m7Qpo/jdmMh5wapqPabcxnzrGNkv6ndUbk3+BaAON+zVnIPywpmHnmgV2TA2iC4xgpADBaW9+TZCF9dex3i8vxD6kMxr1B4NYyj5ZFZp9st43ywjW+qzywVxcgHG5HteOwLY+/JqkVXp+xuV6PK0xkjLfFXR03uvxbwaxh6fD5y30PKgNg1PsAUgBgtG4arpUl7RXMhY/ZaVQFjZBsKHxX0m0tsOVfs6EN7/6r17NDuebBIzjgxNX+2HYb9MBM2+Cm01vguHb+0ll2F9MYjVCI/DRJHko4HtefTFUAjBYXwwC25TrjCcFc7puGD+oqXEJN0AiLjrDUpcXNPg63/FPt9OXfv8vdD2EW45HEWfa4dhx3rRifLum+pt7MeP51ZjAaZXFXx42SLgvnvO5PpCoARn3OJAUARsvMDwsnGv8a7/tBI+Uef0NS2rwj8Fs21ZJvtmXxLHo8MxiPOEUK7dkkPm+q3W1SM3/o6PeLu4tXMoPR4AvirwZzZpcOoyAARosGIIBtEcpvGbM8Ts6nHGikpd12q+QXNvEQ/mfZHKu1Y+1cPpMZjEecIx617RxJo/gLku5vzrrZl5m9aLSpfyr8UK4/hxGNcQcggFGjAQhgW4Ryh8RPB6fbnykHJkCzbjb/mkxOzm7Xopl8OlMXj8TbeI6c02V/ldSMx4fbihva8IvmmHD9R1sm0wWBnN+mLVzju1IVAKNBAxDAqJx4ne8sKYiXpLv796gIJkKlXLxC0u+bLW53fXnRfnZ/O9Zs4dWeSLYfsxePeEFsmtbO4y9Y/DlJI00W9pmLjrCU2YuJkLsuDiQU25LWplIRAKO63iEFAEa1OeisHRhIKJ4r+REVwYRNwOZ75OzeYhx/tV3rle0ycqCkAjMXj7yuNVXu1q7jP7tkfzKzpU0U8hZZvIiZi4lyfxb/nwL5gE4hKhxERQCMBg1AAKNiURTKbxdXb30XGzAxpt1WuFDyW5pm7Zq+umiG3duu9fKosA+zFqPQcfzN2q2tM+DZaZKyJjmynVcp2R1MW0yUZXOsZq7fBrF0LacBCGBUaAACGN3FRe5hXFy4X0E1MJH6j7ZMbs3y1cwteRyf0dbHLrc9mbUYjUnpSFvPlYFy51q5N8UHtvIoP5MZiwCEcU2a24GUAsBo0AAEMEq2Vxhh2HXUAhOtnseL1ARfzTTZWe3+wRzz/DHMWIxqXXvU9nOlYP4pSXnIMbr0v0u6itcwYzHhczGyP4RxaWx7Uw0Ao0EDEMAoLy60UxgX/raWamCiLZ1ld0n2zcDDTC0rfJ5qaQopwKjOc7K2/5Lm2eWOlS5dFHilvsxsRQjq9fq6MJZEvhPVADAaNAABjI4H0gCM8vUUAyHIrX66JA94k/zNxbON9SLrJAcY3WnOimRBKph/Mthjm/v6TaXC96kSQlAvFG8KY10YDUAAo0IDEMAory1sUhBbecvvoxoIwZJSx3JJlwUaXm559hmqJEmiqYPRnV+kDrIgLS4V/yDp0iBrZPbVZWZ1qoQQnNulDQrgkXmTaAACGBUagABGeXGRB9EAzLOO+6kGwjmJhvkomknfGZjZOUSFJLkSkoBRrhsagH9fNmZfD/OYm19CdRDOQcNc0uaJP83RAAQw2vMoAIzm4sKjLIiDVr6FzTxCWhkbAg3sBmrzQIWisD9ogIDmSq6MLGxl0ktDjCtT9Dqqg8AUg1gaADCavTQpADCqzUA08b/hlCSPo52pBkKRS+8IMS6X3rrwNueOAEmWq0YWMMp1M0IWpAVVP0Du84Jcz9KbetY57/VEEObe4pOkib/L3FybqAaA0aABCGCUOyMP4tHbgkWPpRgIwfwVPlWB3iUj6bHpxnQBVaKpg21Cs1hS7vX3Kdx3Z+5lacpdgAjCrpu27BPEec7E63EAjAoNQACjYh7GHYByP5hqIIhNcpKdIqkQ8Kp97ylVb/t3mkXmbIwwurlS8M3tnoMFa31vlwf+ywN7l9yNGYsJvw6I4hlhXKM7dwACGN21DikAMBoe+b1BXGy5dVMNTLQTr/OdzdUXeJgHbMjTeW1fLIv+xozFqM4vaX5nu+egnmXvkjQp8DAf17M6+y9mLCb8mCGfFciWfgPVADCqowUpADAaruhPQezlpSdRDUy0wk7pSS7tHnqcZtGp/Zd73NbHrrrfyYzFaBS92NZzZf5y30PSm5tkA/N2ZiwCuCZ9ahgLwm+hGgBGef4EgFFc5Hh+cyChHLHwaudLwJg47mZub22SYA9ef0D9te1crrq4qwuj05Gore8WrRezUyRNaY7DsF6yYNXm6cxaTLAwGoAyGoAARoUGIIBRSbIklAbgzunk7BlUBBOlZ032fEmzmiZg9//f3n3HyVVX/x9/nzt3Zjek0EVpIZDZTUFQqgVF7CA2ZFFBws4mRkGx+7Prir18bfhFiWR3kwiWWMACFhQFUdHQSbI7k0INovTUnXvnnt8fiX5RKSm7s5+ZeT0fDx4+hJTzOedz7+d+zt7ywV731l3vvXAXsxZb4e/nFq1lPxiz5bUGb22gkHM1i89m2mKslCrDMyQ7IIhgMr+NigDYGjQAAWyVvafrHoXyNU3TiVQEYzb9XG9rsJCn316pvbpV67Vwut0n6WFmLh6PS7e28vjjcelbJO3RWCdj9fQM+kRmL8bmWiB6WTCx1GLuAASwVWgAAtgqvWaZTOVALvq7utxzVAX11r1yU1GulzRa3C7/cCt/NbPVmzvYimXFfHXLntdWe7tL72jA0HfOoqSb2YsxWldCeb3Guv2miwYggK1CAxDAtlzuXB9IIPvuVE6fRz1Q90Uzjd/RoGvn03rKtZe2at1MWsnsxePPEWvdOZIkbzTpKY1Zt+htLf2KA4yJ2SuGD5Z0WCDh3NBrllEVAFu1lyEFALaWu64LJZac+Rwqgnqau9J3dvNZDXv8yj/cuicv3cwMxuNOkcxuasVxdy31gknvbeDKTb2jUjueGYz6ni9yc4MJxuwGKgJga9EABLDVcrJQ7gCUy06etdL3pyqolzRLSpImNOwATM/qriTPa82rHaMBiCeYI7WWnCMT4mSWZPs18hgy+VlMYNTLqbf5ri4vBbO0e3YtVQGw1Zc7pADA1tpk8Q2SaoGEE+ey9G1UBXXhbu72poZf9F0teRegR+mNTGI8juH8Q4VKqw26yz0ni97XBEN5aU9504FMY9RD26b0zQroh4Fp5tdRFQBbvRcgBQC21oVFe1jSknB29Xpz92p/MpXBaCsNpcdJmtbo43DpBd2V6jNarX4DB7atkHQvMxmPxkxL5h1hSauNe3yl9lrJpzbDfiZT7s3MZIy20yo+SaZ3BxTS3xd2FrjDHcDWL5ikAMA2+nVI+5coqX2QkmC0eaTmecTMrfXuAjRzSX9mJuNRDwnX1a025i73nDXRe0FN6um6w8cxmzGa2rL0XZJ2D+js9Zst6xsAbBUagAC2daP0q6Dikc/tXrmpSGUwWnoGfW+TXtlEG+WXzR6qHtV6Jy/9kdmMRz0mzFquAThxRe11kqY30ZB2n7gxeS2zGaN5LeCmdwUW1q+pDIBtQQMQwDY5YE38J0kPBxRSm2q5r1MZjF53IJ0rKW6mIWWR9bZcGSP9jsmMR1Gzau4PrTTgLvece/N9FdxlZzOdMXrrZvJ5SRPD2snnL6cyALbptEEKAGyL3uMsNemXQW3spRd3D6WvojoY8fl+hcduemPTDcx1fGlF8qxWquXaqfFfJN3HrMZ/HAvXzJ9p97fSkMevqJ2qJnin6aM4rHuoeiSTGiOtVEmONdmpgYV1ff9Uu4PqANgWNAABbLNM9t3QYjLzeXNW+V5UByPp1n1rr5a0d5MeyL2tVMvFZjWZc7cE/mPt0C9aabxd7jlz/1DzFjQ6i1mNkXTWUp8gtwskWWChXUR1AGwrGoAAtl0+d6mkhwKLas9akp5PcTCie8nMz2zi4b2oVEmObbHLnp8xq/FIbv7zVhrvxEpyuqTOpj1ny19fqviezGyMlA352rkBfi3bozReTHUAbPOVMCkAsK0GptgmyS8O8Mr/laVytUSFMBK6h4anyfS8ph6k65OtVFOr5S6RtJHZjS0zYmV/sXBdq4y2yz0nsw80+TDbzNNu5jZG5jogfZXJQ5xPf5g/w26jQgC2FQ1AANu3bTIL9NED++qcwY1TqBB2fI5HZyq8R35G2jGlweT5rVLTvmm21iysd5hiLPl3W2m041ckZ7iro+mrKntzrzt7HOyQucv8KWb+rSCvT+Q8/gtgu7A4Atgu+0+NL5dsRYChTcxy8aK5SzxPlbDdF/5rfCdJs1rkSuDjrVTbLLPvMcMhSbUs+37LnNOWeF4efbg1RusH3royfTEzHNur1z1K4rRf0h4BhrdWWf5CqgSKScCMAABubElEQVRg+y77AWB7Lo7MMll2XpCX/q5nJ5Nq36RK2F7JuuS1knZpkeEe011OXtQyxS3kLpZ0P7O8xZmWLJzWdlOrDLc6Mek2eevcHZ9pDpMc2+vWSvpZSS8J89RlA33TbC1VArA9aAAC2G4e5/slrQ80up7ucvVsqoTtvMR+Y0uN1vRpuVsrjHXzO0z1beZ4ix/h7vNbZaxzl3heFn2gpeorvbJn0PdmpmNbdVfS0016b6iX3pnXzqNKALYXDUAAO7KRflCyYDfSJvty91B6ApXCtphTHp4u6ZktNWjXEd3l2vEtc/ETZd9ipre09XEu/51WGWw6KZndUnf/bRYrl85iqmNblFYkzzL3kNeHywc62wapFIDtvgYmBQB2qG/gta9IqgUaXs7ML+wZ3NRJpbDVm2VFc1tx3Bb5x1vlLsD5U9tukem3zPYWZdY/7yB7qBWGenbF21z6YGten9icVjmnYcfNXuaTlelHktrCPXfpf6gUgB1BAxDADhnobBv0sL+kuItyuZ+UKr4n1cIT6V7t7Sad3pKDdx3Rs6L28pYZbmZspFpTLVP6lVYZ7FolsyXbrzVL7Qf1VNIXMOXxROau9J2zOL1E0l4Bh/mn/mKer9gD2CE0AAHsuFz2cUlpsFsAV4d7evnspb4bxcLjSmonSdq9VYfv7r0t8y7AjtxlkpYx6VvOjxcU21e2wkDPrnibuX2glYvt7m9kyuPxzF3jO1Vr6U8kHRp0oKaPUy0AO4oGIIAd30gf1F5x+ffCvm7SIVk+vbRn0CdSMTzmPHFv9S9HPr27Unt1axTb3GWfYta3FHd5y9R8rSdvlrRva5/U7VWnr/AnMfXxaLru8HHJ+vSnJj038FC5+w/AiKABCGBkTiZZ9gkFfBfgFkd7lP507hrfiYrhP3Wv3FSU6XmtngeTf7LLPdcKYz2gmPuuSzcx+1vGDwc6Cje0wkB7Bn2iyT5IyVXIZ+kZpAH/qWupFyZsTH8g1/NDj9Wlj1ExACOyZycFAEZC37T2IZN9owFCPTZZl17SvdrbqRoeyWq5OZJ4Ybw0feKKpLsVBtprlkWycyh5S8gyy3pb54SWvlsSd75Jctmb+BgIHqnLPTchThZJOqEBwv3ZQEf+11QNwEigAQhg5PYbSa5X0n0NEOoLLUm/f3bF26gaJGnuEs9L4i6Rf26Y3Xq77vBxrTDWvo74h5KuoupNvj6ZzV9QbFvaEuezId/DTe+i6v86ox3UvSI9ljxAknqv8HhCJVkks1MaINzEstp7qBqAkUIDEMCImT/T7nfzjzZIuC9fl6WXnVbxSVQO6aTaKxT21//qbd+JG9O3tszFkPnbJWWUvWmtzeLcR1tlsInSD0rifbePYHwMBNr8zr/b9kl/JNnrGyJg19f7prUPUTkAI3bNSwoAjKT1U/PnN8w7tUzHtXn6W14QDjefTRb+c9+h93ev9l1aYazzi4XrXbaQqjcnc318YIr9rRXGOmul7y/TmVT9v2bBSafe5ruSh9Y1d6XvPGFj+ktJL2+QkP/hhZhXVAAYUTQAAYyoxWY1z3SWGuRuGpcOz3t6VffyjQdQvdbUM+h7y/ViMvFfdlM1fV+rDDar5d4j6e+Uvbm4dFO8Nv5aq4w3V6v1SuIdt/+tva2avI40tKbu1f7kpJb+TtJzGubcZfbugSn2INUDMJJoAAIYcQum5a+WdG7DXGS5OpSL/9gzVD2U6rWgXDpLUo5E/DczvX1OxfdthbEunG73yezdVL2pZJHpzfOOsKQVBtszuKlT8tMp+2Ot9dZNFlpP9/KNB1iSXinpaQ0U9qUDxXgR1QMw0mgAAhgV6cb4Q5KtapR4TXqKm/22eyh5DtVrtU2hZpGFxzSu5rWPtMpg+4vxtyVdStmbhOnLfcX8n1rmXBblPi0ppvCPuc4fdUZleCaZaB3d5erTlIv/KKnYQGE/nLP4TVQPwGigAQhgVCw61NZvea+aN1DYu5nptz1D1bdQwdZQKlePljSdTDwenz2nPNwyOUqjuCTpHure8Jaua49bpnndPVQ9UtKrKfsTbHw86iYLLbK+V9KTTfYHk57SUCuu+3suKNqdVBDAqKyDpADAaBko5n8n2TcbLOzYzb5eKidf7b3CuZOi+ZfBM8jBE8rVFLXMi8gXTbW/m1tJjfXDC/y7TbUsO3XxfraxVQZskX1WkoUXmd8RWECnz13ieQ6RJuZuPUNJr9y/L2l8Q4Uu/WqgI38BRQQwajsfUgBgNK0bl3u3pFsaMPS33bZPehlfDWxe3au93eRBvRTe3EN9589rZg9Vj2qVudHXGV9msq9zlDRsB+AdC6e13dQqo+0uJy+S6/kBhnanTK8KLKa90p1rx3OMNKfTb/Tx3ZV0sZs+piAb4o/rHuXjM2TGD58AjBoagABG1eL9bKMse62kDQ0Y/gvbhmt/5Z1BzcmqtVe6FFKDd2NWyL9NpstCTFdm9vlWmh/xw7l3S7qKI6XBuH+7v6NwfguN10z6RJDnWPkn+ouF6yT9KayUeTcHSvOZU/F98+PS35v0mkY8kiWbMzDF/kYlAYwmGoAARl1/sW2Z3N/eoLurgyKPru6upC+nks22AnpYj/+6/3Bgij0YyT+kMB8/PbZUSV7SKtNj3hGWWBa/Ti42ZI3j+nU75ee20oC7V9ROlnR0eJHZivjhfL8kuXlojzSeWKr4nhwuTXQcVJLn1Ty9zqXDG3QIX+jviH9GJQGM+vaHFACoh/7OwgUy/16Dhr+zuV9SGkq+1LXUC1Sz8fUM+t5yvTiooNz6JWl+sXC9zL8fZOJcn+l1b5lrh75ptsbcXy5pPUdN2Fy6u5aLX9VK7/3rvcJjc/9EoPX42LwjLJGknar570taG1B4eSl5A0dNExwD7lFPOfmIuS6X1KhN3WvyD8cfppoA6oEGIIC6GVfNz1Fjvg9Qkkymd07Ip3+YM7hxCtVs8GZBlL5BUi6giG6d3Bn/7p//r5ZmH5WUBpi6p99Wqb22leZK37TCEsleJ6nGkROsDTn3Vy08yG5vpUHfvk/SI6kzuPOrdNMBxdx3//n/z5tp62QW1A8A3a2bw6axda/2J9+2Iv21S+eEtZ5v08Hyt5zFJ/+zWQ4Ao40GIIC6OW+mrTPVXinpvgYexpG1KL6+VElPpqINLajHf81tQa9Z9s//v3B6e9ls8x2B4ck+3b3a21tpsvR3xD9z+bs5bIKUuFvX/M7CX1pp0D2DPtHdPh5kcGYffuT5TJJc2fygQpQOKVWqh3H4NKbucvIiS9IbAv34zdaqZq6TLyjanVQUQL3QAARQV30d7asy12sV5t1NW2tnuS/uGaounLvGd6KqjeWMFdXDJc0IKCSX1Rb+17+t5XolBfg4ox0Qpek7Wm3eDHQUvmrSRzmCglJzt1kDnfGlrTZwj9L3yfTk4OKS/jIwNfdf7zIbKBb+LGlpUGcy2WkcQo2lyz3XM5T0mvQLSXs18lhMfvaCafmrqSqAeqIBCKDuFnTmf+Py9zT8Bszs9GRdenWpMjyDqjaOnNupge0CrujraF/1n/+6b5qtkem8IOe+6wNzVvlerTZ3+jrynzDpcxxFgUxD87kDnfF3W23gcyq+r6R3BrmxiPR+mT36R4zMg7oLMHO9vss9x6HUGGYv88kTKukVbvpYo+9hze28vo7CPKoKoO7rNCkAMBYGOgpflez8JhjK0+TRtaVy8h42EuHrcs+563WBbQUe81HffBZ/VtLDAaZyUi2tndOKc6ivI/9+N72fo2lM1dx8zkCx0NeSg1fyKUkh3n1+ed/U/BWP/Z/z35ZUDebMKz1l4or0BRxO4SsNVedkcXqTpOc0+ljM9Yt4be4dVBXAWKABCGDMrCvm3iLpR00wlHZJX5hQSf/QM7ipk8qGa2IlPU7S3gGF9HB+fO4xj4F5nXavub4cZjZ99qzB4UNacR4NFPOfowk4Zqpu9vpWbf51l6tPk1uQX7B184883n/vL9o/JP0kqJjlPAYc8nxf7U8ulZNLZPYtSZMafTwmXduexl189APAWKEBCGDMLDarrRsXv0HSH5pkSM/wKHd9dyV5X68759cAZcG988m+O29v2/B4v6I9jb8o6e8BpjOXy0VfbtW5NFDMf07yN6ux32faaNbK9IqBYry4VRNgsi8Eev3+4y3v+XtcHimox4Dl9pqzlvoEDq3wdFfSLkvSWyS9ohnG47LVWT4+8byZto7qAhgrbFABjKnF+9nGWi1+laTlTTKkceb67O0r0itnr9g0lQoHtJlY7e0mf3VYe8/sCb/0e95MW+ce6HvnXM+fXU5f1qpzqr+jcL5LJyjMx7SbzZrI/Nj+Yv6XrZqAnkr6CkkvDDC0zNy36ovEBxwU/0rutwUU+/gN+dorOLzCcfoKf1KpnPzQ3L8vafcmGdZ9UZYePzDF/kaFAYwlGoAAxtzC6XZflMbHS35Hs4zJXc/Ostx1pUr1TO4GDGTBS2uvkLRzQCENbs0dM5KkQnxeqMdHJv9i7xUet+q8GujI/9rcn+uy1Rxlo3Q+lf5S8/io+cXC9a2ag94rPHb3IH8QYO4X9nUWbtyqcZhlki0IKn7zN3CUhaFUTl8fZ+lSSSc10bDWuvmJfdPah6gwgDHfD5ECACGYP8Nui6Ls+ZLWNNGwJsrtvNsq6V+7h6pHUuUxbiJ4cO966t/aXzgwxTbJFepHN6bdtnfy5laeW32dhRtzSe4Ic/2CI21kmfui9ePi5y3stLtaOQ9bjrFpAYaW1KLs49vyGzxL+yVl4SwOelErftU8JGdUNh3UM5RcJvlFkvZooqFtcNMrtvqHfQAwymgAAgjG/KntK9yzF0i6p8mGdpiZ/bGnkvwP7xoaG7OX+m6SXhpQSGk+jRdty2+YvCY/ICnMOwjMek+9zXdt6fPXTLt//474Zeb6uKQaR90OW2fyUl9nYdbi/WxjKydi7krfWWYfDTM6u2BBsX3ltvyOgenjbpX0m4AGEdfS5LUccvV3dsXbesrJRyLP3eIW1Bo9EjZmrlcMFPO/o9IAQkEDEEBQBjrbBqMoe6Gke5tsaLG73rUxnyzrHkpfRaXrK8snXZIKAYX0q3kz7O5t+Q29x1lqwTYBtHt7Nf1wq8+zXrOsrzPfK/mzJVvJkbedTEtqtdrhfR2FAZIhpbX0A5L2DDC0jZblPrl9NbaFgU06HgOus54VyXHrPL3BpXMktTfZ8IY90kkLOvO/odIAQkIDEEBw5k9tu8XlL5J0XxPubPcz8x+Xyskls1b6/lS7bnkP6vFfl124Pb+vb2pusaQg34Pmrrfy4ZvN+jsK1+RzucMl65PkZGSrVeU6J/9Q/KyF09vLpEOavcwnu/T2II956et902y7Xtsxrpq7WNL6gIZzZM/gpk5m3OgrVXzPUqW6wDP9RmE+1r6jht2sa2BqnldCAAgODUAAQRroKNwQRdnzXLq7SYf4ilwtXVYaSj7Qvdrbqfjo2dJoPSagkNbXNuYu2a7faebm9qFAU13IstznmXGbzTvIHurviGe761iF+uh2WK6T+TP7O/Mfm3eEJaRjsyxOPq0w7456KKvF2/1RkvNm2jqXXxzUiCz3embc6Om9wuNSpXqmPB2U2yxJ1oTD3GCmVwwU459ScQAhogEIIFjzp7bdkotqz5X81iYd4niZPm1Jsrynkp4id6PqIy9O066QNhouv3jRobbdd770dcaXSfp9oOl+damSHMus+z8Dnfmr1o2Ln+6mXkkbyMh/+YfJ3zS5GB/ZXyxcRzr+z+yh6lGSBdmUctfnF063HbtLP7JvBzUm0ynMutFRqiQvuW2f9Aa5nSdptyYd5sPuemlfMf8rKg4gVDQAAQRt/tT2FYryz1VT30FjB7j790qV9MqeweoRVH1kZaFt6jy6aIdnTObvUaiPlrq+1OvO9cUjLN7PNg4U8x9XFE/b8pVLHguWqmb6Uj4XF/s6CvN6zTJS8sjjyM0j+5LCvEvqrsLE+Cs7+occcEd8ucL66Nf0WYPDhzD5Rs6c8vD0Ujn5uTZ/IX1mEw/1fnd/4UBn/iqqDiBkXKADCF7/VLsjF8fHSrqxyYd6jEd2TalcHZg15PtQ+R3XvXzjASYdGVBI/yiszf16R/+QvmmFJZJ/J9C0H3Z7JZnD7Hv0c1l/R+G0zLKnmrRYrdkITMx9UWa1GX3F/LvnHWQPMTP+W2lF7TR3PTvE2Mz8Y/P2th2+m7X3OEslfTekscW5iK8Bj4BZy333UiU9t6boRkknNPVgXX/zWva8gc7CX6k8gNDRAATQEC440O4Zl8THyHRZ85+X7YycpeWecvLZs5b6BKq/I7u5+LUK6Q4as++N1PvNcpZ/n6SNYe6H7DNzh3wPJuCjW1BsW9rXkT/F3Y+W9CNJrXD32yYz+1Zmtel9nYVZC4rtfCX5MfQM+kS5fy7Q8Jbvf2d+wYidK9wvDGlw7vY6Xsex/eYu8XxPuTo3l0uXy/2tkvLNPWJbEeVqzxmY3nYz1QfQIBtNAGgM5820deuq8atkvrAFhruTS+/bmE+X95Src+cu8TwzYDsuzaWTw4rHLxqpP+uCot3p0tcDTf1uVat9ghn4+AY6C3/t78i/Jopqnbb53VjrmnCYf5f0yVwcH9BXjOfS+HtiWZR+RNLegZ5V/9+WO/dG7BiQNBjO+PzAM1YmhzELt02ve1Qqp69PJqVLXXa+pD1bYNhXRUnu6PlT21cwAwA00N4IABqMu/WU04+56aOtcx7zW036zNpifv5isxqT4In1lDcd6MqtCGeO2Kr+Ym6qzEbssc/u1b6LJWlFUoh322Xu/gwei9p6XXf4uPGbaiea+1xJL2zgoWSSfmtui9bulFu8eD/bSHW3zuwVm6ZmWe4WSW0Bhvf7/o7880b6Dy2Vkw9LCuYHBi59YaAj//+YjVu71iYvdOlzklqpcfqjdePiN3BuA9BouAMQQOMx877OfK+bz5GUtsigD3DZ+eMr6XXdlfTlTIKtSVnuFAXVIPaLRrL5J0kDU+xBl38y1GsMM/sqj9Ntvc0fC4kX93fkX5TL0gPd9H5JyxpoCMvM9XFTrdjfkX9RX2e8kA3ytsmy3NcVZvPP3f29o/EH57L0QgX0PkxzP4Xz1hMrDSbPL5WTP7n0a7VQ889MX5pcjLs4twFoyHMYKQDQyLqHkueY6QeSntRiQ78mc31oQWf+N8yCx9iclJPrJD09mI29ZQcvKLYtHek/d+4SzyeT0qWSimFeaHipr6MwwIzcfnPKw9NTj44300slPVfhNIjWSrrc5L/wKH9Z/1S7g2rtwDmrkr5S7hcHehx/t6+j8PpRPF9fJemYUMbr5s8cKBb+zKz8b7OHqkdlZh+RdGKLDT2V+zv7OwtfZxYAaFQ0AAE0vJ7ypgPdchfL9dQWHP6vJf9If0fhGmbC/+leualotVw5oJCu6+/IHz6KjYOT5b440HLc4/l42sAUe5CZuePmrvGdkvXpkXIdI+lZ2vyV6zq9b8vvkOyvMv9DlOnq3Nr89SP1UZuWP2et9nZLakslPzDA8KqZ1WaM5vsbS+XqmyT7ZigDdukrAx35dzIzHzFHlw8/1aLoEzK9ogX3kH9318kDnfmrmAkAGhkNQABN4aylPmFjPl0o6dWtOH6XfpWTPjW/I38ls0HqHko+aKZPBbPYut7T15n/n9GbAG49K9Kr3PXsQEvytf6O/NuZmaNjzirfK0vTp7p8hmQHSpoi0xS59pK0u6TcVv5RVZfui6Q1mXSrSatlvsozu0WF+GaauKOnp5x8xKVzAl1fRr0ZNnup75bl07slFQIZ9l2Ti/H+vWZZq8/N7qHqkSb7UIs2/iTpxiiNXzl/ht3GmQpAo6MBCKB5uFupnPbK9JEWPr9dJdOn+ov5X7byVCiVkxskHRpIOJll8X5902zNqG/SzP6sMN/vm3otO2xgetvNnKjqb/ZS383zw7tkbgXP2fh/uxC07OE48TRT+71902wt2aq/WSt9/1wtXS5ppwDDu3+4LZ560WR7YLT/op5K8mN3vSqYTZLrOX2d+T+07DpaSY511wdNenHLXlZKP6xtjM9YdKit50wFoBnQAATQfBet5fREyRdI2q2F03CjuX1pbUfuwlb7avCWr2hWAlpof9PXka/LF127y2m/ybsDLc0f+ovxc0f6QyhA469ZyWJJJ4cZnb+9v6PwtbrkIbRXGbi+3N+Zf1erzceeoeQYmXpdekELH5apuT61f0d8DneBAmgmfAUYQNPp74h/lsvSI0y6toXTcKibL5hQSW8oldPXd7nnWmXgWZZ7VVDbZ/fv1uvvKqS5D2rzhxlCdEx3pfZ6AfiX0mDyfAXb/NNQ/uH8N+p2roxzPwvr/OUntcrXgHvdo+5yelKpnFzrpqtavPl3l7mO6+vM99L8A9BsaAACaEoXTBu3erzFz5bsGy2eioMlv2hCJV3eU66+ee4a36nZB2wWziNkktJalv9xvf6yeTPsbrk+E2xt5F/oGfSJnKEAqfcKjxXpa8Eer2b/r54feRmYYpsk/1lACZh8xsrksGaeg92rvb2nUp19WyW92eQ/lHRYix+Wl6dRfFgrP/oNoLnRAATQtM4t2nB/R3yWZKdKWtfi6Si67BvJuvT2Ujn55Nxl/pQm3cw82V3PDCikKxZOt/vq+Rd6If6yZKsCLdHeWZR+hLMTIN26T/IWSTODDM70275i/JO6/7UeBfU185zbSc049+as8r16hpJeS9Lb3O0CSTNa/HDM5DpnXTF+6aKp9nfOTgCaFQ1AAE2vvyP+Ti5LD5Hrj2RDu0v6UBKnt/aUk+/PHqoe1VSLWpK8KqS1zcfgfVYDU2yTSf8v1BqZ9I455eHpHIpoZaev8CeZrDfQ8LLMfEzOIVkhd5mkhwPKxcnNNO9mLd/UUSonX62l6Wo3fUzSk1r+YHT9TaYT+jvzH2u1dyYDaD00AAG0hAumjVudXxs/z12flcQ7XaSCS12Z2TU95eTy2eX0Zc3wriOXvSqgcGoW5S8ei7+4ryP+oaTfBVqmfE3R1zgE0crirPZZSbuEGZ0NLJhaGJN36G7+AYZfGsya4upo+B9YuFvPUHp8qZz8KpfLDUp6m6RxHIWSpB9FaTyzv5j/JakA0Ar4CjCAllOqJMfKfZFk+5GNfzMo+VfSjflvLzrU1jda8N2rfRdL0nskFQJZYX/bX8yP2YvUe4aqh7rZtZIC/QCMndrfEX+Hww6tpnsoeY6Zfh/odfi6fBp3zJthd49ZfsrpSVveRxeKD/d35D/VaPPs9Bt9fDwueYNkb5fEXdf/br27v3Ogs/AtUgGglXAHIICW01/M/364LX+o3L9PNv7NNMm+GY9L7+qupF+fvWL44IaKPqmdoFCaf5Ik/8FY/u19nYUbJbsg2Hq5f6l7te/CYYdWMneJ5810nsL9Ifxnx7L5J0nrx+UuU1jv7W2o9wCeURmeWaqk58bj0rsk+6Zo/v0bk661rHY4zT8ArYgGIICWdNFke6C/s/BaNztF0r1k5N/sbO5vybLo5p5ysqSnXJ3bdYc3wONCHtImLcsnY/P4778t8knug8HOb9OTLal9msMNraS6c/ouSUH+cMVlqz0f/89Yx7F4P9so858HlJrDesqbDgx5XnUt9UJ3Je0qlZNfRx7dLPe3StqZI+7fpCZ9bm0SP6tvWvsQ6QDQingEGEDLO32FPynO0m+owX7KX2cPSlqYWe1rC4rtK4Pb/Nzh4yZsTP8haXwgIf2uvyN/XAiBlMrVN225CyREmSI9p39qng/0oOnNWun752rpUkkTgtwUuJ3U1xn/OIRYesrpa3yM76J+JHe9e6Az/6Xg5tSQ7xMrfaObzhQf9Hg8t2SRd4/Vuy0BIBTcAQig5S2aan/v78i/xszeIOl+MvKodpH0tshz5Z6h5LJSJX1l7xUehxLcxE21Fymc5p/k4by/anIx/y1Jfw31OsQzfWPuEs9ziKHZ5WrpuQq0+SfTb0Np/klSPCF3maRg3kVrpleHEkuXe667kr68VE5+nrP0dr7m+7hSSZ9cl8SH0/wDABqAAPAvfcX4Qs/HM+W6hGw89rrhppfK/eLb9k7vKJWTL5xRGZ451kFlmV4RUI4y8/yPQgmm1yyzzM9SoF+/NumQdFL6Dg4tNLOeSvoKKajz1COlnmZBHYPz9rYN8qAeA35mqeJ7jmUApcrwjO5y8vnxlfQOc/+JpBPYyz2uWyzzZ/Z35D+yeKZVSQcA8AgwADyq7kr6cvPsf/lS8FZb5qaFhSyeP6/T6vvOOXcrVdI7Je0dSC6u6u/IPze0ApXK6Tclf1Og82dDLksPvmDauNUcSmg2c9f4TtV1tVtMPiXM3YB9vb8Ynx3cOauSniz3xcEE5Nbd3xkvqOvcWek7p7XktTKb5a5nczRtlU3m+tz4KP7MuUUbJh0A8H/4qREAPIqBYvzTfC7/VElfk1QjI09ohrk+m1h6Z6mc/LS7knbV6xHh2eXkSIXT/JMCem/Vvy34mz8I8o9A589OtVz8vxxGaEbJuvRjoTb/THqgluZ6Q4wtPz53qQJ6DNjNX16Pv6fXPeopJy/sGaouTGrpGpedT/NvK2skXemePb2vM99L8w8AHnXdBwA8np5K8kyXzpfrqWRjm9xppoWq1RaO5hf3eoaS3i3vQApi/5GzeP8LinZniAUpDVXnyOxb4V6VWFd/Mf4Bhw6axRmV4ZmRR9dLCvI9l+b+1r7OQrDN955y8n2XugIJZ+0Ei/ccrcbSGZXhmTmPTnfpDZL24ejZJveZ/D19xfwCmTnpAIBHxx2AAPAE+or5P+Ufig830wcU0N0IDWBfd33Qo9xgTzlZ0jOUvHtOxfcd+R2sTgxmxK4/hdr8k6TJHfk+SdcEO2Pcv3JaxSdx6KApuFvk0TcUaPNP0i37r8mfH3IKM7PFAYUzcb3SY0fyD5y9zCf3VJL3d5eTGyOPbnHpfaL5t22rrvnCNIpn9HUUBmj+AcATbZsAAFuttML3Uy35osxOIRvbt5+TdKXJv2NJ/gfzZ9oOfXW5Z9D39ii9M5T1zFzv6evM/0/IBThjRfXwKLO/KNAfAprs3L6O+G0cKmj49aJcLUnWF+wmINLz+6bmrwg5h6ff6OPjcem9ktrDSNqOvy/x9BX+pLiWnCLZ62V6Jvux7XZ9lunsBdPyV5MKANja62wAwLZv7CrJsZLO5bHgHVKTdIW5LZLnftw3zdZu6x/QPVR9o5nNC2ZAtVrnwunt5dAT311Ov2HyNwcaXubmzx4oFv7MIYJGNXup75bl00FJe4YZoX+nv6NwaiPksruc/MyklwWSt9v7OwqTt/V3zV3pO6dp7ZVu3iXpJQr3rtBG2Lw+kMk/vr6Y//piM97RDADbgEeAAWA79Bfzv598Z3yYy98h6UEysl1ykl7o5gs8Su8ulasXlirpK7tX+1bf6WGylwU0nqFGaP5JUi7JfUjSvYGGF5nb/3a55zhE0KiyQu1zCrb5p7U1z7+3cTYr/pNworH9u5cPb9UP/s5a6hO6h9LXlcrJj5Ja+jc3XyDpRNH82+7DSrJ5sccdAx2Fr9L8A4DtWMVIAQDsmNNX+JPyXvuku/doc1MLO7g5lfmlUvSDdEPuskWH2qO+d7F7tbdbkt4raXwgcX+xv6NxNtU9lepsd7sg2AsU83f2FQtf4XBAozljMHl2FOmqgK+z39vfkf9iw5yrAnvVg7s+NNCZ//Sj/bfTKj6pTbWXS36yu16qUB5dbnAuXemRv2vB1MK1ZAMAduD6mhQAwMiYvWL44CyLvqjNj/dgZGyQ9AuX/TCx3M8uLNrD//wP3SuSl1qmywJaUZ/XX8z/vlES2+se3VZJr5b0jEBDXFvLxQcvPMhu5zBAo+ha6oUJ+fRaSQcHGuKy/MPx0+YdYUkj5bVUTv4i6chAwvlTf0f+Wf9ai1b7LlG19go3P1nSiyW1cSSMmIq5va+vM/4xqQCAkdiuAABGdqNSSV4i1xcD3gA2qmFJvzb5Dy3J/yQr1D4u97cGEtv9k++K9+o9ztJGSuiWD4Jco1DvXDVd1l/Mn8DURwOd/z8q18eDvfBvgA9/PGpey8mHJX0ikHCynLKDU7NnmuxkuV4gqcDsH9k1VeafXFfN/+/imVYlHQAwUpfWAIAR1+WeG19Oekx2jkxPJiMjLpGUShoXQjAuv3Cgo/CGRkxkqZyeJ/mZocbnZrMGivEipjyCP5YqwzPk0XUK9g6wxvnwx3+aNTh8SC6KbmSWNb2qpG9ESXzO/Jl2P+kAgJHFR0AAYBQsNqsNdBa+NS6Ni5I+IukhsjKi8gqk+SdJ5tFPGzWRw225D0n6R6jxmfuX56zyvZjyCFmve6Qs+pbCffxzrWX59zRqfhdOa7tJ8luZaU0rk/u3TbXp/R35d9D8A4DRQQMQAEbReTNtXX9H/pNREh9omx8LW0tWmk7ihdwvGzX4iybbA2b+gYBD3D1L03OZZgjZrZXkLTI9K9T43NXbN83WNHaW7SfMtKZ0eWR+RH9n4fS+jvZVpAMARnElJQUAUD+bv2ZY+7Dkc7T5LjY0/kr62/5i/gUNPQZ3K23+IMgzg02z20m8CB4hmrXS98/V0lskTQz0HHVz/qH48Eb78Md/OmMoeUFkupwZ1xxcutIifaB/av6PZAMA6oM7AAGgjvqm2Zr+jviszGrTzX2RpBpZaWwm/2njD8Lca9mbtPndikHKzP/31Nt8V2YcQpPL0m8q1OaflMn05kZv/klS29r4SkkPMuMaftFcYm4nDHTkj6X5BwD1RQMQAMbAgmL7yr7OwqxclhYlm6fNH7RAI+5lLPtZM4xjYHrbze76n3D3jHpK23Dtf5hxCEmpkr5BruNDjc9l85qlybK5iemXMesak0s3udkp/VPjo/o6Y+oIAGNzPQ0AGGtzBjdOqUX590veIykmIw1jWX9HfmazDKbrDh83YWPtZskPCvjK5aX9xfwvmXoYa3OHfI/E0qWSnhRoiPcMt8XTL5psDzRLzruH0teZ+XeYfY3DpZtk9smBqbkfyMzJCACMHe4ABIAAXDBt3Or+jvhNXuOOwEZi0k+baTyL97ONFvkbN+/ZApX5+T2DPpHZh7GWWPI1hdv8k7u9o5maf5JUiHOXSaoy+xpigbzZzU4ZKMZPGyjGi2n+AcDYowEIAAEZmD7u1v6O+E2mWqfLvilpE1kJmOtnzTakvqn5K8z92+FuKm2yotqnmHwYS7PL6cske33AIf5yoDP+brPlfd5B9pCkK5mBIS+LutLcTuifGh9K4w8AAruMJgUAEK7u1f7kKEnf4dKbJe1MRoLze5euVKQ/Fiz+05bNacMrVXxPebpc0u6BhphlmZ67YFr+aqYg6q1n0Cd6lCyVbL9AQ9xoqh3c19G+qlnWQSW1Z5n7MTI9S9JhkvLMxKC4pJ9nmT7LeRkAwkUDEAAaZMOZRUmPyd4raR8yEuyyuso8u1qmP9TMr14wtbCsUe9+KJWrJcn6gs20qZzF8aEDU4y7ZFHf8/FQ+r9uflawAbo+2N+Z/0zD5re86UB5fIybni35MZKms2cJVibp0izy3gVTC9eSDgAIfKdCCgCgcXSv9vYoSbpd9i5JRTISNpfuNulqM7/aMv0xtzZ//eYvWTZC8G6lcvobmY4L+CrmM/3F/AeZaaiXnqHkGDf9XuG+RueW/MPxYY1ynum6w8eN35AeYdIxbnq2Sc+UtBszLXjrZdafqyVfumDauNWkAwAaAw1AAGhAve7R7StqJ7r7OyU9j4w0jA2S/irpD5L92fO5JQNT7G+hBjtr+aaOXC53o6T2QENMZX50f7FwHVMLo617tbdbkl4vaVqgIQb/aPycwY1Tslz+SJcfJdezJB0uqcDsahhrzHTupkJ8frN9YAYAWgENQABo9E1pufo0U3Sm5LMUbqMGj2HLXYLXmuvaLLJra5a7ZtFU+3so8fWUk4+4dE7AKVzm+fhwHgXGaCtVki/K9e6AL+vP7++I3xzM2rTad4mS9Ai5jnHT4ZKOUsBfTcbjutHk52X5/ELOtQDQuGgAAkCT6Bn0vTNLzzbTXPEIVaMvz6vk2RIzW5KZ/poovu7Coj08FpF0LfXChHx6vaQZAV/MfK6vI/9+5g1G7fwa/qO/9wy3xdPH6q6s7tW+i5L0SLmONNMRko6UtC8zp6Flki5Vpi/3T8v/lnQAQBPsMEgBADSXrjt83MRNyanu9hZJTycjTbMRK8t9iZuWeGZL0lx8c72agg3Q/Kgp0nP7p+b/yFTBSDv9Rh8fj6vdIPnUUGN02WkDHfFF9fi7ulf7LrkkPSQzP1yuIyQ7UtJU9hVNszl8wE19mWrfWFBsX0lGAKCpzvEAgGZ1xorq4VEWzZX8dEnjyEhz+dfjw9JSuS2rRbVrN0wtDC42q43031Uqp+dLPjfgS5pV45LcoefNtHXMDIyk0L/669KvBjryLxmVsQ/63lmudniU+eEyzXBppvgqb7MadPk3axvzFyw61NaTDgBoPizeANAC5qzyvdJa2m3uZ0m2PxlpalVJK8z92iyypZItG4n3Cs5d6TsntXSZpL1DHbib/e9AMX4rUwAjpTSYPF+RLg/4mnljZrWn7uidWj2DPrEWJx25WjTTzQ830+HuOlTSBGZBU6tJusykr/YV49/IzEkJADQvGoAA0EJ6r/D49r1rL/fI3yjXSxTuI50YcX6Hy26S62YzuymybDA3Pj80b2/bsLV/Qmkofa3MvxvyIE16cV9H/nLqjR11WsUnFTy5OeQfmrjrQwOd+U9v7a8/u+Jta9Nqh+LcNMv8YIt0SOZ2qMkPYF/QUuvBrZJdkE/jvnkz7G7yAQCtgYUeAFrUrCHfJ4rSN1jmZ8psMhlp0W3g5seIl0q2ypUti2RLpdqqvo72VY/260vl5CeSXh7wkO4aboufOlYfQ0DzKJXTPslLAYe4dF0SH7Z4plX/8z/MXek7D3sy1Tw6MMp85iMe3+2UlKO6Lakm6Qo3m7d+au5Ho/GqCABA2GgAAkCL63WPbq+kz5c016VXS4rJCkx6QNIquS/b8ijxKldtWb6WbahF8U0K+NFAlw0MdMQlqojtVSqnJ0r+04BDdHM9d1N7vLR9UzpT5jMkO3Bzk89mSD6F63xscZdJ305z8XkLD7LbSQcAtPT1PQAAm82p+L41T7slOyPkL15iTG3c8r9Bf1TGzF7ZV4x/QrmwrWYv9d2yfHqzAn7fpaRU0gZJk6gYHsUmyX9sZgP7T40v7zXLSAkAgAYgAOBRbf6CsM2S9AZJu5ERNJh/pFF88I5+/AStp1SuXiTZ68kEGnBjd20mX1Tw/IXzOu1eMgIA+I91AgCAx9a92tuV1l5u7rMkHS/eH4VGucgxXdxXzL+aTGBrlSrpK+V+MZlAo9jyHtfF5t7X11m4kYwAAB7z2pgUAAC21qyVvn+ulp4u6VRJM8gIGuBS59T+jvg75AFP5PQV/qQ4S2+RtCfZQODWS36Je3Th+o7cL/mgBwBgq66KSQEAYHucURmemcuirsxslm1+4TwQogdzFj/1gqLdSSrweLrLyQ9Meg2ZQKAyM/1J7guV5b/TN83WkhIAwLagAQgA2CG97tHtK9Njs5qdZuavkbQLWUFg/iTpR25+v7Lo/pz5/Yqy+3PVwn1ted1/btGGSVFz67rDx+28SbtnWbK7zPbM3PaIlO2eRbZH5La7u+8v0yvJFELj0l9MfmEuzn/vggPtHjICANheNAABACPm7Iq3rc9qJ8iyU1x2oqQJZAUNYL3k90t2v0z3yXW/ZPfJ/H7LdJ+b3y+L7lfN12axP2SWPayobW3tYa1ddKitJ3310XuFx+UDNbF9eHjXTNGknGySZBMzaZI8291ke3hku8uz3V22u0l7Sr6HZLtL2okMooF2aDfL9X3P1b43cFB7hYQAAEZmeQEAYBR03eHjJm6sneCWdcntREnjyQqaUGbSQ+7+sMzWSlrr0tpIeihze1jmayWtNWmdyR/MLNooaZO5Npp8Uy3TRsW+KXLfaO6blLVt2jROG5NImxbvZxsbMSFz1/hO6xK1xZu0U2zDbVnNxnveCnFm410quG3+X/Nsgkn5zGzXSJokt4mubJJkkyRNNGlXlybJNVGmSaKJh+a2zE3fjz37/gUdbctJBwBgpNEABADUpSGQrK+doCzrktnLRDMQ2FqbTNrormGZbZB82KQNj/wFbnK5HnyU31sz6eH//JcuT8xVk1m7/vs/TnRT/CgXjLv+9y9Vu2TjXD4uktpdGiepnZIBW21Qru9nUfb9BcW2paQDADCaaAACAOrqn81A9+xVJnuZeGcgAKB13CDTjz3Nfjwwve1m0gEAqBcagACAMdPlnptYTp/ppi5t/vrmPmQFANBEMpOul+tn8tp3+qa1D5ESAMBYoAEIAAhCr3t0+4r06Mz1apO9WvKpZAUA0KAul/wHns9fMjDF/kY6AABjjQYgACA4p6/wJ8VZeg+ZAAA0Ipc/faCjcAOZAACEIiIFAIDQ5Gq1Z5EFAECjMtMzyQIAICQ0AAEAAfKjyQEAoHGXMbGOAQCCQgMQABAcMz2DLAAAGnglYx0DAASFBiAAIChd7jlJR5AJAEAD65i13HcnDQCAUNAABAAEZXwleaqkCWQCANDALI5qR5EGAEAoaAACAEJbmHhsCgDQ8FzOegYACGmfBQBAODJFvDgdANDwnPfZAgACQgMQABAU4wvAAIDt91A465mO6nVnvwUACAILEgAgGKdVfJKkzkDC+aK5nWFm35K0XJJTIQAIzl0m/66bv8Vr2SHrivHuku4LJLZdbh8aLlIiAEAIYlIAAAhFXulhCuSHU5H00/md8ZWSFkqbm5Ntnh4l1zFuerak50hqo2oAUE+2yjy7WqY/1MyvXlBsW/qfv6JUSf4i1/FBhJuLj5A0RN0AAGONBiAAIByZDpMFEUmtLYmve+S/uLBoD0u6fMs/mrvGd6quT4+KXM9x6dna/PGSnSkiAIyYqqTrJF1jsquiOPeHCw60e57oN7l0jSmMBqBnfrikCyklAGCs0QAEAATDzI9QGB3A5efNtHWP9wvm7W0bJP1uyz+SpJ7ypgPl8TFufriZDnfXkZIKVBYAnphLd5t0rZv+EGW6eu1O8bWL97ON276Y6JpQXtrgpsOpLAAgBDQAAQDBMLPDPYhNm/1le35XX0f7KkmrtOWx4dNv9PH59vTpmfnhketwNztc0gwqDQBKTLrJpavN7drIk6sumDZu9Yj8ybn4z8pSVwA/UTLpsC733GKzGiUHAIzxmgQAwNjrGfSJHqUPKoR3AJqf1V8sfGM0/uhZQ75PZLWjI/PDlemwLXeH7MkMANDEhiXd5LJrzbNro0jX5h7K3zLvCEtG6y8slZNBhfJRKctm9hfbljENAABjiTsAAQBB8Fx6mDyMD4Bkpr+M1p+9sNPukvSjLf9IknoGfe8sVzs8yvxwNx3u0uEmPYVZAaABpZLK5n5tZro2crs2K8RLBqbYprpGYX6N3IJoALpyh0uiAQgAGFM0AAEAgfDDArkxfXjDcP7mev6FfdNsjaQ1kn76z383a8j3iaLaYVHmh7v0NDc7xORTmCcAAvKQpJvN7aZM2Q0W6dr8Q/mbR/POvq1eUTZ/CGRWCEky9yMkLWK6AADGEg1AAEAQ3HV4IO+luGHxTKuOdRBb7hS8S49oCs5d6TunafrULPJDzKNDJD9U0sGSJjCDAIyiTLJVLr/RTDd5ZjfFntw4Yu/sGwUm/TmYWPgQCAAgADQAAQCBbNbsaYHs1P4aao7mHWQPSfrDln82c7czVgwfaB4fGrkf4qanSnaINt8tmGNmAdhG90paKtkyKbvRzG5qr8Y3P9GX0UOTfyh/czIp3SBpp7GOxV2H9LpHvWYZ0wsAMHb7LQAAxtjZFW9b5+k6BfCDKTebNVCMG/5RrblLPJ9OGt4vs3im5DOizGfKbIZLMyW1M+uAlt8EPCDTMndb6sqWRbKlUm3Vlq+ZN4VSOblK0jEhxJJZbeqCYvtKZh4AYKxwByAAYMytUzJTsiDWpNhrS5ohp1vewbVqyz//9xjxEs9nk6pTa5abKfdpJp/psmmSipLGMxuBppJKdqvkZTMNeubLlbNlnouX9U+xB5t98Gb6i3sYDUDz+FBJNAABAGO3zyEFAIAx5zo0kEjW71ssDDVzqrc0Bpdv+effnHqb75pPkgNztWimzGdIOlDSgS5NVwCP0QF4dP92N5/5KslWuWWrNrTlly3ezza27tJi10seRo3cD9Ujvv4OAEC90QAEAISwSTskkHdS3NLK72i6aLI9IOnaLf/8S5d7bqcVwweY5YrKvGgWdcj9QElTtvzDI8XA6Eoku13y1Wa2WvJVLlthWVaJJ+Yr8/a2DaTov2WqXR8pCiWcQ6kIAGAs0QAEAIw5cx0awltpN98tgv+02KymzY+urZT0i//87/+8c9A8OlDyA83tQMkPlOxAySeLj5EAT3welB7Q/z22v0rafCefVFu1/11tt/ceZylZ2jYbphYGJ1TS9Qrg9QZudggVAQCM8bUGAABjq1RO/iFpj7FfFP3Mvo7CN6nIyOla6oXx7cOToyw3JZPvG2W2v5vtL/l+kvaVNFnSODKFJrdR0m2S7pTsDnO/XZHfIdkdkWd3PDSucGsrP6o7yuvLnyQ9I4BQPJ+Ld93yNXcAAOqOOwABAGNq1pDvI6V7BBGM2Y1UZGQtnmlVSZUt/zyquUO+Ry1K9nNF+2WeTTbZvpsbhPYq0RxEgzG381zZco+i2+TZHQXP3zmv0+4lM2NWj+vcPIQGoFXT9BBJV1EVAMBYoAEIABjjhah2SBivaFeWbIhvoiL1t6U5cq+kf3sEu1Suvkky7shEA7F5fZ3xW8hDOFzZ9cE89BT5U0UDEAAwVssQKQAAjOnmzHxmIKGUFx1q66lIOPo7CudLfhGZQINYmp+QeydpCEuWU0Dvdo1mUBEAwJitQqQAADC2bHoQUchvoBbhGZfk32SmMplA4DbVsuxUvsYbng3D+ZslVYNYZzKnAQgAGDM8AgwAGGMeRAPQ3Xj8N0DnzbR1PYPV0xTZ1ZIK4U9nfTkXxV/KfLiQKZrkkXK5zHZ1U85lkyKpIM/GZ9I4mbWba4JJ+Uy2c2TKyX0X33x9NlFSm0k7uZSTbNK/mgjyXf/vr9POqt8PdB80yf99uEolW/uIf7PBpGGZNrlro6SqSetdnkrRWpeySP6Qu4Y90obI/YHMoo2Ra4PkD2Xm66JMG2XZWlM8PZNf3AjXqyZ/+8JpbZxDArR4plVL5WSZpKcFMFFmUhEAwFihAQgAGGuB3AFoN1CKMPVNKyzpqVTf525fDj5Y09trqv2+v6P9knr/1Wct9QkPTlD+sf77TlWNz3z4X01Uj9qS4bzW/eev272qDecWbXgs0zhnle9VS9NvqiGaf1rc11GYx5EadJWuk/xpAQTypLlDvgcfhQEAjAUagACAMTN3mT8lUbpLEMF4ji8AB6xvav6rpUp6nKRXBB5qJPeFc8rDz7igo215Pf/i82bauif4JQ80xHlhieerafp9k/YNP1q/Ncvn53KEBl4lZTdYIB8CqVk6Q9KVVAUAUP+LVAAAxshwLg3lfUj39U2zNVQkYGY+3BZ3y/22Boh2Uk3RJd2rfRcKt+2SSekXTXpuA4SaKrLTBqbYg1QtbO62LJhYxHsAAQBjgwYgAGAMF6Ew3v8naTnVCN9Fk+0BmV4rKWmAcItK0u91ueeo3NbrLqenSnpbI8Tqpg/3T83/kaqFzwrx0mDmTSAfvgIAtOLeCwCAsdqUKQpkIxTO3SF4fP0dhWvc1dsY81svnrgiPYeqbZ2eoeqhJv9WQwTrumL91PiLVK0xDEyxv0m6N5DzAh8CAQCMCRqAAICx20NHPi2IDZll3AHYQA7oiD/r0q8aYo67PlCqpCdTtcc3e6nvlln0Y0k7NUC493ghPnWxWY3KNZQgzvMuTaMUAICxQAMQADCGOyEvhrEhMxqADaTXLKtF8emSGuG9jSb3ge7lw0+lco+uyz1Xy6ffMfmUBgg3M+kNW+4oQyMtN7JQHgPe+/QbfTwVAQDUGw1AAMDYbPrv8HGS7RNEMBbzCHCDWTTV/u7mr5FUbYBwx1vOfjJ3yPegco+SnHL6SZNe3Aixuumcvo785VSt8ZiCudPbrK16EBUBANQbDUAAwNhs+tdVpwayDq3rP0h3UpHGM1As/FnShxojWjsgtfS7vVd4TOX+T6mSvtJM72uMEuq366fGn6RqjSnzYO4AVC6X66AiAIB6owEIABibBSjKTQ0hDpeWycypSGPqL8b/49IPGyFWl15w2z7pZ6jaZj2DmzrlvlCSNUDx/uZxfBrv/WtcbbWA7vTOwnj9BQCgxfZfpAAAMCb7aQtjA2Ry3v/XyMw8yuKSpKEGifg9PeVqd6uXrWfQJ3qU+5GkSQ0QburSKbz3r7HNm2F3S7o/kPMWDUAAQN3RAAQAtPQGyI0PgDS6vmm2tpZlp0ja0AjxuuwbPYPVI1q2YO6WRWm/pBkNcaqSPjjQmb+KI60pBHIXIHcAAgDqjwYgAGCsmgBBPAIc8QXgprBwWttNZv62Bgm33SP9sHu1P7kVa1Uqp70mvaZBwv1pXzH+IkdYc7BwfuDDOwABAGOw7wEAYGwE0QDMslqZUjSHvmJhvssGGiNa219Jesnmr2G3ju6h9HUyfaQxovVbh9viM3hHaPPI5CsDCeVJp1V8EhUBANQTDUAAQN2dXfE2SXuHsMNXoXArFWki+dyZkq5vhFBNOmr8xnRRr3tLXI+dsaJ6uJnPVyN89ENKzOzUiybbAxxUzcRWhRJJrlY9gHoAAOqJBiAAoO7WRsP7B7IG3TUwxTZRkeYxMMU2RVHtFEkPNUK8Jr3mtkr68WavS8+g7x1ldomknRoiYPd39RXzf+KIai6mLJQ7ABXncgdQEQBAPdEABADUf/Gp5SYHsceXVlGN5jN/avsKl/VsLnFD+FDPUDqrWetx+o0+3qP055L2aYR4Tf7d/s7C1zmSmk8+ygfTAMw8m0JFAAB13YORAgBA/Tc+HsTGx2QrqUZzGuiIf+SuzzVIuObmF/SsSI5rtjr0ukf5ndJvS3paY1RCNycb83M4gprTvIPsIUn3B3LQT6YiAIB6ogEIAKj/xsfC2PiYfDXVaF4HdMQfkumyBgk375kWd6/cVGymGtxeST/trlc1SLhrPctOWXSorefoaWph/ODHdAClAADUEw1AAED9uYdx54MZjwA3sV6zLKrGbwjpxf9PYHer5X5y6m2+azPkv2coneXS+xrlrGRuZwx0tg1y5DQ3C+dLwAdQDQBAPdEABACMwQ7MAtn4OA3AJjd/pt1vnp0kaUODhDytbTj9cddSLzRy3ksrkme5+byGOSW5zunrjH/MEdMS608Q532jAQgAqDMagACAMRDGHYBZHPMIcAvo6yzc6GZvbqCQj52Qr32tUfPdvXzjAcp0saS2Bgn50v074nM4UlpDFsgdgC7tOnel70xFAAD1QgMQAFBXvVd4LNneAYSyfuAA3UNFWsNAMV5ksnMbJ2J/U6lSfWej5fm0ik+yXPxTSXs2RsS2crgtfkOvWcZR0irCeSVAzav7UQ8AQL3QAAQA1NWqvbWXpFwAoayWmVOR1hE/nHu3pKsaJmC3L3RX0pc3Srhd7rm8pxdJOrhBQt5gnr3mosn2AEdHC0nTW0MJJfNoHwoCAKgXGoAAgDovPMnegYRyO9VoLfOOsMTz8SmS7mqQkHPmflF3ufq0Rgh2fCX9okkva5T5YGZz+zoLN3JktJb1WfsaSWH88Md9byoCAKjfPgwAgLouPNG+gWz+76IarWdgiv3NzU+WNNwgIU+Q7NLu5RsPCDnIUqV6pknvaKCp8NW+YnwhR0TrWTzTqpL+EUY0xh2AAIA67sMAAKijLMqeEkYgvoZqtKaBYuHP7n52o8Rr0lMsF182a7nvHmJ8pUp6sty+3kBT4Hf5h+P3ciS0tDtDCMJpAAIA6ogGIACgzgtPGBsel99JNVrXQGfhW272vw0U8rQol156+o0+PqSguoeS58h9UcNcU7rfJotPmXeEJRwFLS2IO8BNTgMQAFDHfRgAAHWUeRBfAJYp4hHgFnfAnbl3yPTbRonXpKPicel3N39Je+zNKQ9PN9PFktobJIUbs5xe01+0fzD7W5vLAmkAincAAgDqhgYgAKDeW69ANjwZjwC3uN7jLM1n8WtdtrqBwj7xtn1qXxvrIOYu86fU3C6TtFujnHhMdvqCqYVrmfmwQO4Adxd3AAIA6oYGIACg3p4cQhCx8twBCM3rtHtVq71S0rrGidrP7B5KPjhWf3vPoE9M4vTnMpvcOCnTJ/o64h8y4yFJJr8rkED27HLPUREAQD3QAAQA1He/43pSAGFsmteh+6gGJGlgetvNMnuDpKxhjiPTJ0vlaqnef+/cJZ73KF0s6ekNU2DXJZM74o8z0/FPmYL5CnxuwoqGuYsWANDgaAACAOq4EXeTKYAvmdoamTkFwT/1F+NLZGqkJpFJdn73iuSl9Tx+q5Nq8yS9pIHytLwaxbN6zTJmOf4pVhbQR6Cqe1IRAEA90AAEANRN963aWVJ+7CNx3v+H/9I/Nf6EpB80UMh5y7T4jBXVw+vxl5Uq6Tkm726g/NyXWe3lFxbtYWY3HmmjFQJ6BUREAxAAUJ8VhxQAAOolVxveI4hAnAYgHoWZpxvjbkk3NlDUE6LMft5T3nTgaP4lPeXqXEkfbqC8pJnrtQuK7SuZ2PhPW5rCm4JYjmRPoiIAgHqgAQgAqN9Gx3NB3Olgiu6lGng0iw619VEav1LSPxoo7L1cuV+UKj4qx1epnJ7osv9tsLPNuxd05n/DjMbjCOQ9sBl3AAIA6oIGIACgftscWRB3AGbmfAAEj2n+DLsty/RqScMNFHZRnv70rKU+YST/0O5K9RmSf1dS3CiJcNk3+zsKX2Mm4/HnSSgNQKMBCACoCxqAAIA6CuNOh8j8fmqBx7NgWv5qmc2R1Egfizl6YyG9pHu1t4/EH9a9fPip5vZzSeMbKAe/PuCu3NnMYDwR8zAagFHGI8AAgDqtOaQAAFC3Rcdt9xDiyBRxByCeUH8x/rakTzVU0K7nW5J+b+4S36GP7ZxR2XSQctEvJe3WQKNf7vn4lN7jLGX24omYKYxXQVi2G9UAANRlL0YKAAD12+holyDiyEQDEFulvxh/VPKLGizsV1QnJf297tt1ndcz6Hubx7826SkNNOb7oqj2ioEp9iCzFlu3DFgQ64Cb7Uw1AAD1QAMQAFDHHZftEkIYZhkNQGztZHHP52dL+nNDhS077bZK7QK527b8vu7VvotH6aUmn9JAw00sUtf8qe0rmLDY+mMkkHfBeiA/GAMAND0agACAusksC+JOhyiiAYitNzDFNnk+frXktzdW5F4qVdIvb+2vnrvGd7Jq+nNJhzbUKN3f0jc1fwUzFdsknI9B7UIxAAB12QORAgBA3fZbCuRRp+E2PgKCbTIwxf4m8+MlPdRgob+9eyj54BP9oq6lXkjWpT+S6VkNNr5PDXQWvsUMxTavR1kw74LlEWAAQF3QAAQA1NMuAcSQ7TdDD1IKbKv+Ytsyj/Q6SbVGittMn+oeSt71WP+9yz03IZ9eKOklDVaSH00uxh9lZmK7FgIF8hEQ7gAEANQJDUAAQD1NDCCGB3vNMkqB7TEwNf8LM39Po8Vtpi/0DKWz/us/uNuESjJf0skNNqS/5ifEp3MsY7uPiZw/GEgoO3Ut9QIVAQCMNhqAAID6cd8lgCAephDYEX3FwlfM7bxGu+Zz8/k9Q+mrH/kvN78j0M5osPPIbfk0fuW8vW0DsxHby2q+PpRYJhR4DBgAUIeLQVIAAKjfjssCuAOQpgF23NqO3Nsk/aTBwo7d/Dvd5eRFktRdST4m6e0NdQqRHlDkJ8ybYXczC7FDcymXBdMAzNU2TaAiAIDRRgMQAFBPOwUQw3rKgB212KyWboxPlfTXBgu9zaQfd1fSr5urt8FiH85MJ/UX25YxA7GjctW2YNaCWi4aR0UAAKONBiAAoC563SNJbQGEwh2AGBGLDrX1eY9PkFRpsNDHm/tbGixmd7M3DhTzv2PmYUS0hbMWWM12oiAAgNFGAxAAUBdr7la7JAsgFO4AxIiZ12n3ZlY7XtI/yMbocdeHB4rxIjKBkbL37eGsBZkZdwACAEYdDUAAQH2sVSh3OHAHIEbUgmL7ysj9RObW6HC3+QOd+U+TCYyk3uMslVQNIRaLxB2AAIBRRwMQAFAXSU5h3OFgTpMGI25+Z+EvbtYtKSMbI3m46hcHrMm9mUxgVOZXIHeEW8YjwACA0UcDEABQF7VkOIgGoHtEAxCjYqAYLzbX/yMTI8R0cxzHr9typxYw8utBKHftcgcgAKAuyw0AAHUQR2F85dDcN1INjJa+zvz/mOxcMrGj/HarxS+dd5A9RC4witYFMduzjHcAAgBGHQ1AAEBdZFIhiECMj4BgdK0t5t4p6UdkYrvdn5mf0DfN1pAKjLJNQSxLpphSAABGGw1AAEC9VpxcEHGYEoqB0bTYrLYuiV8v6XKysc02muuVC4ptS0kF6iCId3a60wAEANRjOwYAQD02ODULogFoLqcaGG2LZ1q1avFrJF1PNrZazWVv6OvM/4FUoC7rQSgNQAvkB2QAgKZGAxAAUJ8FJxfGHQ4uGoCojwuL9nAaxS+VVCEbT3xomvmbBjpiHp1GPdeDIBqAkRt3AAIARn+9IQUAgLqoBXOHAw1A1M2iqfb3zGrHS7qHbDzuUfmhvmJhPolAnReDINYD7gAEANQDDUAAQH02OIG8A9B5BBh1tqDYvtIyP1HSWrLxaOwb/Z35z5AH1H3m8Q5AAEALoQEIAKjXihPGOwC5AxBjoG9aYYlFeqWkYbLxyAPSvze5mHsricCY8DAagBbRAAQA1GM7BgBAPdQsiDXHIhqAGBt9U/NXSFZSIHcdjfmxKP1mXTU/q9eMfGCsJiFzDwDQMmgAAgDqs8+KvEYW0Or6O+LvSP5OMqHrhi0+afFMq5IKjJVQPgIiF+sjAGDU0QAEANRFlikNIg4eAcYY6+8ofE3SJ1s4BUNpFB9/YdEeZjZgLIXyDkAzGoAAgNFHAxAAUJ8NThTGBsf4CAgC0N+R/4jJzm29kfvttVz84kVT7e/MAgQgjHfvcQcgAKAOaAACAOojC6QBKLVRDISgr5h7u7vNb6Eh/yMnf+nCg+x2qo8gmNqDWB5pAAIA6oAGIACgPvusXBgbHKcBiGAOCvP1Hbk3yf37LTDah7PIj7+go205hUcwPIwGoIx35AIARh8NQABAfRacmgfxDkAzjaMaCMVis9q6NH+6TJc18TA3RtLLF0wtXEvFERYLogFo3AEIAKjHfowUAADqIYvC+AiIu9EARFAWz7RquiHuMtPVTTi8qrm9Zn5H/koqjQBXpiDuCDcLY30EADQ3GoAAgPpss+TDgYTSTjUQmkWH2vphxSeY1Ex3yWXudkZfZ3wZFUaYwrgD0D3aSC0AAKONBiAAoC7ytWxDGJFkNAARpAuL9nDs8UslNcN78tzkZw50xt+lsghYGA3ASBsoBQBgtNEABADUxXDcvj6EOMx4BBjhmtdp9yqKXyJpXYMPZcn+d+X7qCgCF8QjwDmnAQgAGH00AAEAdZFPFcYjThmPACNcXe4589pHJE1o8KEceds+6Y/nrvGdqCpCPdYkFUKIxSOnAQgAGHU0AAEAdbF/p4K4A9D5CjACNXeN7zShkl7s7m9skiGdmKxLL5+13HenughNYYXGhxKLZzQAAQCjjwYgAKAues0ySZsCCGUXqoHQnHqb75qsS38p6cQmG9ozc7n0qlkrfX+qjJCMq20KpjHtNRqAAIDRRwMQAFBPAWxyfDfKgJDMqfi+bcPpHyQd06RDnJ6rpX/sXj78VKqNUNRyuV2D2ZDlfD0VAQCM+npDCgAA9eKyh8Y+CtuDSiAUc8rD02ueXC1pRpMPdR/LRVfOLifPpeoIYj1yC+YOwE1tbQ9QEQDAaKMBCACoG5OHsMkZ13WH8x5AjLnZQ9WjaoqulKxVHo/dJZN+1VNJT6H6GHPhNACzZH89TEEAAKONBiAAoJ7uDyGInTeJjxJgTHWXkxdlZr+R1Gp3pLa5+0WlSvVMZgHGdheUhfI6iIcXm9UoCABg1Jc+UgAAqBv3IBqAWZbQAMSY6SlXu026VNKEFk1BTm7nlYaSj8vdmBEYm4XAdglkYXyQYgAA6oEGIACgfiwK4j1HIb37Ca2lVE4+7LI+STHnA320p5wsOLvibcwM1H85UiB3ABrv/wMA1AUNQABAHfc5YdwB6DkagKivrqVe6C6n/ZI+IYm73v55LJqdvtbTX81a7hyTqO/cC+UHQSYagACAuqABCACo3z7Hw9jomDK+BIy66V7tu0wopJeZvJtsPNrxqOfmcumfulduKpIN1G0T5P7kIALxMN6NCwBogbWPFAAA6rfRsXsCiWMfioF6mDO4cYol6dVyPZ9sPK6i1XJ/7q4kzyMVqM8yoMkhxGGyu6kGAKAeaAACAOomMw9io2Pu+1MNjLbZQ9WjalH8J0kzyMZW2c1cv+wZSmeRCtTBfiEE4e40AAEAdUEDEABQN7koC2Kjk5lNphoYTT1D6aszsysk7UU2tknBzQd6ysln+UIwRsvspb6bQvkKt/nfqAgAoB5oAAIA6iZJCmHcASjuAMTo6S5X3+7mP5C0E9nYvkPUpff1VNLvdd3h40gHRlotnwSzBnjEI8AAgPqgAQgAqJuF03S/pOGxj8T27XLPURGMpN4rPC6V0/NM9hWusXacS10TNqa/KlV8T7KBkV0Cov1CCSXnfg8FAQDUAxenAIA6brrM5UE87hRPWKm9KQhGymkVn3TbPumPJT+TbIyoY+TpdT2D1SNIBUZsA5RlwdwBaLn8GioCAKjL+kcKAAD13e1YEJsdq6W8BxAjolQZnlHwdImkE8nGqNjXI/t9aSh9LanASMhk+wYSSvWhKbqXigAA6oEGIACgzvzWIDaAZrwHEDusVE5PlEd/klQkG6NqJ5l/p1RJPt3rzvUrdojJDwwkktsXm9WoCACgHriAAgDUd7tjtjqMQJyGDbafu3VXkvdJfomkSSSkPketXB+4vZz+vHu170I6sAML0cxATiSrKQYAoF5oAAIA6rvdycLY8ESumVQD26N7tbeXViQD5vos11JjcA4xvdSS9C+lyvAMsoFt1XuFx5KmhhCLmd1KRQAAddv/kAIAQD1lCuMOQJcOphrYVrOGfB9L0ivlNotsjKmiPPpzqZK+klRgW9y5T7UoqS2I9TAL45UYAIDWQAMQAFBXeU9XBRJK8eyKt1ERbK2eoeSYnKXXSjqSbARhotx/1FNJ3i93Ix3YGply4dw5yh2AAIA6ogEIAKirfe9uv0NSGkAo8UO1aicVwdboKVff7KbfSNqrCYbjkr7o0t3NcC3rrs+UKukP5q70nZmp2IrpH0wDMDLeAQgAqOO6QwoAAPXUe5ylUhh3PURRjseA8bjmrvGdSpXqApd9Q1KhCYaUmlt3f0f+vXGWPttM5SYp1UlJrbakZ6h6KLMWjy+cBuCmQjxIPQAAddv7kAIAwBhswJYFsQia8yEQPKbulZuKyfr0z030vr8NkexVfZ3xQkm6YNq41a74GEl/bZLzylQ3+1N3pdrD7MVjyWRBNABduvuiyfYAFQEA1G3vQwoAAHXf+LiWBRIHdwDiUXWX05Osllsi11ObZEj3m+mF8zvinz/yX/YX7R/jkvj5kn7ZJOMcZ27zS+W0r+sOH8dMxiN13eHjTJoeQixmWk5FAAD1RAMQADAGi4+FsvE5mmrgkXqv8LhnKOk1+Q8kTWqGMbl0dy3Ljusr5v/0aP/9vJm2bvJd8YmS9TVPJb00YWN67Zzy8HRmNf5p0sb0SEn5EGIxt6VUBABQ3z0YAAB135tnywKJZK+e8qYDKQgk6fQV/qTb90l/4aaPSWqWr8oOZrn4GQuntd30eL+o9zhL+4u5OZI+30QlnV5TdE1PJT2F2Q1JqpmeGcwyaBl3AAIA6ooGIACg7pLh/HJt/hJpAJuw+FlUBKVKcmxcS2906QVNNKxrarX4mIUH2e1b9avNvL8j/z6T/l8ox+cImOju3y0NJV+au8TzzPSW3/g8I5RYPJw74QEArbMOAgBQX4sOtfUeyJeA5aIB2MJ63aPSUPIBuS6X6clNMzDTZenG+AULp9t92/pb+zryXzC3bklJ02TD9M5kUnp198pNRWZ96/IsmAag56rxTVQEAFBPNAABAGO1/7kukDhoALaoOat8r9sq6aUyfVpS3DRHlvzC/EPxKxcdauu398/o64wXmnSCpLVNVPIjrZa7sbtcfTuzv/X0lDcdGE6T31bPn2n3UxUAQD3RAAQAjM32x3VtIKEcfFrFJ1GRFmsGVNJX1NL0FkkvaarjyvSlgWL+9HlH2A7fvdfXkb9c8hdJureJUjTOZF8pVarfnbvSd+ZIaKVFJ35mOMGE8gMwAEAroQEIABib7Y9pSSCh5PKe8jXgFtG92ttLlfRcd79Y0h5NNLSay9/WV8y/W2Yj9v6+/o7CNZnVniFpqMlOQK9NaskNZwwmz+aoaJE1x/XcUGIxC+YHYACAFkIDEAAwJnJJfK0C+dBA1FwffsBjmFMenm5J+ie5v1XN85VfSVrvZq8e6CicOxp/+IJi+8rhtviZcl3RXDPCDogi/b6nnHyWD4S0guylwYTiwfwADADQQmgAAgDGxPyZdn8oHwJx6WVUpLn1DKWzaor+KulpzTQul+7OIj92oBj/dDT/nosm2wOT18Qvluz8JpsaOZfel0xKrzqjsukgjpTmNGtw+BDJ9g/lsE1r8fVUBQBQbzQAAQBjuAh5KHdBHDx7mU+mIk248V/uu5fKyQ/dfIGk8c00Npdusig+esHUQl0eJ+w9ztL+jvjNkj6iQO7eHUFHR567tqdc7eaoacK1JhcdH040tnJ7vs4NAMCO770AABgjmfzqUGKp5RPuAmwyPUPp8blceqOkk5pweL8u5OLn9k+1O+r9F/d35D8ps1MkbWyynO7ssv6eoeSyORXflyOoibhOCCiaKykIAGAs0AAEAIwZM10VTCxuNACbxGkVn1Qqp+e7+aWS9mm28bnb/PzD8cvmHWQPjVUM/cX4B27+fEl/b7r8ml5a8/TmnnJ1LkdT45u70nc2KZgvAJuyq6gKAGAs0AAEAIyZdVPzN0p6KJBwjpu7xneiKo2tu5y8qODJLZI3Y/MmM+n/DXTGc+YdYclYBzNQLPw5s9qzJA02Ya53cdn5pXLyozmrfC+OrMaVZrWXSArmIy81owEIABgbNAABAGNmsVlNpj8GEs646voaXwNuUGct9QmlcnqeSb+UbL8mHOJGmb22ryP/hZCC2vKF4Gc13xeC/+XVtTS9paeSnsJR1pgy95Bqt2ZBsX0lVQEAjAUagACAMWUBvQ/JsuwNVKTxdA8lz9mYr90g+Zmbp1TTucfNn99fjH8QYnAXTbYH1qXxSyXra9Iptoe7f680VP3e3CHfgyOuccxe6ruZdGI4653z/j8AwJihAQgAGFNuAb0Q3ewVp97mu1KVxnD6jT6+NJR8yUy/k/ygZhyjSdcqio8cKBb+HHKci2datb8jnu3yt0lKm3LCmZ2SWLq8ZyidJXfjCAxfrZC8TlJbKPFkrt9SFQDAWKEBCAAYU+sOiq+RdH8g4bS3VZPXUZXwdQ+lJ8TjkltkemfTXs+Yfy+eMDZf+t1eAx2Fc931fEn3NOnU28PNF3RX0t/NKQ9P50gMnNsZIYWTxflfUhQAwJhdWpICAMBY6ykn33epK5BwrunvyD+DqoRpzirfK0uSL7jZ6U08TDfXOX0d8cdl5g1Zp4rvW1P6Y7mOaOI6JSZ9abzFHzu3aMMcnWGZtXxTRy6XGwoopKX9HfmDqQwAYKxwByAAIAB+aUDBHM2dPSFOEbeecnVulqbLm7z595C7ndjXme9t1OafJF1QtDvTDfHz5P79Jq5V3qX3rfP0hlIlOZaDNCy5ONcdUjxm4u4/AMCYogEIABhzcZr/paRgmh2pohJVCUepMjyjVEmvdNn5LjXzOxqHLKsdPdAZX9oMg1l0qK3v78i/Tq4PSsqauG7T5LqiVE77Zi333Tlix17XHT5OrtkhxZS5fkFlAABjiQYgAGDMzZthd0u6IZR4THrjaRWfRGXGVvdqb+8uJ+fIo+slHdPUgzVd5vn4GX3T2oeaa1zm/Z35z7jbyyU91NQVlJdyuXR5T7k6t8s9xxE8dsZvSkqSnhRQSOuVj6+iMgCAsUQDEAAQBJd+FlA4u7QpPYuqjJ3ucnqSktoykz4iqdDkw/38uqnxywem2IPNOsCBzvhSy2pHSxps8lru6bLzJ1TSJd2V5HkcyfXXe4XH5tG7Q4rJpEsHptgmqgMAGEs0AAEAYahli0MKx13v6LrDx1GY+pq9YvjgnnJyucl/aPIpTT7cjS47rb8j/77FZrVmr23ftPahfC5+hsJq9o+Wp5nrilI5WTxncOMUjuz6uXWf2imSHxhUUGY/oDIAgLFGAxAAEISB6W03S1oeUEh7TdyQ9FCZ+jj1Nt+1VE6+mmXR9S69oOkH7H6bux870BFf1Ep1nneQPdRfjF/h8ndISlpgyCfXoniwVE6+ymsF6sPk7wkspA3JhtzPqQwAYKzRAAQAhOSHIQXj0nvnLvE8ZRk9Xe65UqV6ZttwWpH0Nklxs4/ZTBfn4/yhA52Fv7Zk0c18oKPwVTe9WK6/tcCIC5LeVvB0ec9QOkvuxpE/Oror6cslPT2wdeSyRYfaeqoDABhrNAABAOH0BdzDekzKbHI6KZlNZUbHGUPJC8ZX0uvkdp6kVvh6airpvX1T45PmHWQPtXr9B4r533khfrqk37XIkPd28wWlSnptz1B6PGeAkTV3iefN/fPBBeY8/gsACGRrQwoAACEplZNBSZ0BhfT3fC7uoGEzcrqHqkea2aclvbCFhr3GXa8b6MzzJdD/0OWem7giPcddH2ixa9M/uOuDzIkRWjuGqm+V2bmBhbU23Rg/hTsAAQAh4A5AAEBYXAsCi+hJSZZ+hMKMwAa9MjyjVE5+aGbXqJWaf64rcnF8GI2eR7fYrNZXzH/I3U6UdF8LDf0YM11ZqiSXlirVw5gJ2697tT/ZzM4J7tB3+z7NPwBAKGgAAgCCUlO8UFJYX0R1vf2MFdXDqc72Ka3w/Url9Hx5dKOkk9Q6d3m5pK/l18YvueBAu4eZ8PgGOuNLcxY/Ta4/ttTAXcfLbUmpnPx01uDwIcyEbWfV5Ksu7RpcXDnvozoAgGDWJVIAAAhNqZz8XNIJgYV13eS74qN7j7OUCm2dOat8r1qaflDSmyS1tdgF1gMum9XfEf+MmbBtupZ6YUI+/bykt7fg8GvmflEt8s8tKLYtZTY8sZ6h9NVu/qMAQxvqL8bTZeZUCQAQAu4ABAAEx2Qh3jVx2G37pB+jOk9s9jKf3FNOv1ZL01Xa/GXfthabwEuiLD2c5t/2WTzTqv0d+XfIrEvSgy02/JybnR55dHOpnFzSU0meyYx4bHMqvq+bfyvI04BpgOYfACCsS1QAAAKz5Q6gOyXtGVhoNTe9cKCY/x1VepTNeHl4ek32PslOlZRvwRRkkr60Lok/tHimVZkRO272Mp9ci9OFJj23hdPwe4/02YGp+V8wI/7P3CWer05KLw90blTzaXzAvBl2N5UCAISCBiAAIEg9leRT7vpgcIG5/qZcfFT/VLuDKm2p1WD1CI/sA5JepdZ9umCNSWf0deQvZ0aMrC733IRK+n5JH1NrNpb/6Xoz++zaqbkfLjartfq8KJXT8yQ/M8gNlvuivs7CLI5eAEBQ6xMpAACEqGfQ9/YoXS2pEOJGPN0YP6elv+7obj0r0he56z2SXtTi0/UneY9nz+u0ezlyR8/soepRmUUXSj61tTPht0s2LxfHF7Tqx2W6y9W3m+wr4e6w/PD+YuE6jloAQFDLEykAAISqNFRdJLM3BBre5Z6PXz4wxTa1Uk1Oq/ikNk9e57K3SZrZ4lN0k8vfP1DMf413fdVH1x0+bsLG9LPa/G7JVlc16RJJ8/qK8W9aZQ52V9LTzX1A4d5t/Lv+jvxxTE8AQGhoAAIAglWqVA+T27XBLqKmi9dW49e2wvveSpXqYVJ0ptxPlbQTs1M3yrJT+4tty0jFWMzH9GS5ny9pN7IhSbrFzb+RKP/tC4v2cNPWfag6R2bflJQLNUZ3e/VAZ3wxUxIAENzehRQAAILe8JWT30k6NuAQf21Z/Jq+aba22XI/d43vVF1fe425nyXpGczGLft76asTLX7/uUUbJh1jeG5Y4fupli6Qibut/s86l18ijy4qrM39et4RljTJUWelSvpBSZ8IfP8yuK4YH8w7GgEAIaIBCAAIWk85eaFLvw48zBtyWXrSBdPGrW70fHe55yasSF9omZ/mZq+SNJFZ+C/3eKRuvsYajl736NYV6XvNdY7CfF/oWLrX3L5fc79oQWf8x0Z9RLhn0Cd6lPZJOjn0WF122kBHfBFTDwAQIhqAAIDglcrJlZKeE/iC+oDcZvd1xj9uxBxv/sCCnSbptZL2Ytb9lx+kUfyWRVPt76QiPN3Lh58a5aJ+lw4nG4/GbzWzi7LMLz6gI39tr1nWCFH3rEiO88y+JflBDRDu8nXF+Knc/QcACHi/AgBAI2wC9dsGWVgXx2n89nkz7O6Q4+y9wuNb906faZGOl+tkSUVm2qO6V25v7e+Mv0cqwtZ7hce37ZO+T9JHJLWRkcf0d3P/pVt0Wa2W+9XC6XZfaAGWVvh+ntXOMfkZjbNfsVP7O+LvML0AAAHvUwAACF+pnFwh6XkNEu46M30tTeMvhbS5nrPK98rS5Hh3HS+zF0vahZn12Fz6YS2Kz+Kuv8ZyRmV4ZuRRv6QjycYTqkn6i6RL3fX72qb4ukWH2vqxCqZ7aHhapNzZbt4jqb2B8sjdfwCA4NEABAA0hJ6h5Bg3XdVgYW90t4skX7C+I/5jvTeHPYO+t6x2dGb+zEh6vkuHsfZvlXvd7eyBzvi7pKIx9V7h8e37pu9x18fUWI2ksZZKusVlfzZlf5H5NZOnFgZH85HhOYMbp9Si3MvN7BR3PasRz1Fu9oqBYvxTpg8AIGRsAgAADaM0VP2ezE5p0PDvddnPItdP4jj323kH2UMj+YfPXuq7eZzOkHS0m54h+dGS7ces2WY/zsXxmRccaPeQiiY4Z1SGZ8ijPklHk43t9rBJFXdfqchWmnxlJluZRfGqAw/UnVvbHDy74m1r02qHxblOuXdKPsMVPdPkUxo8P7/s78i/lGkCAAgdDUAAQMOYvcwnZ3G6XNK4xh+N3yrZLe66RZEt88zXxJHfryR/v0e6v2+are29wuPygZpY2LBpZ4+j8ZbZTlFku2byfSPZQS4/SLKDzHWQS7syQ3bIfZKdzTu8mk+Xe25CJX23pI+LuwFHw0ZJGyR7SPK1cq2XqWrSRJkmumsnk8b75lcONNveI8kpO/SCjrblTAMAQOhoAAIAGkppKPm4TB8lExixiyHTxVkcnzkwxf5GNppX99DwNFl0vknPJRsYIV/t78i/gzQAABrimpcUAAAaydw1vlOyLhnk8VbsOL9dFr2tvxhfQi5apeRupXJtlsy/IGlPEoLtnkrS3crHMwam2INkAwDQCCJSAABoJPP2tg2RojPJBHZAKulrluUPpvnXYsy8vzNe4Pm4Q9LXtPkruMC2b6Lc3kLzDwDQUJdBpAAA0Ii6y9Vvm+w0MoFtvPC5Vpm/uW9aYQnZQKlSPUxu35R0JNnA1vPv9HcUTiUPAIBGwh2AAICGlNXyb5eLd7Zhaz3o8nfsX4yPovmHf+ovFq6bXIyfYfI3SXqYjGAr3JtGvPcPANB4uAMQANCwusvpSSb/IZnA43CZL0ot/95FU+3vpAOPpWfQ93ZLviyzU8gGHnv3ZF39xfgHJAIA0HBLGCkAADSyUjntk7xEJvAoBt105kAx/ztSga0+p1SSl8j1ZUnTyQb+bePkdl5fZ/wWMgEAaEQ8AgwAaGiez50l6QYygX9t0qUH3PT+CRY/jeYftlV/Mf/LyXfFh2x5LPgeMgJJcummtTvl3kMmAAANfI0MAEBj6165qWi13BJJk8hGS0sk65flPtxftH+QDuyos5b6hE1x+h43vU9SOxlpWWstqx3ZN619iFQAABoVDUAAQFPoLqenmvxCMtGyfmZZ7T1s0DEa5gxunFKz3Gdl1sX1c8vJZHZSfzG+hFQAABoZFzAAgKZRKiefk/T/yERLGXS3dw90xpeSCoy22UPVozKz/5F0DNloDe5690Bn/ktkAgDQ6GgAAgCaaadm3ZVkkclOIxlN7z6Xf+KAu/L/23ucpaQDdT3PrKidbK7PSn4gCWnijZLZt/qK8VwyAQBoBnwEBADQTLs1Vz4/R64/koymtU7Sp6oWHzjQUfgqzT+MxXlmoBgvnmC5GXI/W9IaktKULt3/ztxZpAEA0DSXMKQAANBs5g75Homlf5DUSTaaxgZJ58niz/OBD4Sk6w4fN3FT8ibP7H0yPZmMNIXfpxvjly061NaTCgBAs6ABCABoSnNW+V61NP2tpBlko6FVJRuwLPfxvmnGnVYI1tkVb1vvyRmZrNekp5CRBt0cma5WLT6+b5qtJRsAgKZa40gBAKBZ0QRsaIlk/TXPnbOw0+4iHWgUp9/o43Pjkjkm+4CkvchIA22MaP4BAJp5nSMFAIBm1jPoeyuXXuGuDrLREBJ3W5ir5T4xf4bdRjrQwOeeiR6lb5P0Lkm7kZHg/XpcEp903kxbRyoAAM2IBiAAoOmdvsKfFGfpTyQdTTaCtUmyhZmln19QbF9JOtA055/NdwT2mKJ38NXgYLdE/fmHc2+ad4Ql5AIA0LSrHSkAALSCLe/nGnDZ68hGUB6StMCy+HO84w/NrNc9unVF7WWW+ftlehYZCYKb65y+znwvqQAANDsagACAltqA374i/YK73kU2xvwSZJV59qV4Yr5/3t62gXyglfQMJcco0rvd9QpJERkZE+skm9vfEX+HVAAAWuLqmxQAAFpNqZKeLPcLJO1MNuruenP7yv5rchf1Hmcp6UArO6Oy6aDIc2+TNEfSTmSkbpZFUfba+VPbbiEVAIBWQQMQANCSegY3dXqU+66kp5GNUZea6Wfm+vL8jvyVpAP4d3OHfI+q0llmmiNpOhkZ1e3P+evG5d65eD/bSC4AAC21ApICAECr6l7t7UprXzT3s1gTR4PfKtkFlsX9vN8P2Do9Q8kxHvkb5dYlaRwZGTF3udtbBzrji0kFAKAVsdkBALS87qHkOWb6pqQZZGOH1SRd4Wbz1k/N/WixWY2UANvutIpPavPkdS57k6TDyMh2c3P/tqX5d8yfafeTDgBAq6IBCACAtnwlOEs/4Kb3S2ojI9t8SbHCzOdncTwwMMX+Rj6AkdMzWD3Co+iNJu9yaVcystWuN9Nb+or5P5EKAEDLX62TAgAAHrnR3tTpUe4zkl7FOvmE7jWzH8v8O30Hxb+TmZMSYPR0LfXCxLj2Ajd1mfxVNAMfY4NjKntmH+3vyH2f8xIAAFvWR1IAAMB/K5WrR0v2WUnPIxv/5n53+3EU+ff3vzP+LV/yBcbG3CWeTyfWXuimLslfKWk3smKr5NlnJq/JD3BuAgDgP1ZJUgAAwGPrLicvkvQek17UquumSQ+47GJzLY7X5i6fd4QlzAwgHHOXeL66S/oCy6xL7ifI9ORWGr9LV0ZuX9m/I3dJr1nGjAAA4FGv6QEAwBOZvWL44Fot9w4zP01SewsMeZmkX5vbL9emud8snmlVZgHQANyte7B6sMX2Qrm9UNKxksY34Ujvl2yxLJvXXyxcR+EBAHh8NAABANgGs5f6blkhea3JTnPXs5poLb3H5ZdH0uWp53+9sNPuotpA4+ta6oUJhfSZcr1Q0gslHSkp16DD2WDSz93swnXV3GX8YAIAgK1HAxAAgO00Z3DjlNTi10eRTnDXMxpsU32/pD+b67eSX97Xkb+Jl+UDzW/uSt85zdKj5To6k4426ShJewYc8nK5fmGRfpHF8ZUDU2wTVQQAYNvRAAQAYAScepvv2l6tvchdL5H8WZI6A1pn18p1s8lukHRNmqV/XjitrULDD4AkzVrp++dqtUPc/RCTHyqzmZKmSmqrcygPmbTETX+xzP6aKvcX7kYGAGBk0AAEAGAUzF3pO6e19MjMddSWDXVRUlHShFH8a++RVJGs4u4rZDbolt64YGrbKpp9ALZFr3u0apX2tTQtmvzASLZPJtvXzJ8iaR/Jd5VsF0mTtvKPdEn3SvqHS/ea9HeXVkfyFZlZOcviCs0+AABGDw1AAADqaO4yf0o1l05VZE+OsuxJku2ZRbaHZdmeZmZumiBX3qWCuWoy1bbsnB8y942Kogfd/QG5HrTI/h65317L1e5eX2i7c/F+tpEMA6inXveofLt23qmmQpYO/9vHRtJcW5rGWitJHfvrIb7QCwAAAAAAAAAAAAAAAAAAAAAAAAAAAAAAAAAAAAAAAAAAAAAAAAAAAAAAAAAAAAAAAAAAAAAAAAAAAAAAAAAAAAAAAAAAAAAAAAAAAAAAAAAAAAAAAAAAAAAAAAAAAAAAAAAAAAAAAAAAAAAAAAAAAAAAAAAAAAAAAAAAAAAAAAAAAAAAAAAAAAAAAAAAAAAAAAAAAAAAAAAAAAAAAAAAAAAAAAAAAAAAAAAAAAAAAAAAAAAAAAAAAAAAAAAAAAAAAAAAAAAAAAAAAAAAAAAAAAAAAAAAAAAAAAAAAAAAAAAAAAAAAAAAAAAAAAAAAAAAAAAAAAAAAAAAAAAAAAAAAAAAAAAAAAAAAAAAAAAAAAAAAAAAAAAAAAAAAAAAAAAAAAAAAAAAAAAAAAAAAAAAAAAAAAAAAAAAAAAAAAAAAAAAAAAAAAAAAAAAAAAAAAAAAAAAAAAAAAAAAAAAAAAAAAAAAAAAAAAAAAAAAAAAAAAAAAAAAAAAAAAAAAAAAAAAAAAAAAAAAAAAAAAAAAAAAAAAAAAAAAAAAAAAAAAAAAAAAAAAAAAAAAAAAAAAAAAAAAAAAAAAAAAAAAAAAAAAAAAAAAAAAAAAAAAAAAAAAAAAAAAAAAAAAAAAAAAAAAAAAAAAAAAAAAAAAAAAAAAAAAAAAAAAAAAAAAAAAAAAAAAAAAAAAAAAAAAAAAAAAAAAAAAAAAAAAAAAAAAAAAAAAAAAAAAAAAAAAAAAAAAAAAAAAAAAAAAAAAAAAAAAAAAAAAAAAAAAAAAAAAAAAAAAAAAAAAAAAAAAAAAAAAAAAAAAAAAAAAAAAAAAAAAAAAAAAAAAAAAAAAAAAAAAAAAAAAAAAAAAAAAAAAAAAAAAAAAAAAAAAAAAAAAAAAAAAAAAAAAAAAAAAAAAAAAAAAAAAAAAAAAAAAAAAAAAAAAAAAAAAAAAAAAAAAAAAAAAAAAAAAAAAAAAAAAAAAAAAAAAAAAAAAAAAAAAAAAAAAAAAAAAAAAAAAAAAAAAAAAAAAAAAAAAAAAAAAAAAAAAAAAAAAAAAAAAAAAAAAAAAAAAAAAAAAAAAAAAAAAAAAAAAAAAAAAAAAAAAAAAAAAAAAAAAAAAAAAAAAAAAAAAAAAAAAAAAAAAAAAAAAAAAAAAAAAAAAAAAAAAAAAAAAAAAAAAAAAAAAAAAAAAAAAAAAAAAAAAAAAAAAAAAAAAAAAAAAD/9P8BqqQTocFpOWQAAAAldEVYdGRhdGU6Y3JlYXRlADIwMTctMTAtMDlUMTg6NTQ6MTArMDA6MDDUpmqqAAAAJXRFWHRkYXRlOm1vZGlmeQAyMDE3LTEwLTA5VDE4OjU0OjEwKzAwOjAwpfvSFgAAAABJRU5ErkJggg==;dashed=0;fillColor=#8CC64F;fontFamily=roboto;fontSource=https%3A%2F%2Ffonts.googleapis.com%2Fcss%3Ffamily%3Droboto;fontColor=none;align=center;html=1;fontStyle=1" vertex="1" parent="zuTwkrwnKx_cXMOe-0HA-22">
          <mxGeometry x="15.139999999999873" y="40" width="169.72" height="120" as="geometry" />
        </mxCell>
        <mxCell id="zuTwkrwnKx_cXMOe-0HA-24" style="edgeStyle=orthogonalEdgeStyle;rounded=0;orthogonalLoop=1;jettySize=auto;html=1;entryX=0.5;entryY=1;entryDx=0;entryDy=0;startArrow=classic;startFill=1;fontFamily=roboto;fontSource=https%3A%2F%2Ffonts.googleapis.com%2Fcss%3Ffamily%3Droboto;fontColor=none;" edge="1" parent="zuTwkrwnKx_cXMOe-0HA-27" source="zuTwkrwnKx_cXMOe-0HA-6" target="zuTwkrwnKx_cXMOe-0HA-22">
          <mxGeometry relative="1" as="geometry" />
        </mxCell>
      </root>
    </mxGraphModel>
  </diagram>
</mxfile>
